<svg xmlns="http://www.w3.org/2000/svg" xmlns:xlink="http://www.w3.org/1999/xlink" width="1080" zoomAndPan="magnify" viewBox="0 0 810 817.92" height="1080" preserveAspectRatio="xMidYMid meet" version="1.0"><defs><filter x="0%" y="0%" width="100%" height="100%" id="02c0d6e519"><feColorMatrix values="0 0 0 0 1 0 0 0 0 1 0 0 0 0 1 0 0 0 1 0" color-interpolation-filters="sRGB"/></filter><clipPath id="db102d38d3"><path d="M 169.507812 83.492188 L 640.492188 83.492188 L 640.492188 769.425781 L 169.507812 769.425781 Z M 169.507812 83.492188 " clip-rule="nonzero"/></clipPath><clipPath id="bf544e5c5c"><path d="M 0.507812 0.492188 L 471.492188 0.492188 L 471.492188 686.425781 L 0.507812 686.425781 Z M 0.507812 0.492188 " clip-rule="nonzero"/></clipPath><clipPath id="57f5a3dab5"><rect x="0" width="472" y="0" height="687"/></clipPath><clipPath id="d548f8a96b"><path d="M 169.507812 81 L 638 81 L 638 545.945312 L 169.507812 545.945312 Z M 169.507812 81 " clip-rule="nonzero"/></clipPath><clipPath id="9c9477f443"><path d="M 299 40.496094 L 537 40.496094 L 537 148 L 299 148 Z M 299 40.496094 " clip-rule="nonzero"/></clipPath><mask id="e1f601d6f1"><g filter="url(#02c0d6e519)"><rect x="-81" width="972" fill="#000000" y="-81.792" height="981.504" fill-opacity="0.35"/></g></mask><clipPath id="cea2eb59bb"><path d="M 0.289062 0.496094 L 237 0.496094 L 237 107 L 0.289062 107 Z M 0.289062 0.496094 " clip-rule="nonzero"/></clipPath><clipPath id="e884b224e3"><rect x="0" width="238" y="0" height="108"/></clipPath></defs><g clip-path="url(#db102d38d3)"><g transform="matrix(1, 0, 0, 1, 169, 83)"><g clip-path="url(#57f5a3dab5)"><g clip-path="url(#bf544e5c5c)"><path fill="#6a2e3a" d="M 0.507812 0.492188 L 471.492188 0.492188 L 471.492188 686.730469 L 0.507812 686.730469 Z M 0.507812 0.492188 " fill-opacity="1" fill-rule="nonzero"/></g></g></g></g><g clip-path="url(#d548f8a96b)"><path fill="#6a2e3a" d="M 634.289062 546.21875 L 169.671875 546.21875 L 169.671875 81.597656 L 513.832031 81.597656 C 582.664062 81.597656 634.660156 81.597656 634.289062 81.597656 C 635.492188 81.597656 640.339844 133.226562 634.289062 202.058594 Z M 634.289062 546.21875 " fill-opacity="1" fill-rule="nonzero"/></g><g clip-path="url(#9c9477f443)"><g mask="url(#e1f601d6f1)"><g transform="matrix(1, 0, 0, 1, 299, 40)"><g clip-path="url(#e884b224e3)"><g clip-path="url(#cea2eb59bb)"><path fill="#b07880" d="M 234.316406 70.035156 L 224.921875 71.617188 C 218.894531 72.355469 210.398438 74.0625 200.148438 75.792969 C 189.871094 77.363281 177.84375 78.996094 165.128906 81.699219 C 152.328125 83.949219 138.628906 86.074219 124.976562 88.472656 C 111.242188 90.367188 97.746094 93.691406 84.828125 95.246094 C 72.167969 98.339844 60.042969 99.367188 49.804688 101.152344 C 39.558594 102.902344 31.011719 104.320312 25.03125 105.328125 C 19.054688 106.335938 15.636719 106.910156 15.636719 106.910156 C 15.636719 106.910156 15.308594 104.980469 14.769531 101.757812 C 12.550781 101.46875 21.554688 99.152344 14.378906 99.453125 C 23.351562 97.035156 15.492188 97.335938 13.882812 96.488281 C 5.65625 96.75 8.539062 95.042969 13.628906 92.878906 C 15.234375 91.296875 12.605469 90.351562 12.59375 88.882812 C 13.917969 87.722656 12.324219 86.742188 12.609375 85.28125 C 0.714844 86.578125 17.636719 82.976562 13.003906 82.980469 C 32.964844 78.84375 15.472656 80.988281 11.246094 80.894531 C -5.097656 82.84375 3.125 80.644531 0.9375 80.199219 C 0.277344 79.503906 2.09375 78.398438 10.789062 76.160156 C 11.355469 75.289062 13.84375 74.125 12.296875 73.679688 C 3.425781 74.472656 -2.132812 74.746094 9.773438 72.136719 C 4.070312 71.730469 5.734375 70.027344 9.226562 67.988281 C -0.207031 68.851562 3.726562 67.457031 8.105469 65.984375 C 7.578125 65.335938 11.910156 63.863281 8.355469 63.726562 C 17.089844 60.777344 -1.320312 62.414062 8.160156 59.375 C 3.34375 59.46875 12.933594 57.140625 5.921875 57.625 C 6.234375 56.875 4.570312 56.46875 6.949219 55.394531 C 5.941406 54.605469 7.328125 53.511719 6.960938 52.785156 C 11.515625 51.230469 17.988281 49.429688 8.101562 50.445312 C 11.148438 48.640625 14.246094 47.070312 5.628906 47.589844 C 1.277344 46.460938 10.394531 43.527344 4.777344 42.511719 C 8.300781 39.832031 2.554688 38.085938 3.90625 37.363281 C 1.082031 35.597656 2.832031 36.84375 8.210938 36.632812 C 14.714844 35.527344 -2.667969 38.46875 13.304688 35.78125 C 17.867188 35.019531 4.203125 37.328125 20.105469 34.625 C 29.148438 32.855469 33.402344 32.039062 24.730469 33.492188 C 32.621094 32.144531 21.867188 34.027344 28.394531 33.015625 C 35.679688 31.871094 48.589844 29.800781 33.117188 32.46875 C 40.460938 31.285156 37.050781 31.871094 38.078125 31.597656 C 38.605469 31.242188 45.429688 30.085938 43.308594 30.496094 C 51.578125 29.15625 48.167969 29.851562 48.859375 29.71875 C 48.90625 29.691406 49.328125 29.605469 56.582031 28.367188 C 61.363281 27.550781 55.070312 28.609375 64.679688 27.003906 C 69.597656 26.1875 72.039062 25.8125 73.105469 25.683594 C 76.023438 25.546875 90.613281 23.269531 92.949219 22.882812 C 103.6875 21.074219 100.140625 21.496094 113.257812 18.914062 C 120.070312 17.046875 126.792969 15.832031 133.542969 14.828125 C 140.296875 13.828125 146.972656 13.066406 153.40625 12.140625 C 165.976562 8.53125 178.195312 8.066406 188.425781 6.234375 C 198.703125 4.652344 207.375 3.976562 213.199219 2.054688 L 222.59375 0.472656 C 222.59375 0.472656 223.328125 4.820312 224.429688 11.339844 C 237.644531 10.789062 231.699219 13.609375 232.300781 15.425781 C 241.695312 14.800781 223.667969 18.832031 236.871094 17.609375 C 237.5625 18.503906 227.105469 21.292969 226.304688 22.476562 C 228.316406 23.183594 223.777344 25.015625 217.234375 27.195312 C 215.652344 28.542969 217.179688 29.375 226.847656 28.84375 C 225.125 31.335938 224.695312 33.640625 228.457031 35.242188 C 228.332031 37.5 232.164062 39.085938 230.214844 41.617188 C 231.941406 43.527344 236 45.003906 230.613281 48.011719 C 222.621094 55.640625 231.714844 59.765625 233.242188 63.597656 L 234.328125 70.011719 Z M 234.316406 70.035156 " fill-opacity="1" fill-rule="nonzero"/></g></g></g></g></g><path stroke-linecap="butt" transform="matrix(0.749926, -0.00103012, 0.00103012, 0.749926, 219.849633, 248.542078)" fill="none" stroke-linejoin="miter" d="M -0.00183621 7.001877 L 493.765688 6.997769 " stroke="#f9e6d5" stroke-width="14" stroke-opacity="1" stroke-miterlimit="4"/><path stroke-linecap="butt" transform="matrix(0.749926, -0.00103012, 0.00103012, 0.749926, 219.849633, 298.805351)" fill="none" stroke-linejoin="miter" d="M -0.00183336 6.999804 L 493.765684 7.000904 " stroke="#f9e6d5" stroke-width="14" stroke-opacity="1" stroke-miterlimit="4"/><path stroke-linecap="butt" transform="matrix(0.749926, -0.00103012, 0.00103012, 0.749926, 219.849633, 349.068599)" fill="none" stroke-linejoin="miter" d="M -0.00183056 6.997766 L 493.765687 6.998866 " stroke="#f9e6d5" stroke-width="14" stroke-opacity="1" stroke-miterlimit="4"/><path stroke-linecap="butt" transform="matrix(0.749926, -0.00103012, 0.00103012, 0.749926, 219.849633, 399.331815)" fill="none" stroke-linejoin="miter" d="M -0.00183498 7.000978 L 493.765682 7.002078 " stroke="#f9e6d5" stroke-width="14" stroke-opacity="1" stroke-miterlimit="4"/><path stroke-linecap="butt" transform="matrix(0.749926, -0.00103012, 0.00103012, 0.749926, 219.849633, 449.595091)" fill="none" stroke-linejoin="miter" d="M -0.00183212 6.998901 L 493.765685 7.000002 " stroke="#f9e6d5" stroke-width="14" stroke-opacity="1" stroke-miterlimit="4"/><path stroke-linecap="butt" transform="matrix(0.749926, -0.00103012, 0.00103012, 0.749926, 219.849633, 499.85834)" fill="none" stroke-linejoin="miter" d="M -0.00183648 7.002068 L 493.765688 6.99796 " stroke="#f9e6d5" stroke-width="14" stroke-opacity="1" stroke-miterlimit="4"/><path stroke-linecap="butt" transform="matrix(0.749926, -0.00103012, 0.00103012, 0.749926, 219.849633, 550.12159)" fill="none" stroke-linejoin="miter" d="M -0.00183367 7.000027 L 493.765684 7.001128 " stroke="#ffffff" stroke-width="14" stroke-opacity="1" stroke-miterlimit="4"/></svg>