<svg xmlns="http://www.w3.org/2000/svg" xmlns:xlink="http://www.w3.org/1999/xlink" width="1080" zoomAndPan="magnify" viewBox="0 0 810 817.92" height="1080" preserveAspectRatio="xMidYMid meet" version="1.0"><path fill="#6a2e3a" d="M 186.570312 657.578125 L 187.234375 467.433594 C 187.246094 464.855469 187.519531 462.308594 188.054688 459.792969 C 188.59375 457.273438 189.382812 454.835938 190.421875 452.480469 C 191.460938 450.125 192.730469 447.898438 194.230469 445.804688 C 195.730469 443.710938 197.425781 441.792969 199.324219 440.046875 L 380.964844 273.140625 C 381.816406 272.355469 382.703125 271.617188 383.621094 270.917969 C 384.542969 270.214844 385.492188 269.558594 386.472656 268.949219 C 387.453125 268.335938 388.457031 267.769531 389.492188 267.253906 C 390.523438 266.734375 391.578125 266.265625 392.65625 265.84375 C 393.730469 265.421875 394.824219 265.050781 395.933594 264.734375 C 397.046875 264.414062 398.167969 264.144531 399.304688 263.929688 C 400.4375 263.714844 401.582031 263.554688 402.730469 263.445312 C 403.882812 263.335938 405.035156 263.277344 406.191406 263.277344 C 407.347656 263.273438 408.5 263.324219 409.652344 263.429688 C 410.800781 263.535156 411.945312 263.691406 413.082031 263.902344 C 414.21875 264.113281 415.34375 264.375 416.453125 264.691406 C 417.566406 265.003906 418.660156 265.371094 419.738281 265.785156 C 420.816406 266.203125 421.875 266.667969 422.90625 267.183594 C 423.941406 267.699219 424.953125 268.257812 425.933594 268.867188 C 426.917969 269.472656 427.871094 270.125 428.792969 270.824219 C 429.714844 271.519531 430.601562 272.257812 431.457031 273.035156 L 612.828125 438.261719 C 614.75 440.015625 616.46875 441.949219 617.988281 444.058594 C 619.507812 446.171875 620.792969 448.417969 621.84375 450.796875 C 622.894531 453.175781 623.6875 455.640625 624.226562 458.1875 C 624.761719 460.730469 625.03125 463.304688 625.03125 465.90625 L 625.03125 658.988281 C 625.03125 660.207031 624.972656 661.425781 624.855469 662.640625 C 624.734375 663.855469 624.554688 665.0625 624.320312 666.261719 C 624.082031 667.457031 623.785156 668.640625 623.433594 669.808594 C 623.078125 670.980469 622.667969 672.128906 622.203125 673.257812 C 621.738281 674.386719 621.21875 675.488281 620.644531 676.566406 C 620.070312 677.644531 619.445312 678.691406 618.769531 679.707031 C 618.089844 680.722656 617.367188 681.703125 616.59375 682.648438 C 615.820312 683.597656 615.003906 684.5 614.144531 685.367188 C 613.28125 686.230469 612.378906 687.054688 611.4375 687.832031 C 610.496094 688.609375 609.519531 689.335938 608.507812 690.019531 C 607.492188 690.699219 606.449219 691.332031 605.375 691.910156 C 604.300781 692.488281 603.199219 693.015625 602.074219 693.484375 C 600.945312 693.957031 599.800781 694.371094 598.632812 694.730469 C 597.464844 695.089844 596.285156 695.390625 595.085938 695.636719 C 593.890625 695.878906 592.683594 696.0625 591.46875 696.1875 C 590.253906 696.3125 589.039062 696.378906 587.816406 696.386719 L 496.996094 696.855469 C 495.765625 696.859375 494.539062 696.808594 493.316406 696.691406 C 492.09375 696.578125 490.878906 696.402344 489.671875 696.167969 C 488.464844 695.933594 487.273438 695.640625 486.09375 695.289062 C 484.917969 694.9375 483.761719 694.53125 482.625 694.0625 C 481.484375 693.597656 480.375 693.078125 479.289062 692.503906 C 478.203125 691.925781 477.148438 691.300781 476.125 690.621094 C 475.097656 689.941406 474.113281 689.210938 473.160156 688.4375 C 472.207031 687.660156 471.296875 686.835938 470.425781 685.96875 C 469.550781 685.105469 468.726562 684.195312 467.945312 683.246094 C 467.164062 682.300781 466.429688 681.316406 465.746094 680.292969 C 465.058594 679.273438 464.425781 678.222656 463.847656 677.140625 C 463.265625 676.058594 462.738281 674.949219 462.265625 673.8125 C 461.792969 672.679688 461.378906 671.523438 461.023438 670.347656 C 460.664062 669.171875 460.363281 667.980469 460.125 666.777344 C 459.882812 665.570312 459.703125 664.355469 459.582031 663.132812 C 459.460938 661.910156 459.402344 660.683594 459.402344 659.457031 L 459.402344 542.1875 C 459.433594 537.214844 458.484375 532.433594 456.558594 527.84375 C 456.019531 526.558594 455.433594 525.296875 454.800781 524.058594 C 454.164062 522.816406 453.484375 521.601562 452.753906 520.414062 C 452.027344 519.222656 451.257812 518.066406 450.441406 516.933594 C 449.625 515.804688 448.765625 514.707031 447.867188 513.644531 C 446.96875 512.582031 446.027344 511.550781 445.050781 510.558594 C 444.074219 509.566406 443.058594 508.613281 442.007812 507.699219 C 440.957031 506.78125 439.871094 505.910156 438.753906 505.078125 C 437.636719 504.246094 436.488281 503.457031 435.3125 502.710938 C 434.132812 501.964844 432.929688 501.269531 431.699219 500.613281 C 430.46875 499.960938 429.210938 499.355469 427.933594 498.800781 C 426.65625 498.242188 425.363281 497.734375 424.046875 497.277344 C 422.730469 496.820312 421.398438 496.410156 420.050781 496.054688 C 418.703125 495.699219 417.34375 495.394531 415.972656 495.140625 C 414.605469 494.890625 413.226562 494.6875 411.839844 494.542969 C 410.453125 494.394531 409.066406 494.300781 407.671875 494.257812 C 406.277344 494.214844 404.886719 494.226562 403.496094 494.292969 C 402.101562 494.359375 400.714844 494.476562 399.332031 494.644531 C 397.949219 494.816406 396.574219 495.039062 395.207031 495.316406 C 393.84375 495.589844 392.488281 495.917969 391.148438 496.296875 C 389.808594 496.675781 388.484375 497.105469 387.175781 497.585938 C 385.867188 498.066406 384.578125 498.59375 383.3125 499.175781 C 382.042969 499.753906 380.800781 500.378906 379.578125 501.050781 C 378.359375 501.726562 377.167969 502.445312 376 503.207031 C 374.835938 503.972656 373.703125 504.78125 372.597656 505.632812 C 371.496094 506.480469 370.425781 507.375 369.390625 508.304688 C 368.355469 509.238281 367.355469 510.210938 366.394531 511.21875 C 365.433594 512.226562 364.511719 513.269531 363.628906 514.351562 C 362.75 515.429688 361.910156 516.539062 361.113281 517.683594 C 360.316406 518.828125 359.5625 520 358.855469 521.199219 C 358.148438 522.402344 357.488281 523.625 356.875 524.878906 C 356.261719 526.128906 355.695312 527.402344 355.179688 528.695312 C 354.660156 529.988281 354.195312 531.300781 353.777344 532.632812 C 352.664062 536.175781 352.121094 539.804688 352.148438 543.519531 C 352.148438 581.429688 352.148438 619.332031 352.148438 657.226562 C 352.148438 658.449219 352.089844 659.664062 351.972656 660.882812 C 351.851562 662.097656 351.675781 663.304688 351.4375 664.5 C 351.199219 665.699219 350.90625 666.882812 350.550781 668.050781 C 350.199219 669.222656 349.789062 670.371094 349.324219 671.5 C 348.859375 672.628906 348.339844 673.730469 347.765625 674.808594 C 347.191406 675.886719 346.566406 676.933594 345.890625 677.953125 C 345.214844 678.96875 344.492188 679.949219 343.71875 680.898438 C 342.945312 681.84375 342.128906 682.75 341.269531 683.613281 C 340.410156 684.480469 339.507812 685.304688 338.566406 686.082031 C 337.625 686.859375 336.648438 687.589844 335.632812 688.269531 C 334.621094 688.953125 333.578125 689.582031 332.503906 690.164062 C 331.429688 690.742188 330.328125 691.269531 329.203125 691.742188 C 328.074219 692.214844 326.929688 692.628906 325.761719 692.988281 C 324.59375 693.351562 323.414062 693.652344 322.214844 693.894531 C 321.019531 694.140625 319.816406 694.324219 318.601562 694.453125 C 317.386719 694.578125 316.167969 694.644531 314.945312 694.652344 L 224.226562 695.105469 C 222.996094 695.113281 221.765625 695.0625 220.539062 694.949219 C 219.308594 694.835938 218.089844 694.660156 216.878906 694.429688 C 215.667969 694.195312 214.472656 693.902344 213.292969 693.546875 C 212.109375 693.195312 210.949219 692.785156 209.808594 692.320312 C 208.667969 691.851562 207.550781 691.332031 206.460938 690.753906 C 205.375 690.175781 204.316406 689.546875 203.289062 688.863281 C 202.261719 688.183594 201.269531 687.453125 200.316406 686.671875 C 199.359375 685.890625 198.445312 685.066406 197.574219 684.195312 C 196.699219 683.324219 195.871094 682.414062 195.085938 681.460938 C 194.304688 680.511719 193.570312 679.523438 192.882812 678.496094 C 192.199219 677.472656 191.566406 676.417969 190.984375 675.328125 C 190.402344 674.242188 189.878906 673.128906 189.40625 671.988281 C 188.9375 670.847656 188.523438 669.6875 188.164062 668.507812 C 187.808594 667.328125 187.511719 666.132812 187.273438 664.925781 C 187.035156 663.714844 186.859375 662.496094 186.738281 661.269531 C 186.621094 660.042969 186.566406 658.8125 186.570312 657.578125 Z M 186.570312 657.578125 " fill-opacity="1" fill-rule="nonzero"/><path fill="#6a2e3a" d="M 707.132812 401.605469 L 607.101562 300.601562 L 607.101562 171.507812 C 607.101562 170.644531 607.058594 169.785156 606.972656 168.929688 C 606.886719 168.070312 606.757812 167.222656 606.589844 166.375 C 606.421875 165.53125 606.210938 164.699219 605.960938 163.875 C 605.707031 163.050781 605.417969 162.238281 605.085938 161.445312 C 604.757812 160.648438 604.386719 159.871094 603.980469 159.113281 C 603.574219 158.351562 603.132812 157.613281 602.652344 156.898438 C 602.171875 156.183594 601.660156 155.492188 601.113281 154.828125 C 600.566406 154.160156 599.988281 153.523438 599.378906 152.917969 C 598.769531 152.308594 598.128906 151.730469 597.464844 151.183594 C 596.796875 150.636719 596.105469 150.125 595.390625 149.648438 C 594.671875 149.167969 593.933594 148.726562 593.175781 148.320312 C 592.414062 147.917969 591.636719 147.546875 590.839844 147.21875 C 590.046875 146.890625 589.234375 146.601562 588.410156 146.351562 C 587.585938 146.101562 586.75 145.890625 585.90625 145.722656 C 585.0625 145.554688 584.210938 145.429688 583.351562 145.34375 C 582.496094 145.261719 581.636719 145.21875 580.777344 145.21875 L 563.433594 145.21875 C 562.570312 145.21875 561.710938 145.261719 560.851562 145.34375 C 559.992188 145.429688 559.140625 145.554688 558.296875 145.726562 C 557.449219 145.894531 556.613281 146.101562 555.789062 146.351562 C 554.964844 146.601562 554.152344 146.894531 553.355469 147.222656 C 552.5625 147.554688 551.78125 147.921875 551.023438 148.328125 C 550.261719 148.734375 549.523438 149.175781 548.804688 149.65625 C 548.089844 150.136719 547.398438 150.648438 546.730469 151.195312 C 546.0625 151.742188 545.425781 152.320312 544.816406 152.929688 C 544.207031 153.539062 543.628906 154.179688 543.082031 154.84375 C 542.535156 155.511719 542.019531 156.203125 541.542969 156.917969 C 541.0625 157.636719 540.621094 158.375 540.214844 159.136719 C 539.808594 159.894531 539.4375 160.675781 539.109375 161.472656 C 538.777344 162.269531 538.488281 163.078125 538.238281 163.902344 C 537.988281 164.730469 537.777344 165.5625 537.609375 166.410156 C 537.441406 167.253906 537.316406 168.109375 537.230469 168.964844 C 537.148438 169.824219 537.105469 170.683594 537.105469 171.546875 L 537.105469 229.976562 L 431.484375 123.363281 C 430.675781 122.546875 429.828125 121.773438 428.945312 121.039062 C 428.058594 120.304688 427.140625 119.617188 426.1875 118.976562 C 425.238281 118.332031 424.253906 117.738281 423.242188 117.195312 C 422.234375 116.648438 421.195312 116.152344 420.136719 115.710938 C 419.078125 115.265625 418 114.878906 416.898438 114.539062 C 415.800781 114.203125 414.6875 113.921875 413.5625 113.695312 C 412.4375 113.46875 411.300781 113.296875 410.160156 113.183594 C 409.015625 113.070312 407.871094 113.011719 406.722656 113.007812 C 405.570312 113.007812 404.425781 113.0625 403.28125 113.175781 C 402.140625 113.285156 401.003906 113.453125 399.878906 113.679688 C 398.75 113.902344 397.636719 114.179688 396.539062 114.515625 C 395.4375 114.847656 394.359375 115.234375 393.296875 115.675781 C 392.234375 116.117188 391.199219 116.609375 390.1875 117.148438 C 389.175781 117.691406 388.191406 118.285156 387.238281 118.925781 C 386.28125 119.5625 385.363281 120.25 384.476562 120.980469 C 383.589844 121.710938 382.742188 122.484375 381.929688 123.300781 L 104.808594 401.527344 C 82.902344 423.527344 98.484375 461.042969 129.585938 461.042969 C 131.875 461.039062 134.140625 460.816406 136.382812 460.371094 C 138.625 459.921875 140.804688 459.261719 142.917969 458.386719 C 145.03125 457.511719 147.042969 456.441406 148.945312 455.171875 C 150.847656 453.902344 152.609375 452.460938 154.230469 450.84375 L 381.449219 223.964844 C 382.257812 223.160156 383.101562 222.394531 383.984375 221.671875 C 384.867188 220.945312 385.785156 220.265625 386.734375 219.632812 C 387.683594 219 388.660156 218.414062 389.667969 217.875 C 390.675781 217.339844 391.707031 216.851562 392.761719 216.414062 C 393.816406 215.976562 394.890625 215.59375 395.980469 215.261719 C 397.074219 214.929688 398.179688 214.65625 399.300781 214.433594 C 400.421875 214.210938 401.546875 214.042969 402.683594 213.929688 C 403.820312 213.820312 404.960938 213.761719 406.101562 213.761719 C 407.242188 213.761719 408.382812 213.820312 409.515625 213.929688 C 410.652344 214.042969 411.78125 214.210938 412.902344 214.433594 C 414.019531 214.65625 415.128906 214.929688 416.21875 215.261719 C 417.3125 215.59375 418.386719 215.976562 419.441406 216.414062 C 420.496094 216.851562 421.527344 217.339844 422.535156 217.875 C 423.539062 218.414062 424.519531 219 425.46875 219.632812 C 426.417969 220.265625 427.332031 220.945312 428.21875 221.671875 C 429.101562 222.394531 429.945312 223.160156 430.753906 223.964844 C 506.382812 299.597656 582.015625 375.226562 657.644531 450.859375 C 659.265625 452.480469 661.027344 453.925781 662.929688 455.199219 C 664.835938 456.472656 666.847656 457.546875 668.964844 458.425781 C 671.082031 459.300781 673.261719 459.964844 675.507812 460.410156 C 677.757812 460.859375 680.023438 461.082031 682.316406 461.082031 L 682.40625 461.082031 C 713.339844 461.042969 728.945312 423.632812 707.132812 401.605469 Z M 707.132812 401.605469 " fill-opacity="1" fill-rule="nonzero"/></svg>