<svg xmlns="http://www.w3.org/2000/svg" xmlns:xlink="http://www.w3.org/1999/xlink" width="1080" zoomAndPan="magnify" viewBox="0 0 810 817.92" height="1080" preserveAspectRatio="xMidYMid meet" version="1.0"><defs><clipPath id="b1b2d223b1"><path d="M 353 300 L 692.105469 300 L 692.105469 443 L 353 443 Z M 353 300 " clip-rule="nonzero"/></clipPath><clipPath id="06539eb67c"><path d="M 117.664062 300 L 299 300 L 299 443 L 117.664062 443 Z M 117.664062 300 " clip-rule="nonzero"/></clipPath></defs><path fill="#6a2e3a" d="M 645.097656 504.0625 C 645.097656 491.71875 635.089844 481.714844 622.746094 481.714844 L 376.175781 481.714844 C 363.832031 481.714844 353.828125 491.71875 353.828125 504.0625 L 353.828125 703.402344 C 353.828125 715.742188 363.832031 725.75 376.175781 725.75 L 622.746094 725.75 C 635.089844 725.75 645.097656 715.742188 645.097656 703.402344 Z M 645.097656 504.0625 " fill-opacity="1" fill-rule="nonzero"/><g clip-path="url(#b1b2d223b1)"><path fill="#6a2e3a" d="M 692.328125 323.003906 C 692.328125 310.660156 682.324219 300.652344 669.980469 300.652344 L 376.175781 300.652344 C 363.832031 300.652344 353.828125 310.660156 353.828125 323.003906 L 353.828125 420.003906 C 353.828125 432.347656 363.832031 442.351562 376.175781 442.351562 L 669.980469 442.351562 C 682.324219 442.351562 692.328125 432.347656 692.328125 420.003906 Z M 692.328125 323.003906 " fill-opacity="1" fill-rule="nonzero"/></g><path fill="#6a2e3a" d="M 298.722656 703.402344 C 298.722656 715.742188 288.714844 725.75 276.371094 725.75 L 187.246094 725.75 C 174.902344 725.75 164.894531 715.742188 164.894531 703.402344 L 164.894531 504.0625 C 164.894531 491.71875 174.902344 481.714844 187.246094 481.714844 L 276.371094 481.714844 C 288.714844 481.714844 298.722656 491.71875 298.722656 504.0625 Z M 298.722656 703.402344 " fill-opacity="1" fill-rule="nonzero"/><g clip-path="url(#06539eb67c)"><path fill="#6a2e3a" d="M 298.722656 419.996094 C 298.722656 432.339844 288.714844 442.351562 276.371094 442.351562 L 140.011719 442.351562 C 127.667969 442.351562 117.664062 432.347656 117.664062 419.996094 L 117.664062 323.003906 C 117.664062 310.660156 127.667969 300.652344 140.011719 300.652344 L 276.371094 300.652344 C 288.714844 300.652344 298.722656 310.660156 298.722656 323.003906 Z M 298.722656 419.996094 " fill-opacity="1" fill-rule="nonzero"/></g><path fill="#6a2e3a" d="M 623.21875 120.453125 C 610.191406 97.882812 583.085938 84.414062 550.757812 84.414062 C 477.136719 84.414062 424.96875 151.578125 399.34375 193.976562 C 373.671875 151.625 321.519531 84.839844 248.0625 84.839844 C 201.476562 84.839844 167.675781 112.871094 167.675781 150.902344 C 167.675781 218.351562 243.835938 262.355469 396.941406 262.355469 C 550.046875 262.355469 631.171875 205.785156 631.171875 151.460938 C 631.15625 140.660156 628.785156 130.089844 623.21875 120.453125 Z M 247.261719 187.625 C 221.527344 174.402344 212.363281 159.554688 212.363281 150.058594 C 212.363281 137.921875 227.367188 129.113281 248.054688 129.113281 C 297.886719 129.113281 337.320312 178.628906 358.746094 213.101562 C 301.34375 209.421875 266.894531 197.726562 247.261719 187.625 Z M 582.992188 161.355469 C 570.027344 183.800781 525.855469 207.589844 440.285156 213.09375 C 461.886719 178.628906 501.5 129.121094 550.75 129.121094 C 569.808594 129.121094 580.679688 136.1875 584.503906 142.808594 C 587.550781 148.082031 587.039062 154.328125 582.992188 161.355469 Z M 582.992188 161.355469 " fill-opacity="1" fill-rule="nonzero"/></svg>