<svg xmlns="http://www.w3.org/2000/svg" xmlns:xlink="http://www.w3.org/1999/xlink" width="1080" zoomAndPan="magnify" viewBox="0 0 810 817.92" height="1080" preserveAspectRatio="xMidYMid meet" version="1.0"><defs><clipPath id="97b1c7ec4e"><path d="M 81.515625 151.457031 L 728.578125 151.457031 L 728.578125 658.40625 L 81.515625 658.40625 Z M 81.515625 151.457031 " clip-rule="nonzero"/></clipPath></defs><g clip-path="url(#97b1c7ec4e)"><path fill="#6a2e3a" d="M 726.875 151.449219 C 706.925781 155.398438 687.78125 161.21875 668.660156 167.597656 C 649.59375 174.054688 630.878906 181.5625 612.429688 189.742188 C 575.554688 206.140625 539.902344 225.703125 506.117188 248.308594 C 497.574219 253.847656 489.351562 259.824219 481.011719 265.6875 C 472.878906 271.808594 464.582031 277.746094 456.707031 284.242188 C 440.6875 296.898438 425.34375 310.4375 410.425781 324.46875 C 380.753906 352.679688 353.074219 383.367188 328.574219 416.457031 C 316.117188 432.777344 304.199219 449.628906 292.976562 467.027344 C 281.796875 484.457031 271.175781 502.371094 260.964844 520.609375 C 255.929688 529.753906 250.960938 538.96875 246.277344 548.242188 C 244.207031 552.382812 242.15625 556.535156 240.148438 560.660156 C 234.398438 553.792969 228.398438 546.886719 222.464844 539.886719 C 209.210938 524.851562 195.632812 509.855469 181.273438 495.566406 C 166.941406 481.242188 152.070312 467.398438 136.484375 454.234375 C 120.859375 441.105469 104.761719 428.46875 87.144531 417.234375 L 81.515625 421.910156 C 89.3125 441.25 98.351562 459.410156 107.527344 477.351562 C 116.742188 495.261719 126.335938 512.75 136.125 530.027344 C 145.894531 547.328125 156.070312 564.222656 166.371094 581.203125 C 171.699219 589.578125 176.871094 598.109375 182.535156 606.574219 C 185.359375 610.832031 188.214844 615.117188 191.382812 619.445312 C 194.519531 623.800781 197.796875 628.214844 201.847656 632.957031 C 203.878906 635.34375 206.050781 637.855469 208.835938 640.613281 C 210.253906 641.996094 211.738281 643.421875 213.632812 645.019531 C 214.484375 645.765625 215.644531 646.671875 216.664062 647.472656 C 217.914062 648.394531 219.007812 649.214844 220.554688 650.199219 C 223.480469 652.0625 227.058594 654.1875 232.601562 656.070312 C 234.09375 656.546875 235.570312 656.96875 237.140625 657.324219 C 238.898438 657.691406 240.574219 657.980469 242.445312 658.179688 C 246.253906 658.558594 250.441406 658.496094 254.613281 657.757812 C 258.800781 657.074219 262.792969 655.710938 266.164062 654.121094 C 269.589844 652.503906 272.339844 650.699219 274.664062 648.933594 C 279.214844 645.386719 281.875 642.25 283.984375 639.589844 C 286.101562 636.894531 287.492188 634.640625 288.671875 632.617188 C 289.890625 630.539062 290.773438 628.792969 291.636719 627.058594 C 293.273438 623.683594 294.527344 620.777344 295.609375 617.988281 C 297.757812 612.4375 299.457031 607.535156 301.039062 602.675781 L 309.957031 574.824219 C 312.925781 565.753906 315.964844 556.769531 319.351562 547.914062 C 325.96875 530.125 333.855469 512.820312 342.636719 495.863281 C 351.378906 478.890625 360.878906 462.214844 371.03125 445.828125 C 391.65625 413.445312 414.957031 382.765625 440.617188 353.90625 C 453.53125 339.5625 466.933594 325.582031 481.089844 312.347656 C 488.054688 305.617188 495.328125 299.199219 502.53125 292.679688 C 509.925781 286.390625 517.234375 279.957031 524.878906 273.933594 C 540 261.671875 555.65625 250.007812 571.835938 239.050781 C 588.019531 228.09375 604.550781 217.5625 621.582031 207.832031 C 638.601562 198.039062 656.097656 189.070312 673.902344 180.648438 C 691.710938 172.386719 710.039062 164.652344 728.570312 158.566406 L 726.875 151.449219 " fill-opacity="1" fill-rule="nonzero"/></g></svg>