<svg xmlns="http://www.w3.org/2000/svg" xmlns:xlink="http://www.w3.org/1999/xlink" width="1080" zoomAndPan="magnify" viewBox="0 0 810 817.92" height="1080" preserveAspectRatio="xMidYMid meet" version="1.0"><defs><clipPath id="d79c97c499"><path d="M 1 0.992188 L 399 0.992188 L 399 641 L 1 641 Z M 1 0.992188 " clip-rule="nonzero"/></clipPath><clipPath id="b95b9eb982"><path d="M 270 1 L 516.082031 1 L 516.082031 648 L 270 648 Z M 270 1 " clip-rule="nonzero"/></clipPath><clipPath id="c431999317"><rect x="0" width="519" y="0" height="649"/></clipPath></defs><g transform="matrix(1, 0, 0, 1, 148, 80)"><g clip-path="url(#c431999317)"><g clip-path="url(#d79c97c499)"><path fill="#6a2e3a" d="M 352.21875 623.65625 C 323.726562 628.835938 305.347656 627.816406 284.453125 633.675781 C 261.710938 640.054688 227.445312 648.847656 209.324219 625.425781 C 206.238281 621.433594 203.515625 609.101562 201.128906 591.402344 C 193.667969 590.625 183.425781 589.570312 169.402344 588.15625 C 152.996094 586.496094 138.636719 589.128906 127.101562 593.0625 C 130.828125 572.832031 133.164062 537.773438 133.164062 537.773438 C 133.164062 537.773438 172.9375 422.871094 185.3125 383.980469 C 186.121094 381.441406 186.996094 378.714844 187.929688 375.839844 C 186.386719 327.527344 185.753906 291.613281 185.753906 291.613281 C 185.753906 291.613281 141.144531 373.132812 141.117188 373.667969 C 141.117188 373.667969 128.15625 386.632812 119.90625 430.824219 C 111.558594 475.554688 108.710938 535.417969 108.710938 535.417969 C 108.710938 535.417969 86.316406 575.78125 82.78125 595.226562 C 81.796875 600.640625 81.472656 605.582031 81.660156 610.011719 C 50.753906 608.242188 -3.703125 596.289062 1.90625 583.738281 C 7.503906 571.214844 35.199219 565.910156 35.199219 565.910156 C 57.242188 529.699219 109.203125 419.15625 129.460938 379.601562 C 131.945312 374.746094 133.957031 370.957031 135.375 368.511719 C 144.300781 353.09375 142.886719 295.589844 150.398438 235.046875 C 154.03125 205.765625 165.050781 176.359375 175.257812 154.109375 C 176.277344 151.886719 177.285156 149.75 178.28125 147.675781 C 182.207031 139.5 185.871094 132.558594 188.789062 127.28125 C 190.144531 124.824219 191.335938 122.738281 192.316406 121.050781 C 192.609375 120.546875 192.882812 120.078125 193.140625 119.644531 C 194.472656 117.378906 195.261719 116.125 195.261719 116.125 C 195.289062 115.753906 195.300781 115.398438 195.320312 115.035156 C 195.425781 113.171875 195.425781 111.382812 195.320312 109.664062 C 195.109375 106.203125 194.519531 102.992188 193.75 99.851562 C 193.746094 99.835938 193.742188 99.820312 193.738281 99.804688 C 193.496094 98.820312 193.234375 97.84375 192.964844 96.867188 C 192.957031 96.847656 192.953125 96.828125 192.949219 96.808594 C 192.675781 95.828125 192.390625 94.847656 192.101562 93.863281 C 192.097656 93.851562 192.09375 93.839844 192.089844 93.828125 C 191.957031 93.375 191.820312 92.914062 191.6875 92.457031 C 191.535156 91.949219 191.382812 91.4375 191.234375 90.925781 C 191.222656 90.894531 191.214844 90.859375 191.207031 90.828125 C 190.460938 88.300781 189.738281 85.660156 189.050781 83.011719 C 188.839844 82.183594 188.625 81.359375 188.421875 80.53125 C 188.347656 80.246094 188.277344 79.964844 188.207031 79.679688 C 188.203125 79.65625 188.195312 79.632812 188.191406 79.609375 C 187.988281 78.785156 187.789062 77.96875 187.59375 77.15625 C 187.585938 77.117188 187.574219 77.078125 187.566406 77.039062 C 187.449219 76.558594 187.339844 76.082031 187.226562 75.605469 C 186.886719 74.160156 186.566406 72.742188 186.265625 71.375 C 186.15625 70.890625 186.054688 70.414062 185.953125 69.945312 C 185.941406 69.898438 185.933594 69.851562 185.921875 69.808594 C 185.769531 69.09375 185.621094 68.390625 185.480469 67.710938 C 185.46875 67.660156 185.457031 67.609375 185.445312 67.554688 C 185.15625 66.160156 184.898438 64.847656 184.667969 63.644531 C 184.667969 63.628906 184.664062 63.617188 184.660156 63.605469 C 184.554688 63.03125 184.453125 62.488281 184.363281 61.96875 C 184.347656 61.898438 184.335938 61.832031 184.324219 61.765625 C 184.3125 61.6875 184.296875 61.605469 184.285156 61.53125 C 184.210938 61.121094 184.144531 60.730469 184.085938 60.359375 C 184.074219 60.300781 184.066406 60.242188 184.058594 60.183594 C 183.984375 59.738281 183.917969 59.316406 183.867188 58.9375 C 183.863281 58.933594 183.863281 58.925781 183.863281 58.917969 C 183.808594 58.546875 183.765625 58.210938 183.730469 57.90625 C 183.726562 57.867188 183.71875 57.824219 183.714844 57.785156 C 183.683594 57.5 183.660156 57.253906 183.648438 57.039062 C 183.644531 56.996094 183.640625 56.957031 183.640625 56.921875 C 183.628906 56.71875 183.625 56.550781 183.628906 56.421875 C 183.632812 56.402344 183.632812 56.386719 183.636719 56.367188 C 183.644531 56.246094 183.664062 56.152344 183.691406 56.121094 L 181.773438 55.046875 L 181.679688 54.996094 L 176.394531 52.042969 L 152.8125 38.871094 C 154.355469 30.535156 155.945312 24.28125 157.472656 22.035156 C 168.496094 5.796875 181.109375 12.367188 202.550781 7.007812 C 204.175781 6.601562 205.214844 4.773438 205.84375 2.117188 C 210.058594 2.71875 215.957031 3.335938 221.699219 3.175781 C 226.773438 3.035156 231.765625 2.015625 235.609375 0.996094 C 236.019531 2.257812 236.507812 3.289062 237.09375 3.914062 C 239.085938 6.035156 242.996094 6.394531 247.726562 6.46875 C 250.746094 6.515625 254.09375 6.453125 257.503906 6.644531 C 266.554688 7.15625 275.992188 9.519531 280.53125 20.871094 C 281.273438 22.71875 282.238281 25.582031 283.390625 29.164062 L 271.144531 44.433594 L 269.40625 46.597656 C 269.65625 47.015625 269.886719 47.457031 270.109375 47.90625 C 270.167969 48.03125 270.230469 48.15625 270.289062 48.28125 C 270.492188 48.710938 270.683594 49.148438 270.863281 49.605469 C 270.929688 49.773438 270.992188 49.949219 271.054688 50.121094 C 271.320312 50.847656 271.554688 51.609375 271.769531 52.40625 C 271.859375 52.742188 271.953125 53.070312 272.03125 53.421875 C 272.109375 53.765625 272.167969 54.125 272.234375 54.480469 C 272.316406 54.929688 272.398438 55.382812 272.464844 55.851562 C 272.511719 56.1875 272.550781 56.53125 272.589844 56.878906 C 272.652344 57.429688 272.699219 57.996094 272.734375 58.570312 C 272.753906 58.871094 272.777344 59.164062 272.789062 59.472656 C 272.828125 60.371094 272.84375 61.289062 272.816406 62.25 C 272.800781 62.816406 272.757812 63.445312 272.695312 64.105469 C 272.695312 64.109375 272.695312 64.113281 272.691406 64.117188 C 272.6875 64.1875 272.679688 64.253906 272.675781 64.324219 C 272.660156 64.472656 272.632812 64.648438 272.617188 64.800781 C 272.574219 65.171875 272.527344 65.550781 272.472656 65.945312 C 272.460938 66.050781 272.453125 66.144531 272.4375 66.25 C 272.429688 66.289062 272.425781 66.324219 272.421875 66.363281 C 272.40625 66.476562 272.390625 66.59375 272.371094 66.710938 C 272.351562 66.84375 272.324219 66.996094 272.304688 67.132812 C 272.226562 67.628906 272.148438 68.132812 272.058594 68.660156 C 272.042969 68.757812 272.03125 68.847656 272.011719 68.945312 C 271.988281 69.082031 271.964844 69.222656 271.9375 69.363281 C 271.921875 69.445312 271.90625 69.539062 271.890625 69.621094 C 271.789062 70.183594 271.679688 70.765625 271.570312 71.359375 C 271.539062 71.515625 271.511719 71.664062 271.484375 71.820312 C 271.457031 71.949219 271.433594 72.082031 271.40625 72.214844 C 271.402344 72.238281 271.398438 72.261719 271.394531 72.285156 C 271.25 73.015625 271.097656 73.769531 270.945312 74.539062 C 270.917969 74.671875 270.894531 74.792969 270.867188 74.925781 C 270.855469 74.976562 270.84375 75.03125 270.835938 75.082031 C 270.828125 75.117188 270.820312 75.152344 270.8125 75.1875 C 270.808594 75.214844 270.800781 75.246094 270.796875 75.273438 C 270.511719 76.660156 270.210938 78.097656 269.902344 79.578125 C 269.78125 80.164062 269.660156 80.742188 269.535156 81.339844 C 269.515625 81.4375 269.5 81.53125 269.476562 81.628906 C 269.261719 82.667969 269.046875 83.730469 268.828125 84.804688 C 268.796875 84.964844 268.761719 85.121094 268.730469 85.285156 C 268.683594 85.527344 268.636719 85.78125 268.585938 86.027344 C 268.425781 86.84375 268.261719 87.664062 268.101562 88.496094 C 268.074219 88.640625 268.046875 88.785156 268.019531 88.929688 C 267.921875 89.449219 267.828125 89.972656 267.730469 90.496094 C 267.621094 91.097656 267.507812 91.691406 267.398438 92.300781 C 267.386719 92.375 267.375 92.453125 267.359375 92.527344 C 267.277344 92.992188 267.207031 93.457031 267.128906 93.925781 C 267.007812 94.625 266.886719 95.320312 266.777344 96.023438 C 266.773438 96.054688 266.765625 96.085938 266.761719 96.117188 C 266.582031 97.261719 266.417969 98.410156 266.261719 99.550781 C 266.242188 99.6875 266.222656 99.824219 266.207031 99.960938 C 266.132812 100.519531 266.074219 101.074219 266.007812 101.632812 C 265.945312 102.171875 265.871094 102.714844 265.816406 103.25 C 265.800781 103.417969 265.78125 103.589844 265.761719 103.761719 C 265.753906 103.828125 265.75 103.898438 265.746094 103.96875 C 265.644531 104.976562 265.554688 105.980469 265.488281 106.976562 C 265.476562 107.140625 265.464844 107.304688 265.453125 107.46875 C 265.382812 108.546875 265.332031 109.617188 265.304688 110.671875 C 265.304688 110.742188 265.304688 110.8125 265.300781 110.882812 C 265.300781 110.925781 265.300781 110.96875 265.300781 111.011719 C 265.277344 112.117188 265.273438 113.207031 265.304688 114.277344 C 265.308594 114.460938 265.324219 114.640625 265.335938 114.824219 L 265.417969 114.824219 C 265.617188 115.480469 265.832031 116.160156 266.0625 116.84375 C 266.738281 118.886719 267.535156 121.050781 268.4375 123.367188 C 268.519531 123.570312 268.601562 123.777344 268.683594 123.984375 C 269.59375 126.304688 270.597656 128.773438 271.671875 131.425781 C 271.953125 132.128906 272.242188 132.84375 272.535156 133.574219 C 272.800781 134.226562 273.066406 134.890625 273.332031 135.5625 C 278.214844 147.808594 284.085938 163.691406 288.726562 185.550781 C 302.429688 250.074219 281.300781 349.804688 286.519531 387.078125 C 289.613281 409.171875 356.933594 575.933594 356.933594 575.933594 C 356.933594 575.933594 384.039062 583.59375 397.003906 598.324219 C 403.742188 605.980469 378.144531 618.945312 352.21875 623.65625 Z M 352.21875 623.65625 " fill-opacity="1" fill-rule="nonzero"/></g><path fill="#ffffff" d="M 217.90625 92.085938 C 217.90625 92.085938 218.925781 98.1875 215.875 99.207031 C 212.824219 100.222656 212.484375 91.410156 212.484375 91.410156 C 212.484375 91.410156 204.6875 98.1875 203.160156 93.105469 C 201.632812 88.019531 208.414062 86.492188 208.414062 86.492188 C 208.414062 86.492188 203.160156 83.101562 206.210938 79.542969 C 209.261719 75.984375 212.652344 84.121094 212.652344 84.121094 C 212.652344 84.121094 212.738281 74.222656 218.585938 78.1875 C 223.332031 81.410156 217.90625 85.984375 217.90625 85.984375 C 217.90625 85.984375 225.109375 85.410156 224.515625 90.5625 C 224.007812 94.96875 217.90625 92.085938 217.90625 92.085938 Z M 235.195312 75.8125 C 235.195312 75.8125 231.804688 71.746094 229.261719 73.777344 C 226.722656 75.8125 229.433594 79.542969 229.433594 79.542969 C 229.433594 79.542969 224.050781 80.765625 225.535156 85.644531 C 226.722656 89.542969 231.296875 89.035156 231.296875 89.035156 C 231.296875 89.035156 230.449219 94.96875 234.519531 95.476562 C 239.796875 96.136719 239.433594 90.222656 239.433594 90.222656 C 239.433594 90.222656 242.824219 94.289062 245.875 92.253906 C 248.925781 90.222656 245.707031 85.816406 245.707031 85.816406 C 245.707031 85.816406 250.285156 85.136719 249.773438 80.898438 C 249.167969 75.851562 242.488281 78.355469 242.488281 78.355469 C 242.488281 78.355469 246.046875 72.761719 240.792969 71.066406 C 235.535156 69.371094 235.195312 75.8125 235.195312 75.8125 Z M 235.789062 123.359375 C 237.316406 119.289062 225.617188 116.75 225.617188 116.75 C 225.617188 116.75 239.855469 116.238281 237.824219 110.136719 C 235.789062 104.035156 223.078125 113.1875 223.078125 113.1875 C 223.078125 113.1875 229.6875 97.933594 223.078125 96.917969 C 216.464844 95.898438 219.007812 113.695312 219.007812 113.695312 C 219.007812 113.695312 211.890625 95.390625 208.835938 99.457031 C 205.785156 103.527344 212.90625 111.152344 212.90625 111.152344 C 212.90625 111.152344 200.703125 109.628906 200.703125 113.695312 C 200.703125 117.765625 212.398438 117.765625 212.398438 117.765625 C 212.398438 117.765625 205.785156 129.96875 210.363281 131.492188 C 214.941406 133.019531 217.992188 120.816406 217.992188 120.816406 C 217.992188 120.816406 221.550781 133.527344 224.601562 132.511719 C 227.652344 131.496094 223.078125 121.832031 223.078125 121.832031 C 223.078125 121.832031 234.265625 127.425781 235.789062 123.359375 Z M 218.671875 139.800781 C 218.671875 139.800781 224.09375 135.222656 219.347656 132.003906 C 213.503906 128.035156 213.414062 137.9375 213.414062 137.9375 C 213.414062 137.9375 210.027344 129.800781 206.976562 133.359375 C 203.925781 136.917969 209.179688 140.308594 209.179688 140.308594 C 209.179688 140.308594 202.398438 141.835938 203.925781 146.917969 C 205.449219 152.003906 213.246094 145.222656 213.246094 145.222656 C 213.246094 145.222656 213.585938 154.039062 216.636719 153.019531 C 219.6875 152.003906 218.671875 145.902344 218.671875 145.902344 C 218.671875 145.902344 224.773438 148.785156 225.28125 144.375 C 225.875 139.226562 218.671875 139.800781 218.671875 139.800781 Z M 243.246094 132.171875 C 243.246094 132.171875 246.808594 126.578125 241.554688 124.882812 C 236.296875 123.1875 235.960938 129.628906 235.960938 129.628906 C 235.960938 129.628906 232.570312 125.5625 230.027344 127.59375 C 227.484375 129.628906 230.195312 133.359375 230.195312 133.359375 C 230.195312 133.359375 224.8125 134.582031 226.296875 139.460938 C 227.484375 143.359375 232.0625 142.851562 232.0625 142.851562 C 232.0625 142.851562 231.214844 148.785156 235.28125 149.292969 C 240.5625 149.953125 240.199219 144.039062 240.199219 144.039062 C 240.199219 144.039062 243.589844 148.105469 246.640625 146.070312 C 249.691406 144.039062 246.46875 139.632812 246.46875 139.632812 C 246.46875 139.632812 251.046875 138.953125 250.539062 134.714844 C 249.929688 129.667969 243.246094 132.171875 243.246094 132.171875 Z M 265.300781 110.882812 C 265.300781 110.808594 265.300781 110.742188 265.304688 110.667969 C 265.332031 109.613281 265.382812 108.546875 265.453125 107.46875 C 265.460938 107.304688 265.472656 107.140625 265.484375 106.976562 C 265.554688 105.980469 265.640625 104.976562 265.742188 103.96875 C 261.859375 104.421875 256.789062 107.28125 256.789062 107.28125 C 256.789062 107.28125 263.558594 95.949219 260.722656 94.433594 C 257.882812 92.921875 254.027344 102.890625 254.027344 102.890625 C 254.027344 102.890625 250.382812 90.925781 246.382812 92.621094 C 242.378906 94.316406 248.585938 104.546875 248.585938 104.546875 C 248.585938 104.546875 238.417969 94.570312 235.390625 100.246094 C 232.367188 105.921875 247.753906 108.84375 247.753906 108.84375 C 247.753906 108.84375 232.140625 114.550781 235.953125 120.042969 C 239.765625 125.539062 250.925781 111.441406 250.925781 111.441406 C 250.925781 111.441406 242.546875 129.207031 247.597656 128.621094 C 252.652344 128.035156 253.28125 117.621094 253.28125 117.621094 C 253.28125 117.621094 260.574219 127.523438 263.527344 124.722656 C 266.476562 121.921875 258.425781 113.4375 258.425781 113.4375 C 258.425781 113.4375 262.09375 112.449219 265.300781 110.882812 Z M 267.726562 90.492188 C 267.824219 89.972656 267.917969 89.445312 268.015625 88.929688 C 268.042969 88.78125 268.070312 88.640625 268.097656 88.492188 C 268.257812 87.664062 268.421875 86.84375 268.582031 86.023438 C 267.003906 87.402344 267.101562 89.0625 267.726562 90.492188 Z M 266.257812 99.546875 C 266.414062 98.40625 266.578125 97.257812 266.757812 96.113281 C 266.765625 96.082031 266.769531 96.050781 266.773438 96.019531 C 266.882812 95.316406 267.003906 94.617188 267.125 93.921875 C 265.324219 94.347656 263.464844 95.511719 263.96875 98.59375 C 264.28125 100.496094 265.054688 101.355469 266.003906 101.628906 C 266.070312 101.074219 266.128906 100.519531 266.203125 99.960938 C 266.222656 99.820312 266.242188 99.683594 266.257812 99.546875 Z M 265.144531 130.082031 C 266.949219 133.847656 270.195312 132.367188 271.667969 131.421875 C 270.59375 128.773438 269.589844 126.300781 268.679688 123.984375 C 267.140625 124.4375 263.203125 126.03125 265.144531 130.082031 Z M 273.332031 135.558594 C 273.0625 134.886719 272.796875 134.222656 272.535156 133.570312 C 272.664062 134.277344 272.90625 134.996094 273.332031 135.558594 Z M 268.4375 123.363281 C 267.535156 121.046875 266.734375 118.886719 266.058594 116.84375 C 263.628906 119.839844 266.828125 122.359375 268.4375 123.363281 Z M 275.199219 26.828125 C 273.164062 20.726562 260.453125 29.878906 260.453125 29.878906 C 260.453125 29.878906 267.0625 14.625 260.453125 13.605469 C 253.839844 12.589844 256.382812 30.386719 256.382812 30.386719 C 256.382812 30.386719 249.265625 12.082031 246.214844 16.148438 C 243.164062 20.21875 250.28125 27.84375 250.28125 27.84375 C 250.28125 27.84375 240.816406 26.664062 238.566406 29.167969 C 238.472656 29.140625 238.394531 29.101562 238.292969 29.082031 C 233.222656 27.988281 233.097656 35.214844 233.097656 35.214844 C 233.097656 35.214844 229.066406 29.375 225.402344 33.789062 C 220.886719 39.222656 230.730469 40.265625 230.730469 40.265625 C 230.730469 40.265625 222.304688 42.851562 225.554688 46.234375 C 228.800781 49.613281 232.683594 44.710938 232.683594 44.710938 C 232.683594 44.710938 233.546875 51.605469 238.757812 50.582031 C 243.964844 49.554688 237.972656 41.140625 237.972656 41.140625 C 237.972656 41.140625 246.777344 41.65625 246.058594 38.519531 C 245.34375 35.382812 239.171875 35.804688 239.171875 35.804688 C 239.171875 35.804688 239.984375 34.4375 240.324219 32.925781 C 243.71875 34.445312 249.773438 34.453125 249.773438 34.453125 C 249.773438 34.453125 243.164062 46.660156 247.738281 48.183594 C 252.316406 49.710938 255.367188 37.503906 255.367188 37.503906 C 255.367188 37.503906 258.925781 50.21875 261.976562 49.203125 C 265.027344 48.183594 260.453125 38.523438 260.453125 38.523438 C 260.453125 38.523438 271.640625 44.117188 273.164062 40.050781 C 274.691406 35.980469 262.996094 33.4375 262.996094 33.4375 C 262.996094 33.4375 277.230469 32.929688 275.199219 26.828125 Z M 241.296875 63.609375 C 242.824219 68.695312 250.621094 61.914062 250.621094 61.914062 C 250.621094 61.914062 250.960938 70.730469 254.011719 69.710938 C 257.0625 68.695312 256.046875 62.59375 256.046875 62.59375 C 256.046875 62.59375 262.148438 65.472656 262.65625 61.066406 C 263.25 55.914062 256.046875 56.488281 256.046875 56.488281 C 256.046875 56.488281 261.46875 51.914062 256.722656 48.691406 C 250.878906 44.726562 250.792969 54.625 250.792969 54.625 C 250.792969 54.625 247.402344 46.488281 244.351562 50.050781 C 241.300781 53.609375 246.554688 56.996094 246.554688 56.996094 C 246.554688 56.996094 239.773438 58.523438 241.296875 63.609375 Z M 272.675781 64.324219 C 272.679688 64.253906 272.6875 64.183594 272.691406 64.113281 C 272.691406 64.109375 272.691406 64.109375 272.695312 64.105469 C 272.757812 63.445312 272.800781 62.816406 272.816406 62.25 C 272.816406 62.25 272.816406 62.246094 272.816406 62.246094 C 272.84375 61.289062 272.828125 60.371094 272.789062 59.46875 C 272.777344 59.164062 272.753906 58.867188 272.734375 58.570312 C 272.699219 57.992188 272.652344 57.429688 272.589844 56.878906 C 272.550781 56.53125 272.511719 56.1875 272.464844 55.847656 C 272.398438 55.378906 272.316406 54.925781 272.234375 54.476562 C 272.167969 54.125 272.109375 53.761719 272.03125 53.421875 C 271.953125 53.070312 271.855469 52.742188 271.769531 52.40625 C 271.558594 51.609375 271.320312 50.847656 271.054688 50.121094 C 270.992188 49.949219 270.929688 49.773438 270.863281 49.605469 C 270.683594 49.148438 270.492188 48.707031 270.289062 48.28125 C 270.230469 48.152344 270.167969 48.03125 270.109375 47.90625 C 269.882812 47.453125 269.652344 47.015625 269.40625 46.597656 L 271.144531 44.433594 C 270.007812 43.734375 268.609375 43.320312 267.402344 44.289062 C 264.859375 46.320312 267.570312 50.050781 267.570312 50.050781 C 267.570312 50.050781 262.1875 51.277344 263.671875 56.152344 C 264.859375 60.050781 269.433594 59.542969 269.433594 59.542969 C 269.433594 59.542969 268.625 65.273438 272.472656 65.945312 C 272.527344 65.550781 272.574219 65.171875 272.613281 64.800781 C 272.632812 64.644531 272.660156 64.472656 272.675781 64.324219 Z M 261.664062 68.164062 C 256.980469 67.914062 257.496094 74.148438 257.496094 74.148438 C 257.496094 74.148438 252.15625 69.703125 249.054688 74.011719 C 245.953125 78.324219 256.082031 80.367188 256.082031 80.367188 C 256.082031 80.367188 249.304688 86.011719 251.96875 87.808594 C 254.636719 89.609375 258.851562 85.082031 258.851562 85.082031 C 258.851562 85.082031 260.289062 91.675781 264.09375 89.390625 C 268.539062 86.71875 263.691406 81.359375 263.691406 81.359375 C 263.691406 81.359375 268.640625 82.421875 269.960938 79.285156 C 270.046875 78.875 270.132812 78.457031 270.21875 78.054688 C 270.238281 77.964844 270.253906 77.882812 270.273438 77.796875 C 270.28125 77.582031 270.296875 77.378906 270.28125 77.144531 C 269.863281 70.089844 261.964844 76.058594 261.964844 76.058594 C 261.964844 76.058594 266.34375 68.410156 261.664062 68.164062 Z M 224.648438 17.027344 C 224.648438 17.027344 220.269531 20.007812 222.046875 22.734375 C 223.828125 25.460938 227.800781 23.125 227.800781 23.125 C 227.800781 23.125 228.5 28.601562 233.496094 27.59375 C 237.492188 26.789062 237.429688 22.1875 237.429688 22.1875 C 237.429688 22.1875 243.25 23.601562 244.152344 19.605469 C 245.320312 14.414062 239.398438 14.203125 239.398438 14.203125 C 239.398438 14.203125 243.773438 11.222656 242.042969 7.988281 C 240.316406 4.753906 235.617188 7.535156 235.617188 7.535156 C 235.617188 7.535156 235.386719 2.914062 231.117188 3.011719 C 226.035156 3.125 227.882812 10.019531 227.882812 10.019531 C 227.882812 10.019531 222.660156 5.933594 220.464844 11 C 218.269531 16.066406 224.648438 17.027344 224.648438 17.027344 Z M 200.261719 75.460938 C 200.261719 75.460938 208.957031 73.96875 207.546875 71.078125 C 206.140625 68.1875 200.222656 69.996094 200.222656 69.996094 C 200.222656 69.996094 202.28125 63.566406 197.84375 63.640625 C 192.660156 63.726562 194.171875 70.792969 194.171875 70.792969 C 194.171875 70.792969 188.925781 66.015625 186.355469 71.144531 C 186.3125 71.226562 186.296875 71.292969 186.261719 71.375 C 186.5625 72.742188 186.882812 74.15625 187.222656 75.605469 C 189.355469 76.691406 193.011719 76.25 193.011719 76.25 C 193.011719 76.25 189.355469 78.375 188.417969 80.53125 C 188.621094 81.359375 188.835938 82.183594 189.046875 83.011719 C 189.140625 83.085938 189.207031 83.164062 189.316406 83.234375 C 193.246094 85.792969 195.917969 80.136719 195.917969 80.136719 C 195.917969 80.136719 198.320312 86.660156 203.160156 84.484375 C 208.003906 82.300781 200.261719 75.460938 200.261719 75.460938 Z M 176.394531 52.039062 C 176.273438 51.484375 176.25 50.839844 176.390625 50.058594 C 177.386719 44.628906 183.394531 47.425781 183.394531 47.425781 C 183.394531 47.425781 180.035156 41.128906 184.960938 39.867188 C 189.097656 38.808594 190.367188 43.253906 190.367188 43.253906 C 190.367188 43.253906 191.4375 42.242188 192.800781 41.648438 C 192.511719 41.503906 192.242188 41.324219 191.992188 41.097656 C 188.238281 37.667969 207.148438 32.351562 207.148438 32.351562 C 207.148438 32.351562 189.1875 33.160156 190.839844 26.679688 C 192.492188 20.199219 207.035156 28.253906 207.035156 28.253906 C 207.035156 28.253906 199.15625 14.714844 205.425781 13.28125 C 211.695312 11.847656 210.824219 26.070312 210.824219 26.070312 C 210.824219 26.070312 214.484375 14.675781 218.386719 16.585938 C 222.289062 18.5 215.636719 29.089844 215.636719 29.089844 C 215.636719 29.089844 225.695312 25.472656 226.414062 28.605469 C 227.132812 31.742188 214.132812 34.054688 214.132812 34.054688 C 214.132812 34.054688 225.984375 38.273438 224.023438 42.679688 C 223.875 43.011719 223.660156 43.253906 223.410156 43.457031 C 228.109375 45.988281 222.3125 59.371094 222.3125 59.371094 C 222.3125 59.371094 235.023438 50.21875 237.058594 56.320312 C 239.09375 62.421875 224.855469 62.933594 224.855469 62.933594 C 224.855469 62.933594 236.550781 65.476562 235.023438 69.542969 C 233.5 73.613281 222.3125 68.019531 222.3125 68.019531 C 222.3125 68.019531 226.886719 77.679688 223.835938 78.695312 C 220.785156 79.714844 217.226562 67 217.226562 67 C 217.226562 67 214.175781 79.207031 209.597656 77.679688 C 205.023438 76.152344 211.632812 63.949219 211.632812 63.949219 C 211.632812 63.949219 199.9375 63.949219 199.9375 59.882812 C 199.9375 55.8125 212.144531 57.339844 212.144531 57.339844 C 212.144531 57.339844 208.363281 53.273438 207.5 49.496094 C 206.902344 50.21875 206.203125 50.65625 205.375 50.574219 C 201.328125 50.183594 204.027344 38.183594 204.027344 38.183594 C 204.027344 38.183594 200.089844 41.199219 196.414062 41.949219 C 196.519531 42.042969 196.628906 42.128906 196.730469 42.246094 C 199.144531 45.003906 195.558594 48.898438 195.558594 48.898438 C 195.558594 48.898438 201.371094 47.765625 201.410156 53.085938 C 201.4375 57.183594 195.445312 57.121094 195.445312 57.121094 C 195.445312 57.121094 196.546875 61.589844 192.839844 63.277344 C 188.195312 65.386719 186.277344 60.210938 186.277344 60.210938 C 186.277344 60.210938 185.429688 61.019531 184.28125 61.53125 C 184.210938 61.117188 184.144531 60.730469 184.085938 60.359375 C 184.074219 60.300781 184.066406 60.242188 184.054688 60.179688 C 183.984375 59.738281 183.917969 59.316406 183.863281 58.9375 C 183.863281 58.929688 183.863281 58.925781 183.863281 58.917969 C 183.808594 58.542969 183.765625 58.210938 183.730469 57.902344 C 183.722656 57.867188 183.71875 57.824219 183.714844 57.785156 C 183.683594 57.5 183.660156 57.253906 183.644531 57.035156 C 183.644531 56.996094 183.640625 56.957031 183.636719 56.917969 C 183.625 56.71875 183.621094 56.546875 183.628906 56.417969 C 183.628906 56.398438 183.632812 56.386719 183.632812 56.367188 C 183.644531 56.246094 183.660156 56.152344 183.691406 56.117188 L 181.773438 55.046875 C 181.804688 55.011719 181.828125 54.984375 181.828125 54.984375 C 181.828125 54.984375 181.765625 54.988281 181.675781 54.992188 Z M 209.480469 45.117188 C 212.890625 46.117188 218.246094 59.882812 218.246094 59.882812 C 218.246094 59.882812 216.421875 47.09375 219.894531 43.820312 C 215.871094 42.90625 210.558594 39.328125 210.558594 39.328125 C 210.558594 39.328125 210.273438 42.25 209.480469 45.117188 Z M 208.277344 150.496094 C 207.410156 147.398438 197.539062 151.507812 197.539062 151.507812 C 197.539062 151.507812 203.660156 140.601562 199.671875 138.882812 C 195.679688 137.164062 192.582031 148.726562 192.582031 148.726562 C 192.582031 148.726562 192.753906 134.480469 186.5625 136.21875 C 180.371094 137.960938 188.902344 151.09375 188.902344 151.09375 C 188.902344 151.09375 182.992188 148.195312 178.28125 147.675781 C 177.285156 149.75 176.277344 151.886719 175.257812 154.109375 C 175.371094 154.15625 175.492188 154.199219 175.605469 154.238281 C 175.765625 154.296875 175.921875 154.355469 176.085938 154.40625 C 180.964844 155.957031 189.214844 155.179688 189.214844 155.179688 C 189.214844 155.179688 180.320312 158.160156 176.117188 161.070312 C 175.796875 161.292969 175.503906 161.515625 175.242188 161.738281 C 173.984375 162.804688 173.503906 163.828125 174.507812 164.660156 C 174.695312 164.816406 174.898438 164.925781 175.105469 165.039062 C 175.453125 165.230469 175.824219 165.371094 176.214844 165.449219 C 180.359375 166.257812 186.382812 161.15625 186.382812 161.15625 C 186.382812 161.15625 184.277344 173.273438 188.339844 173.46875 C 192.402344 173.660156 192.960938 161.980469 192.960938 161.980469 C 192.960938 161.980469 204.835938 169.167969 206.578125 164.667969 C 208.320312 160.171875 196.277344 156.539062 196.277344 156.539062 C 196.277344 156.539062 209.148438 153.589844 208.277344 150.496094 Z M 197.015625 114.675781 C 196.34375 114.6875 195.785156 114.820312 195.320312 115.035156 C 195.300781 115.398438 195.289062 115.753906 195.261719 116.125 C 195.261719 116.125 194.472656 117.378906 193.140625 119.644531 C 193.140625 120.863281 193.34375 121.828125 193.34375 121.828125 C 193.34375 121.828125 192.941406 121.46875 192.316406 121.050781 C 191.335938 122.738281 190.144531 124.824219 188.789062 127.28125 C 190.523438 127.480469 192.183594 127.28125 192.183594 127.28125 C 192.183594 127.28125 184.558594 131.707031 188.488281 134.265625 C 192.417969 136.824219 195.089844 131.171875 195.089844 131.171875 C 195.089844 131.171875 197.488281 137.695312 202.332031 135.515625 C 207.175781 133.335938 199.429688 126.496094 199.429688 126.496094 C 199.429688 126.496094 208.125 125.007812 206.71875 122.113281 C 205.308594 119.222656 199.394531 121.03125 199.394531 121.03125 C 199.394531 121.03125 201.453125 114.601562 197.015625 114.675781 Z M 202.078125 100.929688 C 202.042969 95.609375 196.226562 96.742188 196.226562 96.742188 C 196.226562 96.742188 199.816406 92.851562 197.398438 90.089844 C 195.304688 87.699219 192.058594 90.214844 191.234375 90.925781 C 191.386719 91.4375 191.539062 91.945312 191.6875 92.453125 C 191.824219 92.910156 191.960938 93.371094 192.09375 93.824219 C 192.097656 93.835938 192.097656 93.847656 192.101562 93.859375 C 192.394531 94.84375 192.675781 95.824219 192.949219 96.804688 C 192.957031 96.824219 192.960938 96.84375 192.964844 96.863281 C 193.238281 97.839844 193.496094 98.816406 193.738281 99.800781 C 193.742188 99.816406 193.746094 99.832031 193.75 99.851562 C 194.523438 102.992188 195.109375 106.199219 195.320312 109.664062 C 196.773438 107.667969 196.113281 104.964844 196.113281 104.964844 C 196.113281 104.964844 202.109375 105.027344 202.078125 100.929688 Z M 193.816406 190.671875 C 193.816406 190.671875 197.699219 187.398438 194.300781 185.09375 C 190.121094 182.257812 190.058594 189.335938 190.058594 189.335938 C 190.058594 189.335938 187.632812 183.515625 185.453125 186.0625 C 183.269531 188.609375 187.027344 191.035156 187.027344 191.035156 C 187.027344 191.035156 182.179688 192.125 183.269531 195.761719 C 184.363281 199.398438 189.9375 194.550781 189.9375 194.550781 C 189.9375 194.550781 190.179688 200.855469 192.363281 200.128906 C 194.546875 199.402344 193.816406 195.035156 193.816406 195.035156 C 193.816406 195.035156 198.183594 197.097656 198.546875 193.945312 C 198.96875 190.257812 193.816406 190.671875 193.816406 190.671875 Z M 218.898438 169.636719 C 218.898438 169.636719 222.78125 166.363281 219.386719 164.0625 C 215.203125 161.222656 215.140625 168.304688 215.140625 168.304688 C 215.140625 168.304688 212.714844 162.484375 210.535156 165.03125 C 208.351562 167.578125 212.109375 170.003906 212.109375 170.003906 C 212.109375 170.003906 207.261719 171.09375 208.351562 174.730469 C 209.445312 178.367188 215.019531 173.519531 215.019531 173.519531 C 215.019531 173.519531 215.265625 179.824219 217.445312 179.097656 C 219.628906 178.367188 218.898438 174.003906 218.898438 174.003906 C 218.898438 174.003906 223.265625 176.0625 223.628906 172.910156 C 224.054688 169.226562 218.898438 169.636719 218.898438 169.636719 Z M 250.96875 10.21875 C 250.96875 10.21875 251.210938 16.523438 253.390625 15.796875 C 255.574219 15.070312 254.847656 10.703125 254.847656 10.703125 C 254.847656 10.703125 259.210938 12.765625 259.574219 9.613281 C 259.78125 7.835938 258.6875 7.015625 257.503906 6.640625 C 254.09375 6.449219 250.746094 6.511719 247.726562 6.464844 C 247.925781 6.617188 248.058594 6.703125 248.058594 6.703125 C 248.058594 6.703125 243.207031 7.792969 244.300781 11.429688 C 245.390625 15.070312 250.96875 10.21875 250.96875 10.21875 Z M 250.96875 10.21875 " fill-opacity="1" fill-rule="nonzero"/><path fill="#ffffff" d="M 187.929688 375.839844 C 191.058594 440.988281 196.175781 554.429688 201.128906 591.402344 C 193.667969 590.625 183.425781 589.570312 169.402344 588.15625 C 152.992188 586.496094 138.636719 589.128906 127.101562 593.0625 C 130.824219 572.832031 133.164062 537.773438 133.164062 537.773438 C 133.164062 537.773438 172.9375 422.871094 185.3125 383.980469 C 186.117188 381.441406 186.996094 378.714844 187.929688 375.839844 Z M 337.113281 592.203125 C 331.628906 594.203125 326.429688 596.769531 320.816406 598.445312 C 315.046875 600.167969 309.164062 601.371094 303.15625 601.839844 C 297.328125 602.296875 291.460938 602.320312 285.648438 601.671875 C 279.660156 601 273.523438 600.011719 267.839844 597.976562 C 267.710938 597.929688 267.617188 598.144531 267.746094 598.199219 C 273.371094 600.652344 278.953125 602.890625 285.003906 604.039062 C 291.078125 605.195312 297.300781 605.742188 303.480469 605.414062 C 309.675781 605.082031 315.945312 604.144531 321.90625 602.394531 C 327.757812 600.675781 333.722656 598.46875 338.570312 594.710938 C 339.75 593.792969 338.46875 591.710938 337.113281 592.203125 Z M 259.9375 589.085938 C 256.535156 587.160156 254.105469 583.488281 252.1875 580.203125 C 249.320312 575.28125 247.085938 569.941406 245.105469 564.613281 C 239.589844 549.769531 235.957031 534.222656 232.542969 518.789062 C 228.433594 500.199219 225.03125 481.429688 221.832031 462.664062 C 218.640625 443.949219 215.789062 425.175781 213.023438 406.394531 C 210.796875 391.28125 208.433594 376.207031 205.921875 361.140625 C 205.679688 359.671875 205.433594 358.207031 205.1875 356.738281 C 205.140625 356.472656 204.679688 356.53125 204.707031 356.804688 C 206.199219 371.519531 207.542969 386.238281 209.398438 400.914062 C 211.78125 419.757812 214.363281 438.566406 217.296875 457.332031 C 220.300781 476.539062 223.675781 495.667969 227.910156 514.644531 C 231.496094 530.710938 235.613281 546.746094 241.480469 562.148438 C 243.636719 567.8125 246 573.457031 249.148438 578.652344 C 251.355469 582.289062 253.9375 585.960938 257.378906 588.542969 C 258.046875 589.042969 258.75 589.464844 259.476562 589.875 C 259.988281 590.167969 260.453125 589.375 259.9375 589.085938 Z M 294.042969 465.261719 C 297.472656 485.570312 301.089844 505.867188 305.171875 526.054688 C 307.855469 539.328125 311.03125 552.394531 314.742188 565.417969 C 314.871094 565.878906 315.539062 565.683594 315.449219 565.222656 C 311.136719 542.820312 306.28125 520.519531 302.21875 498.066406 C 298.671875 478.46875 296.359375 458.683594 293.226562 439.023438 C 292.332031 433.402344 291.484375 427.769531 290.40625 422.179688 C 289.292969 416.390625 287.90625 410.695312 286.484375 404.972656 C 286.414062 404.675781 285.921875 404.730469 285.945312 405.042969 C 286.707031 415.351562 287.804688 425.519531 289.277344 435.75 C 290.699219 445.613281 292.386719 455.441406 294.042969 465.261719 Z M 221.601562 217.109375 C 228.941406 229.605469 236.570312 241.914062 244.398438 254.109375 C 248.761719 260.90625 253.417969 267.398438 258.53125 273.648438 C 259.1875 274.453125 260.390625 273.429688 259.925781 272.578125 C 253.015625 259.960938 244.84375 248.167969 237.097656 236.066406 C 229.417969 224.066406 221.929688 211.953125 214.320312 199.910156 C 209.941406 192.984375 205.632812 186.019531 201.46875 178.960938 C 201.148438 178.417969 200.324219 178.902344 200.625 179.457031 C 207.496094 192.082031 214.320312 204.714844 221.601562 217.109375 Z M 271.90625 255.585938 C 270.09375 252.566406 267.929688 249.683594 265.929688 246.78125 C 264.03125 244.023438 262.265625 241.179688 260.394531 238.40625 C 256.445312 232.546875 252.777344 226.488281 249.144531 220.429688 C 245.550781 214.4375 242.0625 208.386719 238.476562 202.394531 C 234.828125 196.292969 230.761719 190.476562 226.625 184.699219 C 226.105469 183.980469 224.925781 184.625 225.410156 185.410156 C 229.171875 191.554688 232.417969 197.988281 235.890625 204.296875 C 239.261719 210.417969 242.535156 216.589844 245.917969 222.707031 C 249.289062 228.796875 252.839844 234.773438 256.710938 240.5625 C 260.527344 246.273438 265.179688 252.316406 270.609375 256.589844 C 271.296875 257.128906 272.425781 256.457031 271.90625 255.585938 Z M 176.085938 154.40625 C 175.921875 154.351562 175.765625 154.296875 175.609375 154.238281 C 175.476562 156.738281 175.355469 159.238281 175.246094 161.738281 C 175.503906 161.519531 175.796875 161.296875 176.121094 161.074219 C 176.089844 158.851562 176.082031 156.628906 176.085938 154.40625 Z M 111.921875 448.144531 C 109.925781 453.734375 107.515625 459.207031 105.429688 464.765625 C 102.082031 473.671875 98.886719 482.628906 95.597656 491.554688 C 92.1875 500.824219 88.976562 510.164062 85.433594 519.382812 C 82.933594 525.890625 80.515625 532.578125 77.230469 538.742188 C 74.746094 543.40625 70.921875 547.484375 66.964844 550.929688 C 60.941406 556.175781 53.886719 560.207031 45.925781 561.457031 C 45.414062 561.539062 45.53125 562.390625 46.046875 562.359375 C 59.457031 561.449219 71.25 553.183594 78.785156 542.328125 C 82.3125 537.25 84.550781 531.035156 86.867188 525.351562 C 94.390625 506.929688 101.175781 488.128906 107.175781 469.15625 C 108.492188 464.988281 109.839844 460.832031 111.066406 456.636719 C 111.851562 453.957031 112.515625 451.195312 113.453125 448.566406 C 113.796875 447.601562 112.261719 447.183594 111.921875 448.144531 Z M 147.101562 333.890625 C 150.585938 318.304688 154.242188 302.8125 158.320312 287.367188 C 162.425781 271.832031 166.753906 256.339844 170.414062 240.6875 C 172.335938 232.464844 173.972656 224.179688 175.390625 215.859375 C 176.199219 230.425781 177.550781 245.007812 179.503906 259.4375 C 180.867188 269.523438 182.472656 279.519531 184.417969 289.507812 C 184.59375 290.410156 186.121094 290.21875 186.039062 289.289062 C 184.480469 271.648438 182.449219 254.066406 180.734375 236.445312 C 179.035156 218.953125 178.03125 201.425781 176.976562 183.890625 C 176.609375 177.742188 176.359375 171.597656 176.214844 165.449219 C 175.824219 165.371094 175.457031 165.230469 175.105469 165.039062 C 174.550781 178.976562 174.386719 192.898438 174.929688 206.859375 C 175.035156 209.480469 175.191406 212.105469 175.332031 214.730469 C 167.121094 245.703125 157.378906 276.296875 150.71875 307.660156 C 148.886719 316.292969 147.085938 324.984375 146.019531 333.746094 C 145.945312 334.363281 146.964844 334.492188 147.101562 333.890625 Z M 147.101562 333.890625 " fill-opacity="1" fill-rule="nonzero"/><g clip-path="url(#b95b9eb982)"><path fill="#6a2e3a" d="M 517.8125 626.8125 C 512.113281 635.035156 504.535156 641.976562 495.089844 647.640625 C 484.453125 648.5625 474.222656 646.824219 464.320312 642.90625 C 464.320312 642.90625 431.742188 518.179688 421.714844 475.328125 C 411.300781 430.832031 387.160156 326.6875 387.160156 326.6875 L 396.152344 466.335938 C 418.875 548.703125 418.402344 638.644531 418.402344 638.644531 C 405.171875 643.710938 390.683594 646.46875 375.324219 647.640625 L 363.488281 636.753906 C 363.488281 636.753906 345.027344 563.378906 325.144531 465.863281 C 305.753906 370.746094 306.683594 287.398438 305.261719 280.296875 C 303.84375 273.195312 303.371094 267.988281 303.371094 267.988281 L 310.21875 227.503906 C 309.367188 225.53125 308.597656 223.578125 307.925781 221.746094 C 306.199219 223.140625 303.722656 225.597656 301.238281 229.644531 C 296.742188 236.984375 297.453125 250.472656 294.847656 249.527344 C 292.246094 248.582031 289.484375 238.957031 289.484375 238.957031 L 289.484375 238.953125 C 289.480469 238.941406 273.707031 187.828125 271.179688 169.210938 C 268.65625 150.589844 277.808594 113.667969 287.90625 86.210938 C 298.003906 58.753906 307.15625 40.765625 307.15625 40.765625 C 307.15625 40.765625 306.839844 33.507812 308.105469 32.246094 C 309.054688 31.296875 323.820312 24.6875 342.957031 19.554688 C 346.953125 18.484375 351.148438 17.488281 355.4375 16.613281 C 355.574219 16.5 355.699219 16.371094 355.835938 16.257812 C 356.054688 16.082031 356.3125 16.222656 356.382812 16.417969 C 358.574219 15.980469 360.785156 15.566406 363.015625 15.203125 C 363.015625 15.203125 369.644531 1.238281 371.535156 1.238281 C 373.429688 1.238281 387.949219 9.523438 387.949219 9.523438 C 387.949219 9.523438 407.632812 1.578125 409.40625 3.605469 C 411.617188 6.132812 413.429688 14.96875 413.429688 14.96875 C 413.429688 14.96875 420.691406 16.574219 431.054688 19.980469 C 443.238281 23.988281 459.71875 30.484375 473.785156 39.820312 C 476.582031 41.675781 474.417969 47.394531 474.417969 47.394531 C 474.417969 47.394531 489.566406 127.871094 496.824219 175.523438 C 504.082031 223.175781 506.609375 282.507812 506.609375 282.507812 C 506.609375 282.507812 507.398438 289.53125 507.160156 291.421875 C 506.921875 293.316406 505.265625 297.578125 489.171875 298.996094 C 473.078125 300.417969 468.34375 296.628906 468.34375 296.628906 C 466.449219 294.972656 465.582031 286.609375 465.582031 286.609375 L 453.273438 181.519531 L 441.597656 146.175781 C 441.597656 146.175781 440.964844 160.375 441.28125 166.6875 C 441.597656 173 454.21875 227.597656 454.21875 231.070312 C 454.21875 231.40625 453.710938 231.984375 452.808594 232.746094 C 458.277344 266.777344 481.878906 424.246094 490.355469 463.5 C 499.347656 505.152344 517.8125 626.8125 517.8125 626.8125 Z M 517.8125 626.8125 " fill-opacity="1" fill-rule="nonzero"/></g><path fill="#ffffff" d="M 409.40625 3.605469 C 411.617188 6.132812 413.429688 14.96875 413.429688 14.96875 C 413.429688 14.96875 386.710938 67.617188 365.710938 136.933594 C 367.859375 119.59375 370.199219 102.277344 372.871094 85.007812 C 375.449219 68.339844 378.300781 51.703125 381.808594 35.203125 C 383.40625 27.703125 385.144531 20.230469 387.136719 12.828125 C 387.414062 15.710938 387.871094 18.585938 388.414062 21.425781 C 388.714844 22.984375 389.039062 24.542969 389.4375 26.078125 C 389.644531 26.882812 389.8125 27.964844 390.300781 28.660156 C 391.152344 29.867188 393.519531 29.101562 394.636719 28.816406 C 397.257812 28.152344 399.800781 27.167969 402.296875 26.144531 C 404.507812 25.238281 406.851562 24.347656 408.878906 23.054688 C 409.6875 22.539062 408.921875 21.230469 408.121094 21.765625 C 406.605469 22.785156 404.875 23.53125 403.222656 24.289062 C 400.882812 25.355469 398.496094 26.339844 396.058594 27.148438 C 395.074219 27.476562 394.074219 27.785156 393.054688 27.988281 C 392.609375 28.078125 391.675781 28.339844 391.25 28.066406 C 390.921875 27.855469 390.675781 26.558594 390.542969 26.097656 C 390.152344 24.75 389.832031 23.378906 389.53125 22.007812 C 388.734375 18.390625 388.035156 14.734375 387.648438 11.046875 C 387.632812 10.890625 387.523438 10.8125 387.40625 10.769531 C 387.359375 10.53125 387.023438 10.34375 386.839844 10.574219 C 383.605469 14.734375 381.601562 19.652344 378.847656 24.109375 C 378.511719 24.648438 378.074219 25.589844 377.488281 25.90625 C 377.003906 26.167969 376.300781 25.902344 375.816406 25.75 C 373.730469 25.089844 371.765625 23.917969 369.890625 22.808594 C 368.015625 21.695312 366.179688 20.511719 364.378906 19.277344 C 363.585938 18.738281 362.8125 20.046875 363.625 20.570312 C 367.242188 22.910156 371.101562 25.472656 375.222656 26.8125 C 376.671875 27.28125 377.851562 27.378906 378.839844 26.109375 C 380.296875 24.234375 381.277344 21.941406 382.351562 19.839844 C 383.691406 17.222656 385.015625 14.570312 386.625 12.105469 C 382.621094 26.582031 379.578125 41.316406 376.835938 56.078125 C 373.589844 73.546875 370.835938 91.109375 368.332031 108.699219 C 367.046875 117.703125 365.84375 126.722656 364.683594 135.746094 C 360.59375 92.269531 361.515625 49.089844 362.363281 28.191406 C 362.394531 28.15625 362.429688 28.125 362.460938 28.089844 C 362.613281 27.929688 362.535156 27.695312 362.386719 27.578125 C 362.707031 19.742188 363.011719 15.203125 363.011719 15.203125 C 363.011719 15.203125 369.644531 1.238281 371.535156 1.238281 C 373.429688 1.238281 387.949219 9.523438 387.949219 9.523438 C 387.949219 9.523438 407.632812 1.578125 409.40625 3.605469 Z M 362.449219 189.011719 L 362.46875 189.011719 C 362.464844 189 362.460938 188.988281 362.457031 188.976562 C 362.457031 188.988281 362.453125 189 362.449219 189.011719 Z M 364.980469 138.816406 C 364.996094 138.949219 365.007812 139.082031 365.023438 139.214844 C 365.066406 139.066406 365.113281 138.917969 365.15625 138.769531 C 365.101562 138.792969 365.042969 138.808594 364.980469 138.816406 Z M 295.085938 220.414062 C 290.824219 227.515625 289.484375 238.957031 289.484375 238.957031 L 289.484375 238.953125 L 289.484375 238.957031 C 289.484375 238.957031 292.246094 248.582031 294.847656 249.527344 C 297.453125 250.472656 296.742188 236.984375 301.238281 229.644531 C 303.722656 225.597656 306.199219 223.140625 307.925781 221.746094 C 305.824219 216.023438 304.632812 211.5 304.632812 211.5 C 304.632812 211.5 299.785156 212.582031 295.085938 220.414062 Z M 506.609375 282.507812 C 506.605469 282.507812 499.347656 288.503906 487.988281 289.132812 C 476.628906 289.765625 465.582031 286.609375 465.582031 286.609375 C 465.582031 286.609375 466.449219 294.972656 468.34375 296.628906 C 468.34375 296.628906 473.078125 300.417969 489.171875 298.996094 C 505.265625 297.578125 506.921875 293.316406 507.160156 291.421875 C 507.398438 289.527344 506.609375 282.507812 506.609375 282.507812 Z M 367.414062 159.140625 C 367.140625 159.066406 366.863281 159.027344 366.578125 159.027344 C 364.296875 159.027344 362.453125 161.507812 362.453125 164.574219 C 362.453125 167.636719 364.296875 170.121094 366.578125 170.121094 C 366.761719 170.121094 366.941406 170.078125 367.121094 170.046875 C 369.136719 169.683594 370.699219 167.386719 370.699219 164.574219 C 370.699219 161.894531 369.289062 159.660156 367.414062 159.140625 Z M 367.414062 159.140625 " fill-opacity="1" fill-rule="nonzero"/><path fill="#ffffff" d="M 433.570312 80.152344 C 432.445312 79.824219 430.921875 79.898438 429.90625 79.820312 C 429.773438 79.808594 429.636719 79.804688 429.5 79.792969 C 429.136719 79.101562 428.617188 78.476562 428.136719 77.875 C 427.617188 77.226562 427.082031 76.585938 426.550781 75.945312 C 425.457031 74.621094 424.371094 73.289062 423.273438 71.96875 C 424.378906 70.8125 425.386719 69.988281 426.015625 69.988281 C 426.9375 69.988281 430.332031 75.488281 433.570312 80.152344 Z M 425.894531 76.453125 C 424.859375 75.113281 423.859375 73.757812 422.898438 72.367188 C 422.714844 72.101562 422.519531 71.84375 422.339844 71.570312 C 422.191406 71.351562 422.53125 71.089844 422.703125 71.28125 C 420.652344 68.828125 419.03125 67.074219 418.203125 67.027344 C 416.246094 66.917969 408.320312 77.367188 407.035156 79.074219 C 408.527344 78.972656 410.070312 79.070312 411.554688 79.078125 C 413.5625 79.085938 415.566406 79.125 417.570312 79.1875 C 418.863281 79.222656 420.152344 79.261719 421.445312 79.324219 C 423.773438 79.4375 426.101562 79.566406 428.429688 79.722656 C 428.070312 79.308594 427.738281 78.859375 427.414062 78.433594 C 426.910156 77.769531 426.402344 77.109375 425.894531 76.453125 Z M 425.894531 76.453125 " fill-opacity="1" fill-rule="nonzero"/><path fill="#ffffff" d="M 456.257812 444.019531 C 457.933594 453.796875 459.453125 463.601562 461.386719 473.332031 C 461.484375 473.828125 460.722656 474.039062 460.625 473.542969 C 460.472656 472.777344 460.308594 472.011719 460.152344 471.246094 C 457.992188 460.640625 455.785156 450.042969 453.714844 439.417969 C 450.617188 423.519531 447.640625 407.605469 444.6875 391.679688 C 441.464844 374.292969 438.4375 356.863281 435.359375 339.449219 C 432.652344 324.144531 430.027344 308.824219 427.46875 293.492188 C 425.902344 284.113281 424.480469 274.683594 423.210938 265.257812 C 423.140625 264.742188 423.917969 264.511719 424.003906 265.039062 C 424.121094 265.746094 424.242188 266.457031 424.363281 267.164062 C 426.128906 277.457031 428.171875 287.699219 430.027344 297.972656 C 432.875 313.730469 435.734375 329.484375 438.578125 345.242188 C 441.71875 362.65625 444.9375 380.054688 448.039062 397.476562 C 450.796875 412.992188 453.589844 428.496094 456.257812 444.019531 Z M 482.042969 585.296875 C 477.957031 563.476562 473.664062 541.691406 469.527344 519.878906 C 467.929688 511.460938 466.167969 503.074219 464.714844 494.628906 C 464.636719 494.175781 463.847656 494.277344 463.90625 494.738281 C 466.167969 512.378906 469.332031 529.886719 472.578125 547.367188 C 476.671875 569.453125 480.851562 591.519531 485.460938 613.507812 C 487.3125 622.332031 489.316406 631.121094 491.175781 639.945312 C 491.28125 640.445312 492.03125 640.230469 491.941406 639.734375 C 488.550781 621.605469 485.4375 603.425781 482.042969 585.296875 Z M 348.382812 497.183594 C 346.578125 487.617188 344.5625 478.082031 342.949219 468.480469 C 342.875 468.027344 342.078125 468.128906 342.140625 468.589844 C 344.886719 489.410156 348.734375 510.089844 352.554688 530.730469 C 357.59375 557.964844 362.71875 585.175781 368.289062 612.304688 C 370.339844 622.28125 372.535156 632.230469 374.617188 642.199219 C 374.722656 642.699219 375.472656 642.484375 375.378906 641.988281 C 371.347656 620.621094 367.675781 599.179688 363.691406 577.800781 C 358.683594 550.910156 353.453125 524.0625 348.382812 497.183594 Z M 384.472656 298.269531 C 383.210938 289.503906 381.953125 280.738281 380.691406 271.972656 C 380.640625 271.609375 380.214844 271.359375 379.878906 271.351562 C 377.40625 271.308594 374.980469 271.660156 372.625 272.367188 C 370.449219 255.59375 369.210938 238.707031 366.878906 221.957031 C 366.828125 221.585938 366.191406 221.667969 366.21875 222.042969 C 367.554688 239.199219 368.878906 256.382812 371.082031 273.453125 C 371.148438 273.953125 371.570312 274.457031 372.144531 274.261719 C 374.429688 273.480469 376.753906 273.089844 379.152344 273.0625 C 380.363281 281.523438 381.574219 289.988281 382.785156 298.449219 C 383.40625 302.789062 384.027344 307.128906 384.648438 311.464844 C 385.261719 315.757812 385.636719 320.21875 386.710938 324.421875 C 386.890625 325.128906 388.019531 324.992188 387.992188 324.25 C 387.84375 320.019531 386.980469 315.738281 386.378906 311.550781 C 385.746094 307.121094 385.105469 302.695312 384.472656 298.269531 Z M 442.082031 138.417969 C 446.238281 113.746094 450.695312 88.683594 461.339844 65.851562 C 462.804688 62.714844 464.367188 59.625 466.039062 56.597656 C 467.78125 53.433594 469.871094 50.441406 471.550781 47.25 C 471.71875 46.929688 471.273438 46.53125 471.027344 46.84375 C 467.199219 51.667969 464.339844 57.632812 461.648438 63.148438 C 458.925781 68.726562 456.535156 74.460938 454.429688 80.300781 C 450.101562 92.320312 446.75 104.539062 444.363281 117.09375 C 443.027344 124.125 441.976562 131.179688 441.09375 138.28125 C 441.023438 138.839844 441.988281 138.976562 442.082031 138.417969 Z M 311.921875 174.542969 C 312.253906 169.28125 315.464844 164.5 317.859375 159.957031 C 317.917969 159.847656 317.863281 159.753906 317.78125 159.714844 C 314.507812 131.085938 311.6875 102.476562 309.867188 73.714844 C 309.347656 65.464844 308.757812 57.226562 308.199219 48.980469 C 308.191406 48.832031 307.96875 48.832031 307.96875 48.980469 C 307.574219 78.0625 310.015625 107.132812 313.644531 135.972656 C 314.644531 143.945312 315.785156 151.878906 317.148438 159.800781 C 317.171875 159.933594 317.277344 159.988281 317.390625 160.003906 C 314.742188 163.925781 311.871094 167.984375 310.886719 172.699219 C 310.425781 174.917969 310.582031 176.960938 311.070312 179.148438 C 311.472656 180.964844 311.359375 181.941406 310.25 183.441406 C 309.542969 184.398438 308.976562 185.40625 308.460938 186.480469 C 305.085938 193.515625 304.152344 201.589844 304.664062 209.289062 C 304.6875 209.664062 305.183594 209.644531 305.230469 209.289062 C 306.265625 201.378906 306.445312 193.246094 310.351562 186.058594 C 311.175781 184.539062 312.699219 183.277344 312.890625 181.484375 C 313.132812 179.167969 311.769531 176.9375 311.921875 174.542969 Z M 310.179688 154.890625 C 311.671875 156.378906 313.125 157.910156 314.820312 159.175781 C 315.164062 159.433594 315.605469 158.9375 315.394531 158.597656 C 314.273438 156.800781 312.777344 155.28125 311.269531 153.800781 C 309.710938 152.273438 308.109375 150.785156 306.472656 149.339844 C 303.25 146.484375 299.851562 143.84375 296.347656 141.339844 C 295.761719 140.921875 295.242188 141.867188 295.789062 142.289062 C 299.21875 144.898438 302.511719 147.699219 305.695312 150.601562 C 307.226562 151.996094 308.71875 153.425781 310.179688 154.890625 Z M 474.03125 163.769531 C 474.460938 163.277344 473.824219 162.671875 473.328125 163.0625 C 470.390625 165.386719 467.761719 168.121094 465.054688 170.703125 C 463.734375 171.964844 462.433594 173.238281 461.132812 174.519531 C 460.464844 175.175781 459.785156 175.820312 459.144531 176.507812 C 458.605469 177.085938 457.84375 177.65625 457.683594 178.464844 C 457.664062 178.582031 457.753906 178.660156 457.867188 178.644531 C 458.648438 178.53125 459.203125 177.859375 459.785156 177.367188 C 460.503906 176.761719 461.183594 176.117188 461.875 175.480469 C 463.257812 174.210938 464.636719 172.9375 465.996094 171.648438 C 468.707031 169.074219 471.566406 166.585938 474.03125 163.769531 Z M 450.40625 235.550781 C 450.953125 235.070312 451.425781 234.53125 451.921875 234 C 452.113281 233.792969 452.128906 233.554688 452.050781 233.351562 C 451.90625 232.941406 451.378906 232.667969 450.996094 233.078125 C 449.847656 234.304688 448.246094 235.304688 446.886719 236.292969 C 444.59375 237.964844 442.230469 239.535156 439.855469 241.089844 C 438.1875 242.179688 436.488281 243.226562 434.804688 244.289062 C 430.4375 247.042969 426.03125 249.742188 421.550781 252.304688 C 416 255.484375 410.363281 258.585938 404.511719 261.183594 C 404.300781 261.273438 404.097656 261.378906 403.886719 261.46875 C 401.976562 262.304688 399.992188 263.144531 397.941406 263.558594 C 397.464844 263.65625 396.730469 263.679688 396.480469 263.664062 C 396.414062 263.660156 396.398438 263.652344 396.371094 263.644531 C 396.328125 263.628906 396.3125 263.613281 396.324219 263.621094 C 396.164062 263.480469 396.027344 263.320312 395.890625 263.15625 C 395.785156 263.027344 395.675781 262.859375 395.566406 262.703125 C 394.882812 261.738281 394.179688 260.386719 393.617188 259.304688 C 392.421875 257.011719 391.320312 254.667969 390.238281 252.320312 C 387.160156 245.617188 384.292969 238.8125 381.46875 232 C 375.164062 216.789062 369.105469 201.46875 363.175781 186.109375 C 362.898438 185.386719 362.613281 184.667969 362.335938 183.949219 C 361.074219 180.675781 359.824219 177.394531 358.585938 174.113281 C 357.417969 171.007812 357.578125 167.894531 358.09375 164.648438 C 359.308594 157.042969 362.046875 149.78125 364.363281 142.46875 C 364.546875 141.894531 364.71875 141.3125 364.882812 140.726562 C 364.988281 140.691406 365.085938 140.628906 365.15625 140.542969 C 365.210938 140.476562 365.253906 140.398438 365.257812 140.308594 C 365.398438 140.332031 365.546875 140.300781 365.65625 140.167969 C 378.46875 124.242188 388.546875 106.007812 398.28125 88.101562 C 402.757812 79.863281 407.15625 71.578125 411.523438 63.277344 C 413.648438 59.238281 416.050781 55.214844 417.878906 51.027344 C 419.078125 48.273438 417.425781 44.636719 416.382812 42.089844 C 415.753906 40.558594 415.058594 39.011719 414.328125 37.472656 C 414.386719 37.453125 414.445312 37.441406 414.503906 37.40625 C 416.046875 36.417969 417.40625 35.105469 418.695312 33.808594 C 419.96875 32.53125 421.371094 31.136719 422.234375 29.53125 C 423.039062 28.042969 423.128906 26.140625 423.195312 24.484375 C 423.289062 22.1875 423.140625 19.84375 422.664062 17.589844 C 422.574219 17.160156 421.957031 17.351562 422.019531 17.769531 C 422.34375 19.941406 422.367188 22.15625 422.21875 24.347656 C 422.117188 25.890625 422.015625 27.734375 421.179688 29.089844 C 420.296875 30.519531 418.988281 31.742188 417.777344 32.890625 C 416.539062 34.0625 415.226562 35.246094 413.75 36.113281 C 413.722656 36.128906 413.710938 36.152344 413.6875 36.171875 C 412.113281 32.992188 410.339844 29.886719 408.273438 27.136719 C 408.023438 26.796875 407.480469 27.085938 407.695312 27.472656 C 410.097656 31.824219 412.726562 36.003906 414.773438 40.546875 C 415.957031 43.171875 418.265625 47.550781 417.144531 50.511719 C 416.679688 51.746094 415.902344 52.941406 415.296875 54.109375 C 413.976562 56.65625 412.648438 59.195312 411.3125 61.730469 C 402.179688 79.066406 392.46875 96.105469 382.351562 112.882812 C 376.917969 121.882812 371.34375 130.914062 365.03125 139.328125 C 365.027344 139.335938 365.023438 139.339844 365.023438 139.34375 C 364.988281 139.316406 364.957031 139.285156 364.914062 139.269531 C 358.1875 121.972656 355.015625 103.097656 352.011719 84.875 C 350.644531 76.574219 349.476562 68.246094 348.53125 59.886719 C 348.082031 55.953125 347.492188 51.96875 347.308594 48.015625 C 347.160156 44.722656 350.105469 41.4375 352.046875 39.058594 C 355.226562 35.164062 358.898438 31.804688 362.363281 28.191406 C 362.398438 28.160156 362.429688 28.125 362.464844 28.089844 C 362.617188 27.929688 362.539062 27.695312 362.386719 27.578125 C 362.292969 27.507812 362.179688 27.46875 362.058594 27.566406 C 359.195312 29.773438 356.613281 32.488281 354.191406 35.230469 C 354.210938 35.042969 354.160156 34.839844 354 34.664062 C 352.886719 33.421875 351.910156 32.042969 351.03125 30.628906 C 350.21875 29.316406 349.125 27.671875 349.027344 26.082031 C 348.9375 24.617188 350.542969 22.945312 351.390625 21.910156 C 352.898438 20.066406 354.554688 18.339844 356.3125 16.730469 C 356.421875 16.628906 356.417969 16.515625 356.382812 16.414062 C 356.3125 16.21875 356.054688 16.078125 355.835938 16.253906 C 355.699219 16.367188 355.574219 16.496094 355.4375 16.609375 C 353.535156 18.191406 351.730469 19.925781 350.15625 21.835938 C 349.210938 22.984375 347.835938 24.488281 347.878906 26.082031 C 347.925781 27.828125 348.941406 29.601562 349.785156 31.074219 C 350.707031 32.699219 351.746094 34.28125 352.941406 35.71875 C 353.128906 35.945312 353.359375 35.988281 353.578125 35.933594 C 353.257812 36.300781 352.929688 36.667969 352.613281 37.03125 C 350.300781 39.710938 346.925781 43.246094 346.4375 46.929688 C 346.3125 47.859375 346.492188 48.847656 346.578125 49.773438 C 346.789062 52.046875 347.019531 54.320312 347.261719 56.59375 C 349.167969 74.542969 351.375 92.558594 355.195312 110.207031 C 357.421875 120.480469 360.042969 130.714844 364.257812 140.375 C 363.605469 142.703125 362.65625 144.976562 361.847656 147.242188 C 360.433594 151.195312 359.097656 155.191406 358.027344 159.253906 C 357.085938 162.820312 356.195312 166.605469 356.359375 170.320312 C 356.496094 173.457031 357.972656 176.417969 359.050781 179.320312 C 360.207031 182.425781 361.378906 185.523438 362.550781 188.625 C 367.539062 201.816406 372.6875 214.953125 378.023438 228.011719 C 380.867188 234.96875 383.769531 241.902344 386.8125 248.769531 C 386.964844 249.117188 387.109375 249.464844 387.261719 249.808594 C 389.261719 254.296875 391.195312 258.984375 393.839844 263.144531 C 394.40625 264.039062 395.03125 265.074219 396.132812 265.324219 C 397.613281 265.652344 399.371094 265 400.746094 264.527344 C 406.449219 262.574219 411.859375 259.613281 417.132812 256.734375 C 423.761719 253.117188 430.261719 249.257812 436.632812 245.214844 C 441.320312 242.238281 446.222656 239.234375 450.40625 235.550781 Z M 341.253906 264.273438 C 342.910156 262.761719 343.761719 260.136719 344.570312 258.125 C 346.09375 254.316406 347.351562 250.398438 348.558594 246.480469 C 351.660156 236.40625 354.332031 226.207031 356.941406 215.996094 C 358.957031 208.101562 360.792969 200.160156 362.859375 192.277344 C 362.933594 191.992188 363.011719 191.710938 363.089844 191.425781 C 363.144531 191.210938 363.199219 191 363.261719 190.785156 C 363.34375 190.488281 363.050781 190.328125 362.824219 190.402344 C 362.734375 190.433594 362.652344 190.492188 362.613281 190.609375 C 360.347656 197.261719 358.648438 204.148438 356.824219 210.933594 C 356.601562 211.765625 356.371094 212.59375 356.148438 213.429688 C 353.707031 222.507812 351.242188 231.585938 348.582031 240.601562 C 347.964844 242.695312 347.335938 244.785156 346.683594 246.867188 C 346.660156 246.941406 346.632812 247.019531 346.609375 247.097656 C 345.953125 249.195312 345.269531 251.28125 344.542969 253.355469 C 343.566406 256.15625 342.582031 259.054688 341.097656 261.636719 C 340.902344 261.980469 340.609375 262.453125 340.425781 262.675781 C 340.207031 262.945312 339.945312 263.160156 339.914062 263.171875 C 339.792969 263.226562 339.496094 263.203125 339.132812 263.058594 C 338.617188 262.847656 338.140625 262.515625 337.699219 262.183594 C 334.542969 259.808594 332.015625 256.414062 329.625 253.316406 C 323.6875 245.640625 318.449219 237.457031 313.175781 229.320312 C 312.773438 228.703125 312.347656 228.117188 311.902344 227.527344 C 311.402344 226.863281 310.398438 227.417969 310.773438 228.1875 C 312.554688 231.851562 314.972656 235.277344 317.210938 238.667969 C 319.429688 242.027344 321.71875 245.339844 324.0625 248.609375 C 324.871094 249.734375 325.660156 250.871094 326.488281 251.980469 C 328.515625 254.699219 330.589844 257.46875 332.910156 259.980469 C 332.664062 280.65625 333.523438 301.351562 334.355469 322.007812 C 335.457031 349.355469 336.644531 376.699219 338.285156 404.019531 C 338.890625 414.113281 339.644531 424.195312 340.28125 434.285156 C 340.3125 434.789062 341.09375 434.796875 341.070312 434.285156 C 340.144531 412.890625 339.570312 391.476562 338.683594 370.078125 C 337.554688 342.902344 336.207031 315.738281 335.019531 288.570312 C 334.613281 279.328125 334.027344 270.09375 333.777344 260.84375 C 334.28125 261.359375 334.773438 261.886719 335.304688 262.371094 C 336.714844 263.664062 339.34375 266.011719 341.253906 264.273438 Z M 363.625 20.570312 C 367.242188 22.914062 371.101562 25.476562 375.226562 26.8125 C 376.671875 27.28125 377.851562 27.378906 378.839844 26.109375 C 380.296875 24.238281 381.28125 21.941406 382.351562 19.839844 C 383.691406 17.222656 385.015625 14.570312 386.628906 12.105469 C 382.621094 26.582031 379.578125 41.320312 376.835938 56.082031 C 373.59375 73.550781 370.839844 91.109375 368.332031 108.699219 C 367.050781 117.707031 365.84375 126.726562 364.683594 135.75 C 364.78125 136.773438 364.878906 137.796875 364.980469 138.816406 C 365.039062 138.808594 365.097656 138.792969 365.15625 138.769531 C 365.339844 138.15625 365.523438 137.542969 365.710938 136.933594 C 367.855469 119.59375 370.199219 102.277344 372.867188 85.007812 C 375.445312 68.339844 378.300781 51.703125 381.808594 35.199219 C 383.402344 27.703125 385.144531 20.230469 387.136719 12.824219 C 387.414062 15.710938 387.871094 18.585938 388.414062 21.425781 C 388.714844 22.984375 389.039062 24.542969 389.4375 26.078125 C 389.644531 26.882812 389.8125 27.964844 390.300781 28.65625 C 391.152344 29.863281 393.519531 29.101562 394.636719 28.816406 C 397.253906 28.152344 399.796875 27.167969 402.292969 26.144531 C 404.507812 25.238281 406.851562 24.347656 408.875 23.054688 C 409.6875 22.539062 408.921875 21.226562 408.121094 21.765625 C 406.605469 22.78125 404.875 23.53125 403.21875 24.285156 C 400.882812 25.355469 398.496094 26.339844 396.054688 27.148438 C 395.070312 27.476562 394.074219 27.78125 393.054688 27.988281 C 392.605469 28.074219 391.675781 28.335938 391.25 28.0625 C 390.921875 27.855469 390.671875 26.554688 390.539062 26.097656 C 390.152344 24.746094 389.832031 23.378906 389.53125 22.007812 C 388.734375 18.390625 388.035156 14.734375 387.648438 11.046875 C 387.632812 10.890625 387.523438 10.808594 387.40625 10.769531 C 387.359375 10.53125 387.023438 10.339844 386.839844 10.574219 C 383.601562 14.734375 381.601562 19.652344 378.84375 24.109375 C 378.511719 24.648438 378.074219 25.585938 377.488281 25.90625 C 377 26.167969 376.300781 25.902344 375.816406 25.75 C 373.726562 25.089844 371.761719 23.917969 369.890625 22.808594 C 368.011719 21.695312 366.175781 20.507812 364.375 19.277344 C 363.585938 18.738281 362.816406 20.046875 363.625 20.570312 Z M 422.710938 71.285156 C 422.898438 71.511719 423.085938 71.742188 423.273438 71.96875 C 424.371094 73.289062 425.457031 74.621094 426.550781 75.945312 C 427.082031 76.585938 427.621094 77.222656 428.140625 77.875 C 428.617188 78.476562 429.140625 79.101562 429.503906 79.792969 C 429.636719 79.804688 429.773438 79.808594 429.90625 79.820312 C 430.921875 79.894531 432.445312 79.824219 433.570312 80.148438 C 433.792969 80.214844 434.023438 80.265625 434.203125 80.367188 C 434.914062 80.757812 434.742188 81.683594 434.746094 82.390625 C 434.753906 83.570312 434.925781 84.976562 434.679688 86.136719 C 434.40625 87.417969 432.011719 87.019531 431.035156 87.035156 C 424.195312 87.140625 417.335938 86.929688 410.511719 86.539062 C 408.972656 86.453125 407.4375 86.351562 405.902344 86.195312 C 404.800781 86.085938 404.5 85.886719 404.53125 84.785156 C 404.566406 83.464844 404.710938 79.222656 406.640625 79.097656 C 406.773438 79.085938 406.910156 79.082031 407.039062 79.074219 C 408.53125 78.96875 410.074219 79.070312 411.5625 79.078125 C 413.566406 79.085938 415.570312 79.125 417.574219 79.183594 C 418.867188 79.222656 420.15625 79.261719 421.449219 79.324219 C 423.777344 79.4375 426.105469 79.566406 428.433594 79.722656 C 428.074219 79.308594 427.746094 78.859375 427.417969 78.433594 C 426.914062 77.769531 426.40625 77.109375 425.898438 76.453125 C 424.863281 75.113281 423.863281 73.757812 422.902344 72.367188 C 422.71875 72.101562 422.523438 71.84375 422.34375 71.570312 C 422.195312 71.351562 422.535156 71.089844 422.707031 71.28125 C 422.707031 71.285156 422.707031 71.285156 422.710938 71.285156 Z M 429.351562 81.109375 C 424.660156 80.730469 419.953125 80.507812 415.253906 80.191406 C 412.4375 80 409.523438 79.523438 406.691406 79.589844 C 406.046875 79.890625 406.019531 82.316406 405.960938 82.871094 C 405.902344 83.410156 405.84375 83.949219 405.8125 84.488281 C 405.804688 84.613281 405.816406 84.773438 405.800781 84.914062 C 411.800781 85.566406 417.878906 85.652344 423.90625 85.726562 C 426.28125 85.753906 428.65625 85.769531 431.03125 85.726562 C 431.769531 85.710938 432.515625 85.707031 433.253906 85.644531 C 433.277344 85.644531 433.316406 85.640625 433.355469 85.636719 C 433.363281 85.574219 433.367188 85.519531 433.371094 85.492188 C 433.394531 84.375 433.398438 83.257812 433.375 82.140625 C 433.371094 81.96875 433.339844 81.738281 433.351562 81.542969 C 432.0625 81.570312 430.640625 81.214844 429.351562 81.109375 Z M 429.351562 81.109375 " fill-opacity="1" fill-rule="nonzero"/></g></g></svg>