<svg xmlns="http://www.w3.org/2000/svg" xmlns:xlink="http://www.w3.org/1999/xlink" width="1080" zoomAndPan="magnify" viewBox="0 0 810 817.92" height="1080" preserveAspectRatio="xMidYMid meet" version="1.0"><defs><clipPath id="9c7930689e"><path d="M 206 86 L 604 86 L 604 728.929688 L 206 728.929688 Z M 206 86 " clip-rule="nonzero"/></clipPath></defs><g clip-path="url(#9c7930689e)"><path fill="#6a2e3a" d="M 405.675781 728.929688 C 390.96875 656.734375 365.039062 596.652344 333.632812 540.96875 C 310.335938 499.667969 283.351562 461.542969 258.378906 421.488281 C 250.042969 408.121094 242.851562 393.992188 234.839844 380.117188 C 218.824219 352.371094 205.839844 320.199219 206.664062 278.472656 C 207.472656 237.699219 219.261719 204.996094 236.265625 178.253906 C 264.234375 134.269531 311.082031 98.207031 373.9375 88.730469 C 425.328125 80.984375 473.515625 94.074219 507.679688 114.054688 C 535.601562 130.382812 557.226562 152.191406 573.660156 177.894531 C 590.816406 204.722656 602.632812 236.417969 603.621094 277.757812 C 604.128906 298.9375 600.664062 318.554688 595.777344 334.824219 C 590.832031 351.292969 582.878906 365.058594 575.804688 379.761719 C 561.992188 408.464844 544.675781 434.761719 527.296875 461.078125 C 475.535156 539.460938 426.953125 619.394531 405.679688 728.929688 Z M 405.675781 728.929688 " fill-opacity="1" fill-rule="evenodd"/></g><path fill="#ffffff" d="M 474.699219 278.019531 C 474.699219 279.160156 474.671875 280.296875 474.617188 281.433594 C 474.558594 282.570312 474.476562 283.707031 474.363281 284.839844 C 474.253906 285.972656 474.113281 287.101562 473.949219 288.226562 C 473.78125 289.351562 473.585938 290.472656 473.363281 291.589844 C 473.140625 292.707031 472.890625 293.816406 472.617188 294.921875 C 472.339844 296.023438 472.035156 297.121094 471.707031 298.210938 C 471.375 299.300781 471.019531 300.378906 470.632812 301.453125 C 470.25 302.523438 469.839844 303.585938 469.40625 304.636719 C 468.96875 305.6875 468.507812 306.730469 468.023438 307.757812 C 467.535156 308.785156 467.023438 309.804688 466.488281 310.808594 C 465.949219 311.8125 465.390625 312.800781 464.804688 313.777344 C 464.21875 314.753906 463.609375 315.714844 462.980469 316.660156 C 462.347656 317.609375 461.691406 318.539062 461.011719 319.453125 C 460.335938 320.367188 459.636719 321.265625 458.914062 322.144531 C 458.191406 323.023438 457.449219 323.886719 456.683594 324.730469 C 455.917969 325.570312 455.132812 326.394531 454.328125 327.199219 C 453.523438 328.007812 452.699219 328.789062 451.855469 329.554688 C 451.011719 330.320312 450.152344 331.0625 449.273438 331.785156 C 448.390625 332.507812 447.496094 333.207031 446.582031 333.886719 C 445.667969 334.5625 444.734375 335.21875 443.789062 335.851562 C 442.84375 336.484375 441.882812 337.089844 440.90625 337.675781 C 439.929688 338.261719 438.9375 338.824219 437.933594 339.359375 C 436.929688 339.894531 435.914062 340.40625 434.886719 340.894531 C 433.855469 341.382812 432.816406 341.84375 431.765625 342.277344 C 430.714844 342.714844 429.652344 343.121094 428.582031 343.507812 C 427.507812 343.890625 426.429688 344.246094 425.339844 344.578125 C 424.25 344.90625 423.152344 345.210938 422.046875 345.488281 C 420.945312 345.765625 419.835938 346.011719 418.71875 346.234375 C 417.601562 346.457031 416.480469 346.652344 415.355469 346.820312 C 414.226562 346.988281 413.097656 347.125 411.964844 347.238281 C 410.832031 347.347656 409.699219 347.433594 408.5625 347.488281 C 407.425781 347.542969 406.289062 347.570312 405.148438 347.570312 C 404.011719 347.570312 402.875 347.542969 401.738281 347.488281 C 400.597656 347.433594 399.464844 347.347656 398.332031 347.238281 C 397.199219 347.125 396.070312 346.988281 394.945312 346.820312 C 393.816406 346.652344 392.695312 346.457031 391.582031 346.234375 C 390.464844 346.011719 389.355469 345.765625 388.25 345.488281 C 387.144531 345.210938 386.046875 344.90625 384.960938 344.578125 C 383.871094 344.246094 382.789062 343.890625 381.71875 343.507812 C 380.644531 343.121094 379.585938 342.714844 378.53125 342.277344 C 377.480469 341.84375 376.441406 341.382812 375.414062 340.894531 C 374.382812 340.40625 373.367188 339.894531 372.363281 339.359375 C 371.359375 338.824219 370.367188 338.261719 369.394531 337.675781 C 368.417969 337.09375 367.453125 336.484375 366.507812 335.851562 C 365.5625 335.21875 364.632812 334.5625 363.71875 333.886719 C 362.804688 333.207031 361.90625 332.507812 361.027344 331.785156 C 360.148438 331.0625 359.285156 330.320312 358.441406 329.554688 C 357.597656 328.789062 356.773438 328.007812 355.96875 327.199219 C 355.164062 326.394531 354.378906 325.570312 353.613281 324.730469 C 352.851562 323.886719 352.109375 323.023438 351.386719 322.144531 C 350.664062 321.265625 349.964844 320.367188 349.285156 319.453125 C 348.605469 318.539062 347.953125 317.609375 347.320312 316.660156 C 346.6875 315.714844 346.078125 314.753906 345.492188 313.777344 C 344.90625 312.800781 344.347656 311.8125 343.8125 310.808594 C 343.273438 309.804688 342.761719 308.785156 342.277344 307.757812 C 341.789062 306.730469 341.328125 305.6875 340.890625 304.636719 C 340.457031 303.585938 340.046875 302.523438 339.664062 301.453125 C 339.28125 300.378906 338.921875 299.300781 338.59375 298.210938 C 338.261719 297.121094 337.960938 296.023438 337.683594 294.921875 C 337.40625 293.816406 337.15625 292.707031 336.933594 291.589844 C 336.710938 290.472656 336.519531 289.351562 336.351562 288.226562 C 336.183594 287.101562 336.042969 285.972656 335.933594 284.839844 C 335.820312 283.707031 335.738281 282.570312 335.683594 281.433594 C 335.625 280.296875 335.597656 279.160156 335.597656 278.019531 C 335.597656 276.882812 335.625 275.746094 335.683594 274.609375 C 335.738281 273.472656 335.820312 272.335938 335.933594 271.203125 C 336.042969 270.070312 336.183594 268.941406 336.351562 267.816406 C 336.519531 266.691406 336.710938 265.570312 336.933594 264.453125 C 337.15625 263.335938 337.40625 262.226562 337.683594 261.121094 C 337.960938 260.015625 338.261719 258.921875 338.59375 257.832031 C 338.921875 256.742188 339.28125 255.660156 339.664062 254.589844 C 340.046875 253.519531 340.457031 252.457031 340.890625 251.40625 C 341.328125 250.351562 341.789062 249.3125 342.277344 248.285156 C 342.761719 247.253906 343.273438 246.238281 343.8125 245.234375 C 344.347656 244.230469 344.90625 243.242188 345.492188 242.265625 C 346.078125 241.289062 346.6875 240.328125 347.320312 239.378906 C 347.953125 238.433594 348.605469 237.503906 349.285156 236.589844 C 349.964844 235.675781 350.664062 234.777344 351.386719 233.898438 C 352.109375 233.019531 352.851562 232.15625 353.613281 231.3125 C 354.378906 230.46875 355.164062 229.644531 355.96875 228.839844 C 356.773438 228.035156 357.597656 227.25 358.441406 226.488281 C 359.285156 225.722656 360.148438 224.980469 361.027344 224.257812 C 361.90625 223.535156 362.804688 222.835938 363.71875 222.15625 C 364.632812 221.480469 365.5625 220.824219 366.507812 220.191406 C 367.453125 219.558594 368.417969 218.949219 369.394531 218.363281 C 370.367188 217.78125 371.359375 217.21875 372.363281 216.683594 C 373.367188 216.144531 374.382812 215.632812 375.414062 215.148438 C 376.441406 214.660156 377.480469 214.199219 378.53125 213.765625 C 379.585938 213.328125 380.644531 212.917969 381.71875 212.535156 C 382.789062 212.152344 383.871094 211.796875 384.960938 211.464844 C 386.046875 211.132812 387.144531 210.832031 388.25 210.554688 C 389.355469 210.277344 390.464844 210.027344 391.582031 209.804688 C 392.695312 209.585938 393.816406 209.390625 394.945312 209.222656 C 396.070312 209.054688 397.199219 208.917969 398.332031 208.804688 C 399.464844 208.695312 400.597656 208.609375 401.738281 208.554688 C 402.875 208.496094 404.011719 208.46875 405.148438 208.46875 C 406.289062 208.46875 407.425781 208.496094 408.5625 208.554688 C 409.699219 208.609375 410.832031 208.695312 411.964844 208.804688 C 413.097656 208.917969 414.226562 209.054688 415.355469 209.222656 C 416.480469 209.390625 417.601562 209.585938 418.71875 209.804688 C 419.835938 210.027344 420.945312 210.277344 422.046875 210.554688 C 423.152344 210.832031 424.25 211.132812 425.339844 211.464844 C 426.429688 211.796875 427.507812 212.152344 428.582031 212.535156 C 429.652344 212.917969 430.714844 213.328125 431.765625 213.765625 C 432.816406 214.199219 433.855469 214.660156 434.886719 215.148438 C 435.914062 215.632812 436.929688 216.144531 437.933594 216.683594 C 438.9375 217.21875 439.929688 217.78125 440.90625 218.363281 C 441.882812 218.949219 442.84375 219.558594 443.789062 220.191406 C 444.734375 220.824219 445.667969 221.480469 446.582031 222.15625 C 447.496094 222.835938 448.390625 223.535156 449.273438 224.257812 C 450.152344 224.980469 451.011719 225.722656 451.855469 226.488281 C 452.699219 227.25 453.523438 228.035156 454.328125 228.839844 C 455.132812 229.644531 455.917969 230.46875 456.683594 231.3125 C 457.449219 232.15625 458.191406 233.019531 458.914062 233.898438 C 459.636719 234.777344 460.335938 235.675781 461.011719 236.589844 C 461.691406 237.503906 462.347656 238.433594 462.980469 239.378906 C 463.609375 240.328125 464.21875 241.289062 464.804688 242.265625 C 465.390625 243.242188 465.949219 244.230469 466.488281 245.234375 C 467.023438 246.238281 467.535156 247.253906 468.023438 248.285156 C 468.507812 249.3125 468.96875 250.351562 469.40625 251.40625 C 469.839844 252.457031 470.25 253.519531 470.632812 254.589844 C 471.019531 255.660156 471.375 256.742188 471.707031 257.832031 C 472.035156 258.921875 472.339844 260.015625 472.617188 261.121094 C 472.890625 262.226562 473.140625 263.335938 473.363281 264.453125 C 473.585938 265.570312 473.78125 266.691406 473.949219 267.816406 C 474.113281 268.941406 474.253906 270.070312 474.367188 271.203125 C 474.476562 272.335938 474.558594 273.472656 474.617188 274.609375 C 474.671875 275.746094 474.699219 276.882812 474.699219 278.019531 Z M 474.699219 278.019531 " fill-opacity="1" fill-rule="nonzero"/></svg>