<svg xmlns="http://www.w3.org/2000/svg" xmlns:xlink="http://www.w3.org/1999/xlink" width="1080" zoomAndPan="magnify" viewBox="0 0 810 817.92" height="1080" preserveAspectRatio="xMidYMid meet" version="1.0"><defs><clipPath id="b57edbf7fb"><path d="M 101 597 L 181 597 L 181 667.839844 L 101 667.839844 Z M 101 597 " clip-rule="nonzero"/></clipPath><clipPath id="23cbac9262"><path d="M 629 597 L 709 597 L 709 667.839844 L 629 667.839844 Z M 629 597 " clip-rule="nonzero"/></clipPath><clipPath id="12aaa4f3b2"><path d="M 84 142.140625 L 726 142.140625 L 726 596 L 84 596 Z M 84 142.140625 " clip-rule="nonzero"/></clipPath></defs><g clip-path="url(#b57edbf7fb)"><path fill="#6a2e3a" d="M 101.609375 597.707031 L 101.609375 654.558594 C 101.609375 661.933594 107.589844 667.917969 114.96875 667.917969 L 167.597656 667.917969 C 174.976562 667.917969 180.957031 661.933594 180.957031 654.558594 L 180.957031 610.34375 L 140.085938 610.34375 C 126.101562 610.34375 112.730469 605.867188 101.609375 597.707031 Z M 101.609375 597.707031 " fill-opacity="1" fill-rule="nonzero"/></g><g clip-path="url(#23cbac9262)"><path fill="#6a2e3a" d="M 629.523438 610.34375 L 629.523438 654.558594 C 629.523438 661.933594 635.503906 667.917969 642.882812 667.917969 L 695.511719 667.917969 C 702.890625 667.917969 708.871094 661.933594 708.871094 654.558594 L 708.871094 597.707031 C 697.75 605.867188 684.375 610.34375 670.390625 610.34375 Z M 629.523438 610.34375 " fill-opacity="1" fill-rule="nonzero"/></g><g clip-path="url(#12aaa4f3b2)"><path fill="#6a2e3a" d="M 89.453125 426.820312 L 89.453125 545.152344 C 89.453125 559.054688 95.171875 572.34375 105.265625 581.90625 C 114.667969 590.816406 127.128906 595.78125 140.085938 595.78125 L 670.394531 595.78125 C 683.347656 595.78125 695.808594 590.816406 705.214844 581.90625 C 715.308594 572.34375 721.023438 559.054688 721.023438 545.152344 L 721.023438 426.820312 C 721.023438 405.160156 715.566406 383.851562 705.152344 364.863281 L 678.246094 315.796875 L 716.109375 315.796875 C 729.039062 315.796875 729.039062 268.777344 716.109375 268.777344 L 652.460938 268.777344 L 599.496094 172.191406 C 590.390625 155.589844 573.089844 145.136719 554.160156 144.800781 L 405.238281 142.140625 L 256.320312 144.800781 C 237.386719 145.136719 220.089844 155.589844 210.984375 172.191406 L 158.019531 268.777344 L 94.371094 268.777344 C 81.441406 268.777344 81.441406 315.796875 94.371094 315.796875 L 132.234375 315.796875 L 105.328125 364.863281 C 94.914062 383.851562 89.453125 405.160156 89.453125 426.820312 Z M 497.019531 553.640625 C 497.019531 558.953125 492.714844 563.257812 487.402344 563.257812 L 323.078125 563.257812 C 317.765625 563.257812 313.460938 558.953125 313.460938 553.640625 L 313.460938 529.257812 C 313.460938 523.945312 317.765625 519.640625 323.078125 519.640625 L 487.402344 519.640625 C 492.714844 519.640625 497.019531 523.945312 497.019531 529.257812 Z M 661.40625 427.125 C 657.894531 428.78125 654.117188 429.6875 650.464844 429.910156 L 573.929688 434.339844 C 565.769531 434.8125 558.769531 428.578125 558.296875 420.417969 C 557.9375 414.210938 561.464844 408.675781 566.761719 406.171875 L 636.097656 373.46875 C 650.914062 366.480469 668.589844 372.824219 675.578125 387.640625 C 682.566406 402.460938 676.222656 420.136719 661.40625 427.125 Z M 232.261719 183.863281 C 237.183594 174.894531 246.527344 169.246094 256.757812 169.0625 L 405.238281 166.414062 L 553.730469 169.0625 C 563.953125 169.246094 573.296875 174.890625 578.214844 183.859375 L 654.453125 322.875 C 657.847656 329.066406 653.367188 336.632812 646.304688 336.632812 L 164.175781 336.632812 C 157.113281 336.632812 152.632812 329.066406 156.03125 322.875 Z M 132.117188 398.582031 C 133.0625 382.226562 147.089844 369.738281 163.441406 370.683594 C 167.320312 370.910156 171.066406 371.917969 174.382812 373.46875 L 243.71875 406.171875 C 251.113281 409.660156 254.28125 418.480469 250.792969 425.878906 C 248.140625 431.5 242.394531 434.671875 236.546875 434.339844 L 160.015625 429.910156 C 143.660156 428.960938 131.167969 414.9375 132.117188 398.582031 Z M 132.117188 398.582031 " fill-opacity="1" fill-rule="nonzero"/></g><path fill="#6a2e3a" d="M 367.035156 177.40625 L 443.445312 177.40625 L 443.445312 196.640625 L 367.035156 196.640625 Z M 367.035156 177.40625 " fill-opacity="1" fill-rule="nonzero"/></svg>