<svg xmlns="http://www.w3.org/2000/svg" xmlns:xlink="http://www.w3.org/1999/xlink" width="40" zoomAndPan="magnify" viewBox="0 0 30 30.000001" height="40" preserveAspectRatio="xMidYMid meet" version="1.0"><defs><clipPath id="a8e8225c96"><path d="M 0.484375 0 L 29.515625 0 L 29.515625 29.03125 L 0.484375 29.03125 Z M 0.484375 0 " clip-rule="nonzero"/></clipPath><clipPath id="219d3cfb39"><path d="M 15 0 C 6.984375 0 0.484375 6.5 0.484375 14.515625 C 0.484375 22.53125 6.984375 29.03125 15 29.03125 C 23.015625 29.03125 29.515625 22.53125 29.515625 14.515625 C 29.515625 6.5 23.015625 0 15 0 Z M 15 0 " clip-rule="nonzero"/></clipPath><clipPath id="06d495a184"><path d="M 0.484375 0 L 29.515625 0 L 29.515625 29.03125 L 0.484375 29.03125 Z M 0.484375 0 " clip-rule="nonzero"/></clipPath><clipPath id="2a39619244"><path d="M 15 0 C 6.984375 0 0.484375 6.5 0.484375 14.515625 C 0.484375 22.53125 6.984375 29.03125 15 29.03125 C 23.015625 29.03125 29.515625 22.53125 29.515625 14.515625 C 29.515625 6.5 23.015625 0 15 0 Z M 15 0 " clip-rule="nonzero"/></clipPath><clipPath id="1a1f5611e9"><rect x="0" width="30" y="0" height="30"/></clipPath><clipPath id="f68b586334"><path d="M 16 7.914062 L 20.0625 7.914062 L 20.0625 20.980469 L 16 20.980469 Z M 16 7.914062 " clip-rule="nonzero"/></clipPath><clipPath id="cd6ca56065"><path d="M 9.898438 7.914062 L 14 7.914062 L 14 20.980469 L 9.898438 20.980469 Z M 9.898438 7.914062 " clip-rule="nonzero"/></clipPath></defs><g clip-path="url(#a8e8225c96)"><g clip-path="url(#219d3cfb39)"><g transform="matrix(1, 0, 0, 1, 0, 0.000000000000005692)"><g clip-path="url(#1a1f5611e9)"><g clip-path="url(#06d495a184)"><g clip-path="url(#2a39619244)"><path fill="#6a2e3a" d="M 0.484375 0 L 29.515625 0 L 29.515625 29.03125 L 0.484375 29.03125 Z M 0.484375 0 " fill-opacity="1" fill-rule="nonzero"/></g></g></g></g></g></g><g clip-path="url(#f68b586334)"><path fill="#ffffff" d="M 17.246094 7.914062 L 18.980469 7.914062 C 19.121094 7.914062 19.253906 7.941406 19.378906 7.992188 C 19.507812 8.046875 19.621094 8.121094 19.71875 8.21875 C 19.816406 8.316406 19.890625 8.429688 19.945312 8.558594 C 19.996094 8.683594 20.023438 8.816406 20.023438 8.957031 L 20.023438 20.074219 C 20.023438 20.210938 19.996094 20.34375 19.945312 20.472656 C 19.890625 20.597656 19.816406 20.710938 19.71875 20.808594 C 19.621094 20.90625 19.507812 20.984375 19.378906 21.035156 C 19.253906 21.089844 19.121094 21.113281 18.980469 21.113281 L 17.246094 21.113281 C 17.105469 21.113281 16.972656 21.089844 16.84375 21.035156 C 16.71875 20.984375 16.605469 20.90625 16.507812 20.808594 C 16.410156 20.710938 16.335938 20.597656 16.28125 20.472656 C 16.226562 20.34375 16.203125 20.210938 16.203125 20.074219 L 16.203125 8.957031 C 16.203125 8.816406 16.226562 8.683594 16.28125 8.558594 C 16.335938 8.429688 16.410156 8.316406 16.507812 8.21875 C 16.605469 8.121094 16.71875 8.046875 16.84375 7.992188 C 16.972656 7.941406 17.105469 7.914062 17.246094 7.914062 Z M 17.246094 7.914062 " fill-opacity="1" fill-rule="nonzero"/></g><g clip-path="url(#cd6ca56065)"><path fill="#ffffff" d="M 10.992188 7.914062 L 12.726562 7.914062 C 12.867188 7.914062 13 7.941406 13.128906 7.992188 C 13.253906 8.046875 13.367188 8.121094 13.464844 8.21875 C 13.5625 8.316406 13.636719 8.429688 13.691406 8.558594 C 13.742188 8.683594 13.769531 8.816406 13.769531 8.957031 L 13.769531 20.074219 C 13.769531 20.210938 13.742188 20.34375 13.691406 20.472656 C 13.636719 20.597656 13.5625 20.710938 13.464844 20.808594 C 13.367188 20.90625 13.253906 20.984375 13.128906 21.035156 C 13 21.089844 12.867188 21.113281 12.726562 21.113281 L 10.992188 21.113281 C 10.851562 21.113281 10.71875 21.089844 10.59375 21.035156 C 10.464844 20.984375 10.351562 20.90625 10.253906 20.808594 C 10.15625 20.710938 10.082031 20.597656 10.027344 20.472656 C 9.976562 20.34375 9.949219 20.210938 9.949219 20.074219 L 9.949219 8.957031 C 9.949219 8.816406 9.976562 8.683594 10.027344 8.558594 C 10.082031 8.429688 10.15625 8.316406 10.253906 8.21875 C 10.351562 8.121094 10.464844 8.046875 10.59375 7.992188 C 10.71875 7.941406 10.851562 7.914062 10.992188 7.914062 Z M 10.992188 7.914062 " fill-opacity="1" fill-rule="nonzero"/></g></svg>