<svg xmlns="http://www.w3.org/2000/svg" xmlns:xlink="http://www.w3.org/1999/xlink" width="40" zoomAndPan="magnify" viewBox="0 0 30 30.000001" height="40" preserveAspectRatio="xMidYMid meet" version="1.0"><defs><clipPath id="2c987e9e78"><path d="M 0.484375 0 L 29.515625 0 L 29.515625 29.03125 L 0.484375 29.03125 Z M 0.484375 0 " clip-rule="nonzero"/></clipPath><clipPath id="e54057cd22"><path d="M 15 0 C 6.984375 0 0.484375 6.5 0.484375 14.515625 C 0.484375 22.53125 6.984375 29.03125 15 29.03125 C 23.015625 29.03125 29.515625 22.53125 29.515625 14.515625 C 29.515625 6.5 23.015625 0 15 0 Z M 15 0 " clip-rule="nonzero"/></clipPath><clipPath id="b62839c481"><path d="M 0.484375 0 L 29.515625 0 L 29.515625 29.03125 L 0.484375 29.03125 Z M 0.484375 0 " clip-rule="nonzero"/></clipPath><clipPath id="0e0975690d"><path d="M 15 0 C 6.984375 0 0.484375 6.5 0.484375 14.515625 C 0.484375 22.53125 6.984375 29.03125 15 29.03125 C 23.015625 29.03125 29.515625 22.53125 29.515625 14.515625 C 29.515625 6.5 23.015625 0 15 0 Z M 15 0 " clip-rule="nonzero"/></clipPath><clipPath id="e814a1ca45"><rect x="0" width="30" y="0" height="30"/></clipPath><clipPath id="56bf4e5aaf"><path d="M 11.066406 7.914062 L 21 7.914062 L 21 20.980469 L 11.066406 20.980469 Z M 11.066406 7.914062 " clip-rule="nonzero"/></clipPath></defs><g clip-path="url(#2c987e9e78)"><g clip-path="url(#e54057cd22)"><g transform="matrix(1, 0, 0, 1, 0, 0.000000000000005692)"><g clip-path="url(#e814a1ca45)"><g clip-path="url(#b62839c481)"><g clip-path="url(#0e0975690d)"><path fill="#6a2e3a" d="M 0.484375 0 L 29.515625 0 L 29.515625 29.03125 L 0.484375 29.03125 Z M 0.484375 0 " fill-opacity="1" fill-rule="nonzero"/></g></g></g></g></g></g><g clip-path="url(#56bf4e5aaf)"><path fill="#ffffff" d="M 11.949219 21.105469 C 12.238281 21.105469 12.566406 20.984375 12.90625 20.746094 L 20.234375 15.734375 C 20.707031 15.414062 20.964844 14.972656 20.964844 14.507812 C 20.964844 14.046875 20.707031 13.605469 20.234375 13.285156 L 12.917969 8.273438 C 12.578125 8.035156 12.238281 7.921875 11.949219 7.921875 C 11.40625 7.921875 11.066406 8.367188 11.066406 9.097656 L 11.066406 19.933594 C 11.066406 20.664062 11.40625 21.105469 11.949219 21.105469 Z M 11.949219 21.105469 " fill-opacity="1" fill-rule="nonzero"/></g></svg>