<svg xmlns="http://www.w3.org/2000/svg" xmlns:xlink="http://www.w3.org/1999/xlink" width="1080" zoomAndPan="magnify" viewBox="0 0 810 809.999993" height="1080" preserveAspectRatio="xMidYMid meet" version="1.0"><defs><g/><clipPath id="acec4c8ea7"><rect x="0" width="517" y="0" height="539"/></clipPath><clipPath id="fac4e52e7b"><path d="M 0 0.640625 L 539 0.640625 L 539 600.640625 L 0 600.640625 Z M 0 0.640625 " clip-rule="nonzero"/></clipPath><clipPath id="e265a02ccd"><rect x="0" width="539" y="0" height="601"/></clipPath><clipPath id="c95bf2fed4"><rect x="0" width="810" y="0" height="601"/></clipPath></defs><g transform="matrix(1, 0, 0, 1, 0, 128)"><g clip-path="url(#c95bf2fed4)"><g transform="matrix(1, 0, 0, 1, 293, 30)"><g clip-path="url(#acec4c8ea7)"><g fill="#6a2e3a" fill-opacity="1"><g transform="translate(0.135321, 419.72165)"><g><path d="M 505.765625 -2.34375 C 508.109375 -2.34375 509.179688 -1.660156 508.984375 -0.296875 C 508.785156 1.066406 507.710938 1.75 505.765625 1.75 C 502.265625 1.363281 497.109375 0.972656 490.296875 0.578125 C 483.484375 0.191406 478.128906 0 474.234375 0 L 394.21875 0 C 389.15625 0 382.535156 0.191406 374.359375 0.578125 C 366.179688 0.972656 359.953125 1.363281 355.671875 1.75 C 353.335938 1.75 352.070312 1.066406 351.875 -0.296875 C 351.6875 -1.660156 352.953125 -2.34375 355.671875 -2.34375 C 371.640625 -3.113281 384.195312 -7.003906 393.34375 -14.015625 C 402.488281 -21.023438 406.09375 -34.65625 404.15625 -54.90625 L 374.953125 -359.765625 C 374.554688 -361.710938 373.773438 -362.6875 372.609375 -362.6875 C 371.441406 -362.6875 370.273438 -361.515625 369.109375 -359.171875 L 236.53125 -21.609375 C 234.976562 -17.328125 232.644531 -15.1875 229.53125 -15.1875 C 226.800781 -15.1875 224.65625 -16.9375 223.09375 -20.4375 L 93.4375 -353.34375 C 92.664062 -355.289062 92.082031 -356.457031 91.6875 -356.84375 C 91.300781 -357.226562 90.71875 -357.421875 89.9375 -357.421875 C 88.769531 -357.421875 87.992188 -356.445312 87.609375 -354.5 L 60.15625 -54.90625 C 58.59375 -34.65625 62.382812 -21.023438 71.53125 -14.015625 C 80.6875 -7.003906 93.050781 -3.113281 108.625 -2.34375 C 111.738281 -2.34375 113.195312 -1.660156 113 -0.296875 C 112.8125 1.066406 111.351562 1.75 108.625 1.75 C 104.738281 1.363281 98.609375 0.972656 90.234375 0.578125 C 81.859375 0.191406 75.140625 0 70.078125 0 L 42.640625 0 C 38.742188 0 33.390625 0.191406 26.578125 0.578125 C 19.765625 0.972656 14.601562 1.363281 11.09375 1.75 C 9.144531 1.75 7.976562 1.066406 7.59375 -0.296875 C 7.207031 -1.660156 8.375 -2.34375 11.09375 -2.34375 C 23.945312 -3.113281 34.164062 -7.003906 41.75 -14.015625 C 49.34375 -21.023438 54.113281 -34.65625 56.0625 -54.90625 L 85.265625 -371.4375 C 78.648438 -384.289062 71.835938 -393.25 64.828125 -398.3125 C 57.816406 -403.375 48.664062 -406.097656 37.375 -406.484375 C 35.039062 -406.484375 33.96875 -407.164062 34.15625 -408.53125 C 34.351562 -409.894531 35.425781 -410.578125 37.375 -410.578125 C 40.882812 -410.179688 46.140625 -409.789062 53.140625 -409.40625 C 60.148438 -409.019531 65.601562 -408.828125 69.5 -408.828125 L 122.640625 -408.828125 C 126.929688 -408.828125 129.660156 -407.070312 130.828125 -403.5625 L 251.71875 -94.03125 C 252.5 -92.082031 253.273438 -91.109375 254.046875 -91.109375 C 255.222656 -91.109375 256.195312 -92.082031 256.96875 -94.03125 L 381.953125 -404.734375 C 382.734375 -407.460938 384.488281 -408.828125 387.21875 -408.828125 L 439.1875 -408.828125 C 443.46875 -408.828125 449.113281 -409.019531 456.125 -409.40625 C 463.132812 -409.789062 468.585938 -410.179688 472.484375 -410.578125 C 474.429688 -410.578125 475.5 -409.894531 475.6875 -408.53125 C 475.882812 -407.164062 474.816406 -406.484375 472.484375 -406.484375 C 459.242188 -406.097656 448.628906 -402.300781 440.640625 -395.09375 C 432.660156 -387.894531 429.644531 -374.171875 431.59375 -353.921875 L 460.796875 -54.90625 C 462.742188 -34.65625 467.515625 -21.023438 475.109375 -14.015625 C 482.703125 -7.003906 492.921875 -3.113281 505.765625 -2.34375 Z M 87.015625 -367.9375 L 92.28125 -356.265625 Z M 87.015625 -367.9375 "/></g></g></g></g></g><g clip-path="url(#fac4e52e7b)"><g transform="matrix(1, 0, 0, 1, 0, 0.000000000000056843)"><g clip-path="url(#e265a02ccd)"><g fill="#ffffff" fill-opacity="1"><g transform="translate(-27.338574, 395.871706)"><g><path d="M 366.03125 -41.667969 C 367.53125 -25.851562 370.9375 -11.210938 376.257812 2.25 C 380.507812 12.554688 386.570312 21.765625 394.445312 29.886719 C 402.304688 37.992188 411.605469 44.339844 422.34375 48.929688 C 433.074219 53.515625 444.847656 55.8125 457.667969 55.8125 L 458.136719 61.488281 L 456.34375 61.785156 L 456.074219 61.777344 C 412.996094 60.734375 383.773438 41 368.40625 2.585938 L 371.058594 1.523438 L 368.449219 2.683594 C 365.671875 -3.566406 363.414062 -10.246094 361.679688 -17.355469 C 359.964844 -24.390625 358.59375 -31.597656 357.5625 -38.972656 L 360.394531 -39.367188 L 362.097656 -37.074219 C 354.777344 -31.625 347.328125 -26.390625 339.75 -21.363281 C 332.15625 -16.332031 324.4375 -11.597656 316.589844 -7.164062 C 304.445312 -0.320312 290.605469 6.089844 275.066406 12.0625 C 259.554688 18.03125 243.402344 23.144531 226.613281 27.40625 C 209.8125 31.671875 193.175781 34.742188 176.710938 36.617188 C 160.160156 38.503906 144.917969 38.675781 130.992188 37.125 C 115.601562 35.570312 101.660156 31.753906 89.167969 25.683594 C 76.4375 19.492188 66.625 10.210938 59.726562 -2.164062 L 62.222656 -3.554688 L 59.777344 -2.078125 C 54.652344 -10.5625 51.558594 -19.585938 50.496094 -29.144531 L 53.335938 -29.460938 L 50.503906 -29.0625 C 48.230469 -45.15625 50.960938 -62.460938 58.699219 -80.976562 C 66.367188 -99.332031 78.367188 -117.105469 94.695312 -134.289062 C 110.960938 -151.414062 131.316406 -167.199219 155.757812 -181.640625 C 180.195312 -196.082031 208.117188 -207.484375 239.527344 -215.847656 C 246.53125 -217.726562 253.792969 -219.390625 261.308594 -220.84375 C 268.792969 -222.289062 276.359375 -223.609375 284.015625 -224.800781 C 308.753906 -228.210938 330.050781 -229.660156 347.902344 -229.148438 C 365.847656 -228.632812 380.867188 -226.5625 392.960938 -222.933594 L 392.140625 -220.199219 L 389.523438 -221.34375 C 398.570312 -242 409.535156 -261.671875 422.421875 -280.363281 C 435.371094 -299.140625 450.851562 -315.5625 468.859375 -329.628906 C 481.625 -339.632812 493.949219 -346.804688 505.832031 -351.140625 C 517.953125 -355.566406 528.4375 -356.785156 537.277344 -354.800781 C 543.605469 -353.496094 548.839844 -350.585938 552.980469 -346.070312 C 557.808594 -340.871094 560.679688 -333.847656 561.589844 -325.003906 C 562.46875 -316.484375 561.691406 -306.738281 559.253906 -295.769531 C 556.332031 -282.707031 551.867188 -269.566406 545.859375 -256.351562 C 539.886719 -243.21875 533.40625 -230.765625 526.410156 -218.992188 C 514.84375 -199.089844 500.851562 -178.546875 484.433594 -157.367188 C 468.023438 -136.191406 449.742188 -115.488281 429.59375 -95.257812 C 409.433594 -75.011719 387.867188 -56.292969 364.898438 -39.109375 L 363.1875 -41.398438 Z M 360.34375 -41.128906 L 360.191406 -42.726562 L 361.476562 -43.6875 C 384.222656 -60.703125 405.578125 -79.238281 425.546875 -99.289062 C 445.527344 -119.355469 463.648438 -139.878906 479.917969 -160.867188 C 496.179688 -181.847656 510.039062 -202.195312 521.496094 -221.910156 C 528.386719 -233.503906 534.773438 -245.773438 540.65625 -258.714844 C 546.5 -271.574219 550.839844 -284.335938 553.671875 -297.011719 C 555.976562 -307.375 556.722656 -316.511719 555.90625 -324.417969 C 555.125 -331.996094 552.746094 -337.925781 548.769531 -342.207031 C 545.460938 -345.816406 541.214844 -348.15625 536.027344 -349.222656 C 528.277344 -350.964844 518.863281 -349.8125 507.789062 -345.773438 C 496.476562 -341.644531 484.671875 -334.761719 472.378906 -325.125 C 454.828125 -311.417969 439.746094 -295.417969 427.128906 -277.117188 C 414.449219 -258.726562 403.65625 -239.371094 394.757812 -219.050781 L 393.742188 -216.734375 L 391.320312 -217.460938 C 379.707031 -220.945312 365.179688 -222.9375 347.738281 -223.4375 C 330.203125 -223.941406 309.253906 -222.511719 284.894531 -219.152344 C 277.308594 -217.972656 269.808594 -216.667969 262.390625 -215.234375 C 255.007812 -213.808594 247.878906 -212.171875 240.996094 -210.324219 C 210.097656 -202.097656 182.652344 -190.894531 158.664062 -176.71875 C 134.683594 -162.546875 114.738281 -147.09375 98.835938 -130.355469 C 82.992188 -113.675781 71.371094 -96.484375 63.972656 -78.773438 C 56.640625 -61.222656 54.035156 -44.921875 56.164062 -29.859375 L 56.171875 -29.820312 L 56.175781 -29.777344 C 57.144531 -21.050781 59.976562 -12.800781 64.671875 -5.035156 L 64.695312 -4.992188 L 64.71875 -4.945312 C 71.03125 6.382812 80.011719 14.878906 91.664062 20.542969 C 103.550781 26.320312 116.871094 29.957031 131.621094 31.445312 C 145.125 32.945312 159.9375 32.777344 176.0625 30.941406 C 192.273438 29.09375 208.65625 26.066406 225.210938 21.867188 C 241.777344 17.660156 257.710938 12.617188 273.015625 6.730469 C 288.292969 0.855469 301.882812 -5.4375 313.777344 -12.136719 C 321.507812 -16.507812 329.113281 -21.171875 336.589844 -26.128906 C 344.082031 -31.09375 351.449219 -36.269531 358.6875 -41.660156 L 362.554688 -44.539062 L 363.222656 -39.761719 C 364.226562 -32.574219 365.5625 -25.558594 367.234375 -18.710938 C 368.886719 -11.933594 371.03125 -5.574219 373.671875 0.363281 L 373.691406 0.414062 L 373.714844 0.460938 C 388.144531 36.546875 415.644531 55.082031 456.210938 56.066406 L 456.140625 58.921875 L 455.671875 56.105469 L 457.195312 55.851562 L 457.667969 58.667969 L 457.667969 61.527344 C 444.070312 61.527344 431.546875 59.078125 420.097656 54.183594 C 408.65625 49.292969 398.738281 42.519531 390.34375 33.863281 C 381.960938 25.21875 375.496094 15.382812 370.941406 4.351562 C 365.425781 -9.613281 361.890625 -24.773438 360.34375 -41.128906 Z M 244.203125 -48.800781 C 265.632812 -51.648438 286.097656 -57.046875 305.597656 -64.996094 C 325.125 -72.957031 342.503906 -82.292969 357.734375 -93.007812 L 359.378906 -90.667969 L 356.527344 -90.878906 C 358.0625 -111.867188 361.558594 -133.320312 367.015625 -155.234375 C 372.472656 -177.144531 379.636719 -198.332031 388.503906 -218.792969 L 391.125 -217.65625 L 390.140625 -214.976562 C 380.242188 -218.605469 369.210938 -220.792969 357.042969 -221.535156 C 344.722656 -222.289062 332.3125 -222.25 319.820312 -221.410156 C 307.277344 -220.570312 295.621094 -219.390625 284.851562 -217.875 C 277.285156 -216.699219 269.832031 -215.4375 262.492188 -214.085938 C 255.203125 -212.746094 248.125 -211.152344 241.257812 -209.3125 C 210.519531 -201.082031 183.242188 -189.960938 159.421875 -175.957031 C 135.613281 -161.957031 115.761719 -146.503906 99.863281 -129.601562 C 84.011719 -112.914062 72.382812 -95.800781 64.984375 -78.257812 C 57.65625 -60.882812 55.054688 -44.75 57.179688 -29.867188 C 58.152344 -22.253906 60.660156 -14.882812 64.707031 -7.761719 C 69.835938 1.050781 76.890625 7.738281 85.871094 12.3125 C 95.042969 16.980469 105.472656 19.972656 117.148438 21.289062 C 128.105469 22.449219 139.914062 22.324219 152.578125 20.90625 C 165.316406 19.480469 178.398438 17.09375 191.820312 13.738281 C 205.28125 10.371094 218.570312 6.375 231.691406 1.75 C 244.816406 -2.878906 257.304688 -7.921875 269.160156 -13.390625 C 281.03125 -18.859375 291.757812 -24.285156 301.339844 -29.667969 C 310.75 -35.210938 320.128906 -41.058594 329.488281 -47.214844 C 338.84375 -53.367188 347.988281 -59.730469 356.921875 -66.304688 L 358.613281 -64.003906 L 355.757812 -64.003906 C 355.757812 -67.917969 355.800781 -71.75 355.886719 -75.496094 C 355.972656 -79.285156 356.1875 -83.074219 356.53125 -86.863281 L 359.378906 -86.605469 L 360.878906 -84.175781 C 344.8125 -74.261719 327.007812 -65.507812 307.457031 -57.910156 C 287.859375 -50.292969 267.109375 -45.03125 245.210938 -42.121094 C 240.769531 -41.4375 234.957031 -40.839844 227.765625 -40.324219 C 220.546875 -39.808594 212.863281 -39.722656 204.710938 -40.066406 C 196.453125 -40.414062 188.703125 -41.589844 181.464844 -43.597656 C 173.953125 -45.679688 167.863281 -49.054688 163.191406 -53.726562 C 158.28125 -58.640625 156.011719 -65.238281 156.390625 -73.527344 C 156.753906 -81.191406 159.421875 -88.59375 164.390625 -95.730469 C 169.164062 -102.585938 174.164062 -108.453125 179.390625 -113.332031 L 181.339844 -111.242188 L 179.492188 -109.058594 C 172.59375 -114.898438 167.070312 -121.925781 162.914062 -130.144531 C 158.804688 -138.28125 155.964844 -147.148438 154.390625 -156.75 L 154.355469 -156.980469 L 154.355469 -158.226562 L 160.03125 -158.6875 C 161.507812 -149.679688 164.246094 -141.328125 168.253906 -133.644531 C 172.214844 -126.039062 177.425781 -119.65625 183.886719 -114.488281 L 182.101562 -112.257812 L 180.199219 -114.390625 C 191.234375 -124.21875 205.121094 -133.210938 221.867188 -141.367188 C 238.652344 -149.542969 257.355469 -155.007812 277.980469 -157.757812 C 280.738281 -158.101562 284.503906 -158.488281 289.28125 -158.914062 C 294.121094 -159.347656 299.339844 -159.519531 304.941406 -159.433594 C 310.640625 -159.347656 316.042969 -158.730469 321.144531 -157.585938 C 326.503906 -156.386719 330.929688 -154.324219 334.417969 -151.402344 C 338.230469 -148.207031 340.136719 -143.878906 340.136719 -138.417969 C 340.136719 -132.679688 338.242188 -127.394531 334.449219 -122.558594 C 330.863281 -117.984375 326.261719 -113.914062 320.652344 -110.351562 C 315.183594 -106.878906 309.324219 -103.839844 303.078125 -101.238281 C 296.882812 -98.65625 290.9375 -96.546875 285.246094 -94.90625 C 279.519531 -93.261719 274.636719 -92.171875 270.601562 -91.644531 C 260.828125 -90.273438 250.582031 -89.632812 239.859375 -89.71875 C 229.03125 -89.804688 218.503906 -91.234375 208.273438 -94.007812 C 197.898438 -96.820312 188.574219 -101.570312 180.304688 -108.257812 L 182.101562 -110.480469 L 184.046875 -108.386719 C 179.28125 -103.953125 174.628906 -98.511719 170.085938 -92.070312 C 165.75 -85.921875 163.425781 -79.484375 163.113281 -72.757812 C 162.816406 -66.351562 164.507812 -61.417969 168.1875 -57.957031 C 172.15625 -54.21875 177.378906 -51.484375 183.859375 -49.746094 C 190.585938 -47.941406 197.820312 -46.914062 205.558594 -46.667969 C 213.417969 -46.417969 220.765625 -46.542969 227.609375 -47.042969 C 234.46875 -47.542969 239.976562 -48.125 244.128906 -48.792969 L 244.164062 -48.796875 Z M 244.957031 -43.136719 L 244.578125 -45.96875 L 245.03125 -43.148438 C 240.71875 -42.457031 235.050781 -41.855469 228.027344 -41.34375 C 220.984375 -40.828125 213.433594 -40.699219 205.375 -40.953125 C 197.199219 -41.214844 189.53125 -42.304688 182.375 -44.226562 C 174.972656 -46.210938 168.9375 -49.402344 164.269531 -53.792969 C 159.3125 -58.457031 157.027344 -64.867188 157.40625 -73.023438 C 157.769531 -80.859375 160.441406 -88.304688 165.417969 -95.363281 C 170.1875 -102.128906 175.097656 -107.863281 180.152344 -112.570312 L 181.96875 -114.261719 L 183.898438 -112.703125 C 191.542969 -106.519531 200.167969 -102.128906 209.769531 -99.523438 C 219.523438 -96.878906 229.566406 -95.515625 239.902344 -95.433594 C 250.34375 -95.347656 260.332031 -95.976562 269.863281 -97.3125 C 273.613281 -97.800781 278.214844 -98.832031 283.664062 -100.398438 C 289.144531 -101.976562 294.882812 -104.015625 300.878906 -106.515625 C 306.824219 -108.992188 312.394531 -111.878906 317.589844 -115.179688 C 322.648438 -118.390625 326.769531 -122.023438 329.953125 -126.085938 C 332.933594 -129.886719 334.421875 -133.996094 334.421875 -138.417969 C 334.421875 -142.101562 333.199219 -144.96875 330.746094 -147.019531 C 327.96875 -149.347656 324.351562 -151.011719 319.894531 -152.011719 C 315.175781 -153.066406 310.160156 -153.636719 304.855469 -153.71875 C 299.453125 -153.800781 294.429688 -153.636719 289.789062 -153.222656 C 285.082031 -152.800781 281.394531 -152.425781 278.734375 -152.09375 C 258.722656 -149.425781 240.601562 -144.136719 224.371094 -136.230469 C 208.097656 -128.300781 194.640625 -119.601562 184 -110.125 L 182.199219 -108.519531 L 180.316406 -110.027344 C 173.230469 -115.695312 167.519531 -122.6875 163.1875 -131 C 158.894531 -139.230469 155.964844 -148.152344 154.390625 -157.765625 L 157.210938 -158.226562 L 160.070312 -158.226562 L 160.070312 -157.210938 L 157.210938 -157.210938 L 160.03125 -157.671875 C 161.507812 -148.648438 164.167969 -140.332031 168.015625 -132.722656 C 171.820312 -125.195312 176.875 -118.761719 183.183594 -113.421875 L 185.640625 -111.347656 L 183.289062 -109.152344 C 178.359375 -104.550781 173.621094 -98.988281 169.082031 -92.464844 C 164.738281 -86.226562 162.410156 -79.828125 162.097656 -73.269531 C 161.796875 -66.660156 163.507812 -61.492188 167.230469 -57.769531 C 171.195312 -53.804688 176.449219 -50.917969 182.992188 -49.105469 C 189.808594 -47.214844 197.128906 -46.105469 204.953125 -45.777344 C 212.886719 -45.441406 220.355469 -45.527344 227.359375 -46.027344 C 234.394531 -46.527344 240.09375 -47.117188 244.457031 -47.785156 C 265.902344 -50.632812 286.214844 -55.785156 305.386719 -63.238281 C 324.613281 -70.707031 342.109375 -79.308594 357.875 -89.039062 L 362.738281 -92.039062 L 362.222656 -86.347656 C 361.890625 -82.6875 361.683594 -79.027344 361.597656 -75.367188 C 361.515625 -71.664062 361.472656 -67.875 361.472656 -64.003906 L 361.472656 -62.558594 L 360.308594 -61.699219 C 351.292969 -55.066406 342.066406 -48.648438 332.628906 -42.441406 C 323.191406 -36.234375 313.695312 -30.316406 304.140625 -24.683594 C 294.421875 -19.230469 283.558594 -13.734375 271.554688 -8.199219 C 259.535156 -2.660156 246.882812 2.453125 233.59375 7.140625 C 220.300781 11.824219 206.839844 15.871094 193.207031 19.28125 C 179.539062 22.699219 166.207031 25.132812 153.210938 26.585938 C 140.136719 28.046875 127.902344 28.175781 116.507812 26.96875 C 104.144531 25.574219 93.066406 22.386719 83.277344 17.402344 C 73.296875 12.324219 65.449219 4.875 59.738281 -4.9375 C 55.320312 -12.714844 52.582031 -20.753906 51.523438 -29.058594 C 49.246094 -44.988281 51.980469 -62.128906 59.71875 -80.476562 C 67.386719 -98.660156 79.382812 -116.339844 95.699219 -133.519531 C 111.972656 -150.816406 132.246094 -166.605469 156.523438 -180.882812 C 180.792969 -195.152344 208.542969 -206.46875 239.777344 -214.832031 C 246.792969 -216.710938 254.019531 -218.339844 261.460938 -219.707031 C 268.851562 -221.066406 276.382812 -222.34375 284.054688 -223.535156 C 294.960938 -225.070312 306.753906 -226.261719 319.4375 -227.113281 C 332.175781 -227.96875 344.824219 -228.011719 357.394531 -227.242188 C 370.117188 -226.460938 381.6875 -224.160156 392.109375 -220.339844 L 394.949219 -219.300781 L 393.746094 -216.523438 C 385.003906 -196.347656 377.941406 -175.457031 372.5625 -153.855469 C 367.183594 -132.253906 363.738281 -111.125 362.226562 -90.460938 L 362.128906 -89.109375 L 361.019531 -88.332031 C 345.4375 -77.371094 327.679688 -67.828125 307.753906 -59.707031 C 287.804688 -51.570312 266.871094 -46.046875 244.957031 -43.136719 Z M 535.800781 -348.203125 C 529.277344 -349.597656 520.707031 -348.046875 510.085938 -343.539062 C 499.15625 -338.902344 487.617188 -331.675781 475.460938 -321.851562 C 458.585938 -307.816406 444.042969 -291.890625 431.832031 -274.078125 C 419.574219 -256.191406 409.078125 -237.257812 400.347656 -217.277344 L 397.726562 -218.421875 L 398.632812 -221.128906 C 402.839844 -219.726562 406.707031 -218.101562 410.230469 -216.25 C 413.84375 -214.355469 417.015625 -212.132812 419.742188 -209.589844 L 417.792969 -207.5 L 419.65625 -209.664062 C 424.90625 -205.136719 428.71875 -200.042969 431.09375 -194.382812 C 433.453125 -188.753906 434.542969 -182.769531 434.363281 -176.433594 L 434.355469 -176.308594 C 433.472656 -163.949219 428.316406 -150.785156 418.890625 -136.820312 L 418.859375 -136.769531 L 418.824219 -136.726562 C 412.625 -128.289062 404.976562 -119.78125 395.878906 -111.195312 C 386.777344 -102.609375 376.398438 -94.546875 364.738281 -87 L 363.1875 -89.398438 L 366.035156 -89.152344 C 365.699219 -85.296875 365.445312 -81.484375 365.28125 -77.71875 C 365.113281 -73.949219 365.027344 -70.308594 365.027344 -66.796875 L 362.171875 -66.796875 L 360.453125 -69.078125 C 382.878906 -85.941406 403.957031 -103.859375 423.683594 -122.824219 C 443.417969 -141.800781 461.421875 -161.027344 477.695312 -180.503906 C 493.957031 -199.964844 507.808594 -218.703125 519.257812 -236.714844 C 527.152344 -249.144531 533.78125 -261.019531 539.152344 -272.34375 C 544.496094 -283.621094 548.417969 -293.835938 550.914062 -302.984375 C 552.066406 -306.941406 552.972656 -311.386719 553.628906 -316.324219 C 554.269531 -321.117188 554.191406 -325.824219 553.394531 -330.445312 C 552.648438 -334.761719 550.796875 -338.398438 547.839844 -341.355469 L 547.765625 -341.429688 L 547.695312 -341.507812 C 544.882812 -344.765625 540.898438 -347 535.746094 -348.214844 Z M 537.054688 -353.777344 C 543.410156 -352.28125 548.402344 -349.4375 552.023438 -345.246094 L 549.859375 -343.375 L 551.878906 -345.398438 C 555.695312 -341.582031 558.074219 -336.921875 559.023438 -331.417969 C 559.921875 -326.21875 560.011719 -320.9375 559.296875 -315.570312 C 558.597656 -310.347656 557.640625 -305.652344 556.425781 -301.480469 C 553.84375 -292.003906 549.804688 -281.476562 544.3125 -269.894531 C 538.847656 -258.359375 532.101562 -246.277344 524.078125 -233.648438 C 512.5 -215.429688 498.5 -196.492188 482.082031 -176.839844 C 465.675781 -157.203125 447.53125 -137.828125 427.644531 -118.707031 C 407.753906 -99.578125 386.5 -81.511719 363.886719 -64.511719 L 359.3125 -61.074219 L 359.3125 -66.796875 C 359.3125 -70.394531 359.398438 -74.117188 359.570312 -77.972656 C 359.742188 -81.820312 359.996094 -85.714844 360.339844 -89.648438 L 360.460938 -91.039062 L 361.632812 -91.796875 C 373.003906 -99.15625 383.109375 -107.003906 391.957031 -115.351562 C 400.804688 -123.699219 408.226562 -131.953125 414.21875 -140.109375 L 416.523438 -138.417969 L 414.152344 -140.015625 C 423.011719 -153.140625 427.847656 -165.375 428.65625 -176.71875 L 431.507812 -176.515625 L 428.648438 -176.59375 C 428.808594 -182.109375 427.867188 -187.300781 425.824219 -192.171875 C 423.796875 -197.007812 420.496094 -201.394531 415.925781 -205.335938 L 415.882812 -205.371094 L 415.84375 -205.410156 C 413.488281 -207.605469 410.734375 -209.53125 407.574219 -211.191406 C 404.324219 -212.898438 400.742188 -214.402344 396.824219 -215.710938 L 393.855469 -216.699219 L 395.109375 -219.5625 C 403.984375 -239.878906 414.65625 -259.125 427.117188 -277.308594 C 439.628906 -295.558594 454.546875 -311.886719 471.871094 -326.296875 C 484.4375 -336.453125 496.433594 -343.957031 507.851562 -348.800781 C 519.582031 -353.777344 529.296875 -355.441406 536.996094 -353.789062 Z M 184.914062 -113.71875 C 192.5625 -107.53125 201.105469 -103.140625 210.542969 -100.535156 C 220.125 -97.894531 229.953125 -96.53125 240.03125 -96.449219 C 250.21875 -96.363281 260.070312 -96.988281 269.582031 -98.324219 C 273.1875 -98.816406 277.726562 -99.808594 283.195312 -101.300781 C 288.660156 -102.789062 294.335938 -104.78125 300.230469 -107.269531 C 306.101562 -109.75 311.59375 -112.601562 316.710938 -115.820312 C 321.679688 -118.941406 325.710938 -122.488281 328.804688 -126.460938 C 331.703125 -130.175781 333.152344 -134.164062 333.152344 -138.417969 C 333.152344 -141.890625 331.953125 -144.570312 329.550781 -146.453125 C 326.765625 -148.636719 323.179688 -150.1875 318.785156 -151.113281 C 314.140625 -152.09375 309.242188 -152.621094 304.089844 -152.703125 C 298.863281 -152.785156 294.011719 -152.621094 289.542969 -152.207031 C 285.019531 -151.789062 281.59375 -151.414062 279.269531 -151.082031 C 259.402344 -148.410156 241.304688 -143.199219 224.976562 -135.453125 C 208.652344 -127.707031 195.351562 -119.027344 185.070312 -109.410156 L 183.117188 -111.496094 Z M 181.320312 -109.273438 L 178.765625 -111.339844 L 181.164062 -113.582031 C 191.878906 -123.605469 205.667969 -132.617188 222.527344 -140.617188 C 239.390625 -148.617188 258.035156 -153.992188 278.460938 -156.738281 C 280.878906 -157.082031 284.398438 -157.46875 289.015625 -157.898438 C 293.691406 -158.332031 298.746094 -158.503906 304.183594 -158.417969 C 309.699219 -158.332031 314.960938 -157.757812 319.964844 -156.707031 C 325.222656 -155.597656 329.59375 -153.679688 333.074219 -150.953125 C 336.9375 -147.925781 338.867188 -143.746094 338.867188 -138.417969 C 338.867188 -132.851562 337.015625 -127.695312 333.3125 -122.945312 C 329.804688 -118.449219 325.285156 -114.460938 319.753906 -110.980469 C 314.375 -107.597656 308.609375 -104.605469 302.457031 -102.007812 C 296.328125 -99.417969 290.40625 -97.34375 284.699219 -95.785156 C 278.988281 -94.230469 274.214844 -93.1875 270.375 -92.664062 C 260.582031 -91.292969 250.453125 -90.648438 239.984375 -90.734375 C 229.40625 -90.820312 219.085938 -92.25 209.023438 -95.027344 C 198.820312 -97.839844 189.585938 -102.589844 181.320312 -109.273438 Z M 398.824219 -214.488281 C 390.414062 -195.140625 383.390625 -175.121094 377.753906 -154.429688 C 372.121094 -133.753906 368.300781 -113.421875 366.285156 -93.429688 L 363.441406 -93.71875 L 361.808594 -96.0625 C 371.660156 -102.910156 380.417969 -110.164062 388.085938 -117.832031 C 395.746094 -125.492188 402.148438 -133.140625 407.292969 -140.777344 C 411.402344 -147.023438 414.648438 -153.226562 417.03125 -159.386719 C 419.378906 -165.457031 420.714844 -171.222656 421.035156 -176.679688 C 421.347656 -182.015625 420.566406 -187.023438 418.695312 -191.707031 C 416.835938 -196.351562 413.714844 -200.554688 409.328125 -204.3125 C 407.402344 -205.917969 405.253906 -207.496094 402.890625 -209.046875 C 400.605469 -210.542969 398.03125 -211.851562 395.167969 -212.964844 L 396.203125 -215.625 Z M 393.582031 -216.765625 L 394.679688 -219.285156 L 397.238281 -218.289062 C 400.472656 -217.03125 403.402344 -215.542969 406.023438 -213.824219 C 408.570312 -212.15625 410.910156 -210.433594 413.046875 -208.652344 C 418.144531 -204.285156 421.792969 -199.34375 424 -193.828125 C 426.191406 -188.355469 427.101562 -182.527344 426.738281 -176.347656 C 426.382812 -170.292969 424.925781 -163.949219 422.363281 -157.324219 C 419.832031 -150.785156 416.390625 -144.203125 412.035156 -137.582031 C 406.683594 -129.640625 400.046875 -121.710938 392.128906 -113.792969 C 384.21875 -105.882812 375.199219 -98.410156 365.070312 -91.371094 L 359.976562 -87.828125 L 360.597656 -94.003906 C 362.644531 -114.308594 366.527344 -134.953125 372.238281 -155.929688 C 377.949219 -176.890625 385.0625 -197.167969 393.582031 -216.765625 Z M 393.582031 -216.765625 "/></g></g></g><g fill="#6a2e3a" fill-opacity="1"><g transform="translate(-27.338574, 395.871706)"><g><path d="M 363.203125 -41.40625 C 364.722656 -25.3125 368.191406 -10.410156 373.609375 3.296875 C 378.015625 13.960938 384.28125 23.488281 392.40625 31.875 C 400.53125 40.257812 410.140625 46.820312 421.234375 51.5625 C 432.328125 56.300781 444.476562 58.671875 457.6875 58.671875 L 456.15625 58.921875 C 414.332031 57.910156 385.972656 38.78125 371.078125 1.53125 C 368.359375 -4.570312 366.148438 -11.09375 364.453125 -18.03125 C 362.765625 -24.976562 361.414062 -32.09375 360.40625 -39.375 C 353.125 -33.945312 345.710938 -28.734375 338.171875 -23.734375 C 330.640625 -18.742188 322.976562 -14.050781 315.1875 -9.65625 C 303.164062 -2.875 289.453125 3.472656 274.046875 9.390625 C 258.640625 15.316406 242.597656 20.394531 225.921875 24.625 C 209.242188 28.863281 192.734375 31.914062 176.390625 33.78125 C 160.046875 35.644531 145.019531 35.8125 131.3125 34.28125 C 116.238281 32.757812 102.601562 29.035156 90.40625 23.109375 C 78.21875 17.179688 68.820312 8.289062 62.21875 -3.5625 C 57.3125 -11.6875 54.351562 -20.320312 53.34375 -29.46875 C 51.132812 -45.039062 53.796875 -61.84375 61.328125 -79.875 C 68.867188 -97.90625 80.679688 -115.390625 96.765625 -132.328125 C 112.847656 -149.253906 132.992188 -164.867188 157.203125 -179.171875 C 181.421875 -193.484375 209.109375 -204.789062 240.265625 -213.09375 C 247.210938 -214.957031 254.410156 -216.609375 261.859375 -218.046875 C 269.304688 -219.484375 276.84375 -220.796875 284.46875 -221.984375 C 309.019531 -225.367188 330.140625 -226.804688 347.828125 -226.296875 C 365.523438 -225.785156 380.300781 -223.753906 392.15625 -220.203125 C 401.125 -240.691406 412 -260.207031 424.78125 -278.75 C 437.570312 -297.289062 452.859375 -313.503906 470.640625 -327.390625 C 483.160156 -337.203125 495.21875 -344.222656 506.8125 -348.453125 C 518.414062 -352.691406 528.367188 -353.878906 536.671875 -352.015625 C 542.421875 -350.835938 547.160156 -348.21875 550.890625 -344.15625 C 555.296875 -339.40625 557.921875 -332.925781 558.765625 -324.71875 C 559.609375 -316.507812 558.847656 -307.070312 556.484375 -296.40625 C 553.597656 -283.53125 549.191406 -270.570312 543.265625 -257.53125 C 537.347656 -244.5 530.914062 -232.140625 523.96875 -220.453125 C 512.457031 -200.648438 498.53125 -180.207031 482.1875 -159.125 C 465.851562 -138.039062 447.648438 -117.421875 427.578125 -97.265625 C 407.515625 -77.117188 386.054688 -58.5 363.203125 -41.40625 Z M 244.59375 -45.96875 C 266.257812 -48.84375 286.957031 -54.300781 306.6875 -62.34375 C 326.414062 -70.394531 343.984375 -79.835938 359.390625 -90.671875 C 360.910156 -111.492188 364.378906 -132.785156 369.796875 -154.546875 C 375.210938 -176.304688 382.328125 -197.347656 391.140625 -217.671875 C 380.972656 -221.390625 369.664062 -223.628906 357.21875 -224.390625 C 344.78125 -225.148438 332.253906 -225.109375 319.640625 -224.265625 C 307.023438 -223.421875 295.300781 -222.238281 284.46875 -220.71875 C 276.84375 -219.53125 269.347656 -218.257812 261.984375 -216.90625 C 254.617188 -215.550781 247.460938 -213.941406 240.515625 -212.078125 C 209.535156 -203.773438 182.019531 -192.554688 157.96875 -178.421875 C 133.925781 -164.285156 113.863281 -148.664062 97.78125 -131.5625 C 81.695312 -114.632812 69.882812 -97.238281 62.34375 -79.375 C 54.8125 -61.507812 52.148438 -44.875 54.359375 -29.46875 C 55.367188 -21.507812 57.988281 -13.800781 62.21875 -6.34375 C 67.644531 2.96875 75.097656 10.035156 84.578125 14.859375 C 94.054688 19.679688 104.804688 22.769531 116.828125 24.125 C 128.003906 25.3125 140.023438 25.1875 152.890625 23.75 C 165.765625 22.3125 178.972656 19.894531 192.515625 16.5 C 206.066406 13.113281 219.441406 9.09375 232.640625 4.4375 C 245.847656 -0.21875 258.421875 -5.296875 270.359375 -10.796875 C 282.296875 -16.296875 293.09375 -21.753906 302.75 -27.171875 C 312.226562 -32.765625 321.664062 -38.648438 331.0625 -44.828125 C 340.46875 -51.003906 349.65625 -57.394531 358.625 -64 C 358.625 -67.894531 358.664062 -71.703125 358.75 -75.421875 C 358.832031 -79.148438 359.046875 -82.878906 359.390625 -86.609375 C 343.472656 -76.785156 325.816406 -68.101562 306.421875 -60.5625 C 287.035156 -53.03125 266.507812 -47.828125 244.84375 -44.953125 C 240.4375 -44.273438 234.675781 -43.679688 227.5625 -43.171875 C 220.457031 -42.671875 212.882812 -42.585938 204.84375 -42.921875 C 196.800781 -43.265625 189.265625 -44.40625 182.234375 -46.34375 C 175.203125 -48.289062 169.523438 -51.421875 165.203125 -55.734375 C 160.890625 -60.054688 158.90625 -65.945312 159.25 -73.40625 C 159.582031 -80.507812 162.078125 -87.40625 166.734375 -94.09375 C 171.390625 -100.789062 176.257812 -106.507812 181.34375 -111.25 C 174.738281 -116.832031 169.445312 -123.5625 165.46875 -131.4375 C 161.488281 -139.3125 158.738281 -147.90625 157.21875 -157.21875 L 157.21875 -158.234375 C 158.738281 -148.921875 161.570312 -140.285156 165.71875 -132.328125 C 169.875 -124.367188 175.335938 -117.679688 182.109375 -112.265625 C 192.941406 -121.910156 206.613281 -130.753906 223.125 -138.796875 C 239.632812 -146.835938 258.046875 -152.21875 278.359375 -154.9375 C 281.078125 -155.269531 284.804688 -155.644531 289.546875 -156.0625 C 294.285156 -156.488281 299.40625 -156.660156 304.90625 -156.578125 C 310.40625 -156.492188 315.609375 -155.898438 320.515625 -154.796875 C 325.429688 -153.703125 329.457031 -151.84375 332.59375 -149.21875 C 335.726562 -146.59375 337.296875 -142.992188 337.296875 -138.421875 C 337.296875 -133.335938 335.597656 -128.632812 332.203125 -124.3125 C 328.816406 -120 324.457031 -116.148438 319.125 -112.765625 C 313.789062 -109.378906 308.078125 -106.414062 301.984375 -103.875 C 295.890625 -101.332031 290.046875 -99.257812 284.453125 -97.65625 C 278.867188 -96.050781 274.128906 -94.992188 270.234375 -94.484375 C 260.585938 -93.128906 250.472656 -92.492188 239.890625 -92.578125 C 229.304688 -92.660156 219.019531 -94.054688 209.03125 -96.765625 C 199.039062 -99.472656 190.066406 -104.046875 182.109375 -110.484375 C 177.191406 -105.910156 172.40625 -100.320312 167.75 -93.71875 C 163.09375 -87.113281 160.597656 -80.171875 160.265625 -72.890625 C 159.921875 -65.609375 161.90625 -59.9375 166.21875 -55.875 C 170.539062 -51.8125 176.171875 -48.847656 183.109375 -46.984375 C 190.054688 -45.117188 197.507812 -44.0625 205.46875 -43.8125 C 213.425781 -43.5625 220.875 -43.6875 227.8125 -44.1875 C 234.757812 -44.695312 240.351562 -45.289062 244.59375 -45.96875 Z M 536.421875 -351 C 529.304688 -352.53125 520.160156 -350.921875 508.984375 -346.171875 C 497.804688 -341.429688 486.039062 -334.066406 473.6875 -324.078125 C 456.582031 -309.859375 441.847656 -293.734375 429.484375 -275.703125 C 417.128906 -257.671875 406.546875 -238.578125 397.734375 -218.421875 C 401.796875 -217.066406 405.519531 -215.5 408.90625 -213.71875 C 412.300781 -211.945312 415.265625 -209.875 417.796875 -207.5 C 422.710938 -203.269531 426.269531 -198.53125 428.46875 -193.28125 C 430.675781 -188.03125 431.691406 -182.441406 431.515625 -176.515625 C 430.671875 -164.660156 425.675781 -151.960938 416.53125 -138.421875 C 410.4375 -130.117188 402.898438 -121.734375 393.921875 -113.265625 C 384.953125 -104.804688 374.710938 -96.851562 363.203125 -89.40625 C 362.859375 -85.507812 362.601562 -81.65625 362.4375 -77.84375 C 362.269531 -74.03125 362.1875 -70.347656 362.1875 -66.796875 C 384.707031 -83.734375 405.867188 -101.722656 425.671875 -120.765625 C 445.484375 -139.816406 463.554688 -159.117188 479.890625 -178.671875 C 496.234375 -198.234375 510.164062 -217.070312 521.6875 -235.1875 C 529.644531 -247.71875 536.332031 -259.695312 541.75 -271.125 C 547.164062 -282.550781 551.144531 -292.921875 553.6875 -302.234375 C 554.875 -306.304688 555.804688 -310.878906 556.484375 -315.953125 C 557.160156 -321.035156 557.070312 -326.03125 556.21875 -330.9375 C 555.375 -335.851562 553.257812 -340.003906 549.875 -343.390625 C 546.65625 -347.109375 542.171875 -349.644531 536.421875 -351 Z M 183.125 -111.5 C 191.082031 -105.0625 199.96875 -100.488281 209.78125 -97.78125 C 219.601562 -95.070312 229.679688 -93.675781 240.015625 -93.59375 C 250.347656 -93.507812 260.335938 -94.144531 269.984375 -95.5 C 273.710938 -96.007812 278.367188 -97.023438 283.953125 -98.546875 C 289.546875 -100.066406 295.347656 -102.097656 301.359375 -104.640625 C 307.367188 -107.179688 312.992188 -110.101562 318.234375 -113.40625 C 323.484375 -116.707031 327.757812 -120.472656 331.0625 -124.703125 C 334.363281 -128.941406 336.015625 -133.515625 336.015625 -138.421875 C 336.015625 -142.828125 334.445312 -146.253906 331.3125 -148.703125 C 328.1875 -151.160156 324.207031 -152.894531 319.375 -153.90625 C 314.550781 -154.925781 309.472656 -155.476562 304.140625 -155.5625 C 298.804688 -155.644531 293.851562 -155.472656 289.28125 -155.046875 C 284.71875 -154.628906 281.25 -154.253906 278.875 -153.921875 C 258.726562 -151.203125 240.359375 -145.90625 223.765625 -138.03125 C 207.171875 -130.164062 193.625 -121.320312 183.125 -111.5 Z M 396.21875 -215.625 C 387.75 -196.15625 380.675781 -176.003906 375 -155.171875 C 369.332031 -134.347656 365.484375 -113.863281 363.453125 -93.71875 C 373.441406 -100.664062 382.328125 -108.03125 390.109375 -115.8125 C 397.898438 -123.601562 404.421875 -131.394531 409.671875 -139.1875 C 413.910156 -145.613281 417.253906 -152.003906 419.703125 -158.359375 C 422.160156 -164.710938 423.5625 -170.765625 423.90625 -176.515625 C 424.238281 -182.273438 423.390625 -187.691406 421.359375 -192.765625 C 419.328125 -197.847656 415.941406 -202.421875 411.203125 -206.484375 C 409.171875 -208.179688 406.925781 -209.832031 404.46875 -211.4375 C 402.007812 -213.050781 399.257812 -214.445312 396.21875 -215.625 Z M 396.21875 -215.625 "/></g></g></g></g></g></g></g></g></svg>