<svg xmlns="http://www.w3.org/2000/svg" xmlns:xlink="http://www.w3.org/1999/xlink" width="1080" zoomAndPan="magnify" viewBox="0 0 810 809.999993" height="1080" preserveAspectRatio="xMidYMid meet" version="1.0"><defs><g/><clipPath id="d289cdca1d"><path d="M 0.480469 0.480469 L 648 0.480469 L 648 464 L 0.480469 464 Z M 0.480469 0.480469 " clip-rule="nonzero"/></clipPath><clipPath id="f83e9b873e"><rect x="0" width="648" y="0" height="464"/></clipPath><clipPath id="0ab1df8363"><rect x="0" width="74" y="0" height="442"/></clipPath><clipPath id="b7a7cd23ac"><path d="M 40 308 L 702.960938 308 L 702.960938 772.078125 L 40 772.078125 Z M 40 308 " clip-rule="nonzero"/></clipPath><clipPath id="fd76ce887e"><rect x="0" width="663" y="0" height="465"/></clipPath><clipPath id="15356e73ec"><rect x="0" width="703" y="0" height="773"/></clipPath></defs><g transform="matrix(1, 0, 0, 1, 48, 18)"><g clip-path="url(#15356e73ec)"><g clip-path="url(#d289cdca1d)"><g transform="matrix(1, 0, 0, 1, 0, 0.00000000000003908)"><g clip-path="url(#f83e9b873e)"><g fill="#6a2e3a" fill-opacity="1"><g transform="translate(0.532573, 307.280644)"><g><path d="M 280.09375 -31.921875 C 281.269531 -19.515625 283.945312 -8.023438 288.125 2.546875 C 291.519531 10.773438 296.351562 18.117188 302.625 24.578125 C 308.894531 31.046875 316.304688 36.109375 324.859375 39.765625 C 333.410156 43.421875 342.78125 45.25 352.96875 45.25 L 351.796875 45.4375 C 319.535156 44.65625 297.660156 29.898438 286.171875 1.171875 C 284.085938 -3.523438 282.390625 -8.550781 281.078125 -13.90625 C 279.773438 -19.257812 278.734375 -24.742188 277.953125 -30.359375 C 272.335938 -26.179688 266.625 -22.164062 260.8125 -18.3125 C 255 -14.457031 249.085938 -10.832031 243.078125 -7.4375 C 233.804688 -2.21875 223.226562 2.675781 211.34375 7.25 C 199.46875 11.820312 187.097656 15.738281 174.234375 19 C 161.367188 22.257812 148.632812 24.609375 136.03125 26.046875 C 123.4375 27.484375 111.847656 27.613281 101.265625 26.4375 C 89.640625 25.269531 79.125 22.398438 69.71875 17.828125 C 60.320312 13.253906 53.078125 6.394531 47.984375 -2.75 C 44.203125 -9.007812 41.921875 -15.664062 41.140625 -22.71875 C 39.441406 -34.726562 41.492188 -47.6875 47.296875 -61.59375 C 53.109375 -75.507812 62.21875 -88.992188 74.625 -102.046875 C 87.03125 -115.109375 102.566406 -127.15625 121.234375 -138.1875 C 139.910156 -149.21875 161.265625 -157.9375 185.296875 -164.34375 C 190.648438 -165.78125 196.195312 -167.050781 201.9375 -168.15625 C 207.6875 -169.269531 213.5 -170.28125 219.375 -171.1875 C 238.3125 -173.800781 254.601562 -174.910156 268.25 -174.515625 C 281.894531 -174.128906 293.289062 -172.566406 302.4375 -169.828125 C 309.351562 -185.628906 317.738281 -200.675781 327.59375 -214.96875 C 337.457031 -229.269531 349.242188 -241.773438 362.953125 -252.484375 C 372.617188 -260.054688 381.921875 -265.472656 390.859375 -268.734375 C 399.804688 -272.003906 407.484375 -272.921875 413.890625 -271.484375 C 418.328125 -270.566406 421.984375 -268.539062 424.859375 -265.40625 C 428.253906 -261.75 430.273438 -256.753906 430.921875 -250.421875 C 431.578125 -244.085938 430.988281 -236.8125 429.15625 -228.59375 C 426.9375 -218.664062 423.539062 -208.671875 418.96875 -198.609375 C 414.40625 -188.554688 409.445312 -179.023438 404.09375 -170.015625 C 395.207031 -154.742188 384.460938 -138.976562 371.859375 -122.71875 C 359.265625 -106.457031 345.226562 -90.554688 329.75 -75.015625 C 314.28125 -59.484375 297.726562 -45.117188 280.09375 -31.921875 Z M 188.625 -35.453125 C 205.34375 -37.671875 221.304688 -41.878906 236.515625 -48.078125 C 251.734375 -54.285156 265.28125 -61.566406 277.15625 -69.921875 C 278.332031 -85.984375 281.007812 -102.40625 285.1875 -119.1875 C 289.375 -135.96875 294.859375 -152.191406 301.640625 -167.859375 C 293.804688 -170.734375 285.085938 -172.460938 275.484375 -173.046875 C 265.890625 -173.640625 256.226562 -173.609375 246.5 -172.953125 C 236.78125 -172.304688 227.738281 -171.394531 219.375 -170.21875 C 213.5 -169.300781 207.722656 -168.316406 202.046875 -167.265625 C 196.367188 -166.222656 190.851562 -164.988281 185.5 -163.5625 C 161.601562 -157.15625 140.378906 -148.5 121.828125 -137.59375 C 103.285156 -126.695312 87.8125 -114.65625 75.40625 -101.46875 C 63 -88.40625 53.890625 -74.984375 48.078125 -61.203125 C 42.273438 -47.429688 40.222656 -34.601562 41.921875 -22.71875 C 42.703125 -16.582031 44.722656 -10.640625 47.984375 -4.890625 C 52.160156 2.285156 57.90625 7.734375 65.21875 11.453125 C 72.539062 15.179688 80.835938 17.566406 90.109375 18.609375 C 98.722656 19.523438 107.988281 19.425781 117.90625 18.3125 C 127.832031 17.207031 138.019531 15.347656 148.46875 12.734375 C 158.914062 10.117188 169.234375 7.015625 179.421875 3.421875 C 189.609375 -0.160156 199.300781 -4.070312 208.5 -8.3125 C 217.707031 -12.5625 226.035156 -16.773438 233.484375 -20.953125 C 240.796875 -25.265625 248.070312 -29.800781 255.3125 -34.5625 C 262.5625 -39.332031 269.648438 -44.265625 276.578125 -49.359375 C 276.578125 -52.359375 276.609375 -55.296875 276.671875 -58.171875 C 276.734375 -61.046875 276.894531 -63.921875 277.15625 -66.796875 C 264.882812 -59.222656 251.269531 -52.53125 236.3125 -46.71875 C 221.363281 -40.90625 205.535156 -36.890625 188.828125 -34.671875 C 185.429688 -34.148438 180.988281 -33.691406 175.5 -33.296875 C 170.019531 -32.910156 164.175781 -32.847656 157.96875 -33.109375 C 151.769531 -33.367188 145.957031 -34.25 140.53125 -35.75 C 135.113281 -37.25 130.738281 -39.660156 127.40625 -42.984375 C 124.082031 -46.316406 122.550781 -50.859375 122.8125 -56.609375 C 123.070312 -62.085938 125 -67.40625 128.59375 -72.5625 C 132.1875 -77.726562 135.941406 -82.140625 139.859375 -85.796875 C 134.765625 -90.097656 130.679688 -95.285156 127.609375 -101.359375 C 124.546875 -107.429688 122.425781 -114.0625 121.25 -121.25 L 121.25 -122.03125 C 122.425781 -114.84375 124.613281 -108.179688 127.8125 -102.046875 C 131.007812 -95.910156 135.21875 -90.753906 140.4375 -86.578125 C 148.800781 -94.015625 159.347656 -100.832031 172.078125 -107.03125 C 184.804688 -113.238281 199.003906 -117.390625 214.671875 -119.484375 C 216.765625 -119.742188 219.640625 -120.035156 223.296875 -120.359375 C 226.953125 -120.691406 230.898438 -120.820312 235.140625 -120.75 C 239.390625 -120.6875 243.40625 -120.226562 247.1875 -119.375 C 250.976562 -118.53125 254.082031 -117.097656 256.5 -115.078125 C 258.914062 -113.054688 260.125 -110.28125 260.125 -106.75 C 260.125 -102.832031 258.816406 -99.207031 256.203125 -95.875 C 253.585938 -92.550781 250.222656 -89.582031 246.109375 -86.96875 C 242.003906 -84.351562 237.597656 -82.066406 232.890625 -80.109375 C 228.191406 -78.148438 223.6875 -76.550781 219.375 -75.3125 C 215.070312 -74.070312 211.414062 -73.253906 208.40625 -72.859375 C 200.96875 -71.816406 193.164062 -71.328125 185 -71.390625 C 176.84375 -71.460938 168.910156 -72.539062 161.203125 -74.625 C 153.503906 -76.71875 146.582031 -80.242188 140.4375 -85.203125 C 136.65625 -81.679688 132.96875 -77.375 129.375 -72.28125 C 125.78125 -67.1875 123.851562 -61.832031 123.59375 -56.21875 C 123.332031 -50.601562 124.863281 -46.226562 128.1875 -43.09375 C 131.519531 -39.957031 135.863281 -37.671875 141.21875 -36.234375 C 146.570312 -34.796875 152.316406 -33.976562 158.453125 -33.78125 C 164.597656 -33.59375 170.347656 -33.691406 175.703125 -34.078125 C 181.054688 -34.472656 185.363281 -34.929688 188.625 -35.453125 Z M 413.6875 -270.703125 C 408.207031 -271.878906 401.15625 -270.640625 392.53125 -266.984375 C 383.914062 -263.328125 374.84375 -257.644531 365.3125 -249.9375 C 352.113281 -238.96875 340.75 -226.53125 331.21875 -212.625 C 321.6875 -198.71875 313.523438 -183.992188 306.734375 -168.453125 C 309.867188 -167.410156 312.742188 -166.203125 315.359375 -164.828125 C 317.972656 -163.453125 320.257812 -161.851562 322.21875 -160.03125 C 326 -156.769531 328.738281 -153.113281 330.4375 -149.0625 C 332.132812 -145.007812 332.921875 -140.703125 332.796875 -136.140625 C 332.140625 -126.992188 328.285156 -117.195312 321.234375 -106.75 C 316.535156 -100.351562 310.722656 -93.890625 303.796875 -87.359375 C 296.878906 -80.828125 288.976562 -74.691406 280.09375 -68.953125 C 279.832031 -65.941406 279.632812 -62.96875 279.5 -60.03125 C 279.375 -57.09375 279.3125 -54.253906 279.3125 -51.515625 C 296.6875 -64.578125 313.007812 -78.453125 328.28125 -93.140625 C 343.5625 -107.828125 357.5 -122.710938 370.09375 -137.796875 C 382.695312 -152.878906 393.441406 -167.40625 402.328125 -181.375 C 408.460938 -191.039062 413.617188 -200.28125 417.796875 -209.09375 C 421.972656 -217.90625 425.039062 -225.90625 427 -233.09375 C 427.914062 -236.226562 428.632812 -239.753906 429.15625 -243.671875 C 429.6875 -247.585938 429.625 -251.4375 428.96875 -255.21875 C 428.3125 -259.007812 426.675781 -262.210938 424.0625 -264.828125 C 421.582031 -267.691406 418.125 -269.648438 413.6875 -270.703125 Z M 141.21875 -85.984375 C 147.363281 -81.023438 154.222656 -77.5 161.796875 -75.40625 C 169.367188 -73.320312 177.132812 -72.242188 185.09375 -72.171875 C 193.0625 -72.109375 200.769531 -72.601562 208.21875 -73.65625 C 211.09375 -74.039062 214.679688 -74.820312 218.984375 -76 C 223.296875 -77.175781 227.769531 -78.742188 232.40625 -80.703125 C 237.039062 -82.660156 241.378906 -84.910156 245.421875 -87.453125 C 249.472656 -90.003906 252.769531 -92.910156 255.3125 -96.171875 C 257.863281 -99.441406 259.140625 -102.96875 259.140625 -106.75 C 259.140625 -110.144531 257.929688 -112.789062 255.515625 -114.6875 C 253.097656 -116.582031 250.03125 -117.921875 246.3125 -118.703125 C 242.59375 -119.484375 238.675781 -119.90625 234.5625 -119.96875 C 230.445312 -120.039062 226.625 -119.910156 223.09375 -119.578125 C 219.570312 -119.253906 216.898438 -118.960938 215.078125 -118.703125 C 199.535156 -116.609375 185.363281 -112.523438 172.5625 -106.453125 C 159.769531 -100.378906 149.320312 -93.554688 141.21875 -85.984375 Z M 305.5625 -166.296875 C 299.03125 -151.273438 293.578125 -135.734375 289.203125 -119.671875 C 284.828125 -103.617188 281.859375 -87.820312 280.296875 -72.28125 C 288.003906 -77.632812 294.859375 -83.3125 300.859375 -89.3125 C 306.867188 -95.320312 311.898438 -101.332031 315.953125 -107.34375 C 319.210938 -112.300781 321.789062 -117.226562 323.6875 -122.125 C 325.582031 -127.019531 326.660156 -131.691406 326.921875 -136.140625 C 327.179688 -140.578125 326.523438 -144.753906 324.953125 -148.671875 C 323.390625 -152.585938 320.78125 -156.113281 317.125 -159.25 C 315.550781 -160.550781 313.816406 -161.820312 311.921875 -163.0625 C 310.035156 -164.300781 307.914062 -165.378906 305.5625 -166.296875 Z M 305.5625 -166.296875 "/></g></g></g><g fill="#6a2e3a" fill-opacity="1"><g transform="translate(323.504511, 307.280644)"><g><path d="M 50.734375 -47.203125 C 47.859375 -45.378906 44.820312 -43.878906 41.625 -42.703125 C 38.425781 -41.523438 35.421875 -40.804688 32.609375 -40.546875 C 29.804688 -40.285156 27.648438 -40.546875 26.140625 -41.328125 C 24.640625 -42.109375 24.15625 -43.546875 24.6875 -45.640625 C 22.332031 -43.679688 20.046875 -41.6875 17.828125 -39.65625 C 15.609375 -37.632812 13.390625 -35.582031 11.171875 -33.5 C 7.117188 -29.445312 3.6875 -25.523438 0.875 -21.734375 C -1.925781 -17.953125 -3.847656 -14.5625 -4.890625 -11.5625 C -5.941406 -8.8125 -6.007812 -6.6875 -5.09375 -5.1875 C -4.175781 -3.6875 -2.085938 -3.195312 1.171875 -3.71875 C 4.828125 -4.375 8.773438 -5.710938 13.015625 -7.734375 C 17.265625 -9.753906 21.539062 -12.234375 25.84375 -15.171875 C 30.15625 -18.117188 34.207031 -21.125 38 -24.1875 C 41.789062 -27.257812 45.054688 -30.101562 47.796875 -32.71875 L 48.375 -31.921875 C 45.632812 -29.441406 42.367188 -26.664062 38.578125 -23.59375 C 34.796875 -20.53125 30.71875 -17.492188 26.34375 -14.484375 C 21.96875 -11.484375 17.625 -8.9375 13.3125 -6.84375 C 9.007812 -4.757812 5.03125 -3.457031 1.375 -2.9375 C -3.332031 -2.15625 -6.726562 -2.804688 -8.8125 -4.890625 C -10.90625 -6.984375 -11.425781 -10.25 -10.375 -14.6875 C -9.59375 -18.082031 -7.925781 -21.738281 -5.375 -25.65625 C -2.832031 -29.570312 0.328125 -33.359375 4.109375 -37.015625 C 9.460938 -42.242188 15.726562 -47.269531 22.90625 -52.09375 C 30.09375 -56.925781 37.148438 -60.648438 44.078125 -63.265625 C 45.378906 -63.660156 47.140625 -64.179688 49.359375 -64.828125 C 51.578125 -65.484375 53.796875 -65.8125 56.015625 -65.8125 C 58.234375 -65.8125 59.867188 -65.09375 60.921875 -63.65625 C 61.960938 -62.21875 62.054688 -60.488281 61.203125 -58.46875 C 60.359375 -56.445312 58.988281 -54.421875 57.09375 -52.390625 C 55.195312 -50.367188 53.078125 -48.640625 50.734375 -47.203125 Z M 60.53125 -63.265625 C 59.476562 -64.566406 57.773438 -64.957031 55.421875 -64.4375 C 53.078125 -63.914062 50.535156 -62.90625 47.796875 -61.40625 C 45.054688 -59.90625 42.539062 -58.40625 40.25 -56.90625 C 37.96875 -55.40625 36.367188 -54.328125 35.453125 -53.671875 C 33.890625 -52.628906 32.320312 -51.519531 30.75 -50.34375 C 29.1875 -49.164062 27.617188 -47.988281 26.046875 -46.8125 C 25.140625 -44.332031 25.890625 -42.894531 28.296875 -42.5 C 30.710938 -42.113281 33.945312 -42.570312 38 -43.875 C 42.050781 -45.175781 45.90625 -47.070312 49.5625 -49.5625 C 51.78125 -50.863281 53.832031 -52.394531 55.71875 -54.15625 C 57.613281 -55.914062 59.050781 -57.644531 60.03125 -59.34375 C 61.007812 -61.039062 61.175781 -62.347656 60.53125 -63.265625 Z M 60.140625 -86.96875 L 57.78125 -88.34375 C 58.039062 -88.46875 59.148438 -89.148438 61.109375 -90.390625 C 63.066406 -91.628906 65.414062 -93.195312 68.15625 -95.09375 C 70.90625 -96.988281 73.648438 -99.015625 76.390625 -101.171875 C 79.128906 -103.328125 81.507812 -105.445312 83.53125 -107.53125 C 85.5625 -109.625 86.835938 -111.390625 87.359375 -112.828125 C 87.359375 -112.828125 88.007812 -112.757812 89.3125 -112.625 C 90.625 -112.5 93.300781 -111.328125 97.34375 -109.109375 Z M 60.140625 -86.96875 "/></g></g></g><g fill="#6a2e3a" fill-opacity="1"><g transform="translate(371.294187, 307.280644)"><g><path d="M 51.71875 -32.71875 L 52.296875 -31.921875 C 45.765625 -25.128906 38.546875 -19.347656 30.640625 -14.578125 C 22.742188 -9.816406 14.160156 -6.328125 4.890625 -4.109375 C 4.109375 -3.722656 3.328125 -3.398438 2.546875 -3.140625 C 1.765625 -2.878906 0.984375 -2.550781 0.203125 -2.15625 C -2.929688 -1.113281 -6.457031 -0.523438 -10.375 -0.390625 C -14.289062 -0.265625 -17.554688 -0.984375 -20.171875 -2.546875 L -19.59375 -2.9375 C -17.363281 -1.894531 -14.519531 -1.632812 -11.0625 -2.15625 C -7.601562 -2.675781 -4.4375 -3.71875 -1.5625 -5.28125 C 1.039062 -6.851562 3.453125 -8.8125 5.671875 -11.15625 C 7.898438 -13.507812 9.925781 -16.125 11.75 -19 C 15.019531 -23.695312 17.859375 -28.5625 20.265625 -33.59375 C 22.679688 -38.625 25.289062 -43.648438 28.09375 -48.671875 C 30.90625 -53.703125 34.335938 -58.375 38.390625 -62.6875 C 36.296875 -61.25 33.976562 -59.582031 31.4375 -57.6875 C 28.894531 -55.789062 26.117188 -53.664062 23.109375 -51.3125 C 19.972656 -48.832031 16.546875 -45.992188 12.828125 -42.796875 C 9.109375 -39.597656 5.03125 -35.972656 0.59375 -31.921875 L 0 -32.71875 C 4.3125 -36.632812 8.359375 -40.191406 12.140625 -43.390625 C 15.929688 -46.585938 19.394531 -49.492188 22.53125 -52.109375 C 26.3125 -55.109375 29.671875 -57.648438 32.609375 -59.734375 C 35.546875 -61.828125 38.191406 -63.59375 40.546875 -65.03125 C 43.160156 -67.382812 45.898438 -69.375 48.765625 -71 C 51.640625 -72.632812 54.710938 -73.648438 57.984375 -74.046875 L 58.171875 -73.25 C 56.347656 -72.082031 53.929688 -70.648438 50.921875 -68.953125 C 47.921875 -67.253906 44.523438 -65.617188 40.734375 -64.046875 C 37.992188 -60.785156 35.773438 -57.128906 34.078125 -53.078125 C 32.378906 -49.035156 30.84375 -44.789062 29.46875 -40.34375 C 28.101562 -35.90625 26.570312 -31.5625 24.875 -27.3125 C 23.175781 -23.070312 20.957031 -19.125 18.21875 -15.46875 C 15.21875 -11.6875 11.5625 -8.425781 7.25 -5.6875 C 16 -8.164062 24.0625 -11.6875 31.4375 -16.25 C 38.8125 -20.820312 45.570312 -26.3125 51.71875 -32.71875 Z M 51.71875 -32.71875 "/></g></g></g><g fill="#6a2e3a" fill-opacity="1"><g transform="translate(423.001021, 307.280644)"><g><path d="M 51.71875 -32.71875 L 52.296875 -31.921875 C 45.765625 -25.128906 38.546875 -19.347656 30.640625 -14.578125 C 22.742188 -9.816406 14.160156 -6.328125 4.890625 -4.109375 C 4.109375 -3.722656 3.328125 -3.398438 2.546875 -3.140625 C 1.765625 -2.878906 0.984375 -2.550781 0.203125 -2.15625 C -2.929688 -1.113281 -6.457031 -0.523438 -10.375 -0.390625 C -14.289062 -0.265625 -17.554688 -0.984375 -20.171875 -2.546875 L -19.59375 -2.9375 C -17.363281 -1.894531 -14.519531 -1.632812 -11.0625 -2.15625 C -7.601562 -2.675781 -4.4375 -3.71875 -1.5625 -5.28125 C 1.039062 -6.851562 3.453125 -8.8125 5.671875 -11.15625 C 7.898438 -13.507812 9.925781 -16.125 11.75 -19 C 15.019531 -23.695312 17.859375 -28.5625 20.265625 -33.59375 C 22.679688 -38.625 25.289062 -43.648438 28.09375 -48.671875 C 30.90625 -53.703125 34.335938 -58.375 38.390625 -62.6875 C 36.296875 -61.25 33.976562 -59.582031 31.4375 -57.6875 C 28.894531 -55.789062 26.117188 -53.664062 23.109375 -51.3125 C 19.972656 -48.832031 16.546875 -45.992188 12.828125 -42.796875 C 9.109375 -39.597656 5.03125 -35.972656 0.59375 -31.921875 L 0 -32.71875 C 4.3125 -36.632812 8.359375 -40.191406 12.140625 -43.390625 C 15.929688 -46.585938 19.394531 -49.492188 22.53125 -52.109375 C 26.3125 -55.109375 29.671875 -57.648438 32.609375 -59.734375 C 35.546875 -61.828125 38.191406 -63.59375 40.546875 -65.03125 C 43.160156 -67.382812 45.898438 -69.375 48.765625 -71 C 51.640625 -72.632812 54.710938 -73.648438 57.984375 -74.046875 L 58.171875 -73.25 C 56.347656 -72.082031 53.929688 -70.648438 50.921875 -68.953125 C 47.921875 -67.253906 44.523438 -65.617188 40.734375 -64.046875 C 37.992188 -60.785156 35.773438 -57.128906 34.078125 -53.078125 C 32.378906 -49.035156 30.84375 -44.789062 29.46875 -40.34375 C 28.101562 -35.90625 26.570312 -31.5625 24.875 -27.3125 C 23.175781 -23.070312 20.957031 -19.125 18.21875 -15.46875 C 15.21875 -11.6875 11.5625 -8.425781 7.25 -5.6875 C 16 -8.164062 24.0625 -11.6875 31.4375 -16.25 C 38.8125 -20.820312 45.570312 -26.3125 51.71875 -32.71875 Z M 51.71875 -32.71875 "/></g></g></g><g fill="#6a2e3a" fill-opacity="1"><g transform="translate(474.707856, 307.280644)"><g><path d="M 34.671875 -32.71875 L 35.25 -31.921875 C 30.03125 -27.222656 24.414062 -22.359375 18.40625 -17.328125 C 12.40625 -12.304688 6.335938 -7.898438 0.203125 -4.109375 C -1.765625 -2.929688 -4.050781 -1.851562 -6.65625 -0.875 C -9.269531 0.101562 -11.6875 0.328125 -13.90625 -0.203125 C -17.5625 -1.367188 -19.191406 -3.910156 -18.796875 -7.828125 C -18.535156 -10.441406 -17.296875 -13.476562 -15.078125 -16.9375 C -12.859375 -20.40625 -9.53125 -24.160156 -5.09375 -28.203125 L 36.4375 -65.8125 L 47.203125 -65.8125 L -5.484375 -17.828125 C -8.359375 -15.210938 -10.476562 -12.859375 -11.84375 -10.765625 C -13.21875 -8.679688 -14.035156 -6.921875 -14.296875 -5.484375 C -14.554688 -3.128906 -13.578125 -1.757812 -11.359375 -1.375 C -8.484375 -0.976562 -4.695312 -2.148438 0 -4.890625 C 5.875 -8.679688 11.8125 -13.054688 17.8125 -18.015625 C 23.820312 -22.984375 29.441406 -27.882812 34.671875 -32.71875 Z M 73.84375 -97.34375 C 74.625 -96.5625 74.523438 -95.125 73.546875 -93.03125 C 72.566406 -90.945312 71.035156 -88.859375 68.953125 -86.765625 C 66.859375 -84.679688 64.765625 -83.179688 62.671875 -82.265625 C 60.585938 -81.347656 59.15625 -81.15625 58.375 -81.6875 C 57.59375 -82.46875 57.722656 -83.898438 58.765625 -85.984375 C 59.804688 -88.078125 61.375 -90.164062 63.46875 -92.25 C 65.550781 -94.476562 67.601562 -96.082031 69.625 -97.0625 C 71.65625 -98.039062 73.0625 -98.132812 73.84375 -97.34375 Z M 73.84375 -97.34375 "/></g></g></g><g fill="#6a2e3a" fill-opacity="1"><g transform="translate(509.374994, 307.280644)"><g><path d="M 47.59375 -32.71875 L 48.1875 -31.921875 C 45.445312 -29.441406 42.179688 -26.664062 38.390625 -23.59375 C 34.609375 -20.53125 30.53125 -17.492188 26.15625 -14.484375 C 21.78125 -11.484375 17.46875 -8.9375 13.21875 -6.84375 C 8.976562 -4.757812 5.03125 -3.457031 1.375 -2.9375 C -3.457031 -2.15625 -6.914062 -2.804688 -9 -4.890625 C -11.09375 -6.984375 -11.550781 -10.25 -10.375 -14.6875 C -9.59375 -18.082031 -7.960938 -21.738281 -5.484375 -25.65625 C -3.003906 -29.570312 0.128906 -33.359375 3.921875 -37.015625 C 9.273438 -42.242188 15.570312 -47.269531 22.8125 -52.09375 C 30.0625 -56.925781 37.082031 -60.648438 43.875 -63.265625 C 45.3125 -63.660156 47.171875 -64.179688 49.453125 -64.828125 C 51.742188 -65.484375 54 -65.8125 56.21875 -65.8125 C 58.4375 -65.8125 60.066406 -65.09375 61.109375 -63.65625 C 62.160156 -62.351562 62.289062 -60.785156 61.5 -58.953125 C 60.71875 -57.128906 59.640625 -55.429688 58.265625 -53.859375 C 56.898438 -52.296875 55.757812 -51.125 54.84375 -50.34375 C 56.019531 -49.6875 56.671875 -49.160156 56.796875 -48.765625 L 56.40625 -48.1875 C 56.144531 -48.445312 55.816406 -48.707031 55.421875 -48.96875 C 55.035156 -49.226562 54.582031 -49.488281 54.0625 -49.75 C 52.363281 -48.3125 50.46875 -47.203125 48.375 -46.421875 C 44.976562 -44.984375 42.628906 -44.785156 41.328125 -45.828125 C 40.023438 -46.878906 40.742188 -48.1875 43.484375 -49.75 C 46.742188 -51.320312 50.140625 -51.582031 53.671875 -50.53125 C 54.710938 -51.320312 55.914062 -52.46875 57.28125 -53.96875 C 58.65625 -55.46875 59.765625 -57.097656 60.609375 -58.859375 C 61.460938 -60.617188 61.367188 -62.085938 60.328125 -63.265625 C 59.410156 -64.566406 57.773438 -64.957031 55.421875 -64.4375 C 53.078125 -63.914062 50.535156 -62.90625 47.796875 -61.40625 C 45.054688 -59.90625 42.507812 -58.40625 40.15625 -56.90625 C 37.800781 -55.40625 36.164062 -54.328125 35.25 -53.671875 C 31.332031 -50.929688 27.253906 -47.796875 23.015625 -44.265625 C 18.773438 -40.742188 14.757812 -37.15625 10.96875 -33.5 C 6.914062 -29.445312 3.484375 -25.523438 0.671875 -21.734375 C -2.128906 -17.953125 -4.050781 -14.5625 -5.09375 -11.5625 C -6.007812 -8.8125 -6.039062 -6.6875 -5.1875 -5.1875 C -4.34375 -3.6875 -2.285156 -3.195312 0.984375 -3.71875 C 6.078125 -4.5 11.523438 -6.554688 17.328125 -9.890625 C 23.140625 -13.222656 28.722656 -17.007812 34.078125 -21.25 C 39.429688 -25.5 43.9375 -29.320312 47.59375 -32.71875 Z M 52.890625 -49.953125 C 49.617188 -50.859375 46.613281 -50.53125 43.875 -48.96875 C 42.175781 -47.925781 41.914062 -47.140625 43.09375 -46.609375 C 44.269531 -46.085938 45.96875 -46.285156 48.1875 -47.203125 C 48.96875 -47.597656 49.78125 -48.023438 50.625 -48.484375 C 51.476562 -48.941406 52.234375 -49.429688 52.890625 -49.953125 Z M 52.890625 -49.953125 "/></g></g></g><g fill="#6a2e3a" fill-opacity="1"><g transform="translate(556.968782, 307.280644)"><g><path d="M 40.34375 -4.109375 C 38.257812 -2.929688 35.910156 -1.851562 33.296875 -0.875 C 30.679688 0.101562 28.265625 0.328125 26.046875 -0.203125 C 22.390625 -1.242188 20.691406 -3.785156 20.953125 -7.828125 C 21.210938 -10.054688 22.253906 -12.671875 24.078125 -15.671875 C 25.910156 -18.671875 28.65625 -22 32.3125 -25.65625 C 27.75 -21.738281 22.625 -17.785156 16.9375 -13.796875 C 11.257812 -9.816406 5.875 -6.71875 0.78125 -4.5 C -0.132812 -4.113281 -1.015625 -3.789062 -1.859375 -3.53125 C -2.710938 -3.269531 -3.53125 -3.070312 -4.3125 -2.9375 C -8.488281 -1.632812 -11.519531 -1.863281 -13.40625 -3.625 C -15.300781 -5.382812 -15.40625 -8.484375 -13.71875 -12.921875 C -12.40625 -16.835938 -9.789062 -21.210938 -5.875 -26.046875 C -3.914062 -28.660156 -1.597656 -31.367188 1.078125 -34.171875 C 3.753906 -36.984375 6.53125 -39.695312 9.40625 -42.3125 C 11.625 -44.269531 14.523438 -46.519531 18.109375 -49.0625 C 21.703125 -51.613281 25.554688 -54.097656 29.671875 -56.515625 C 33.785156 -58.929688 37.863281 -60.984375 41.90625 -62.671875 C 45.957031 -64.367188 49.679688 -65.378906 53.078125 -65.703125 C 56.472656 -66.035156 59.148438 -65.351562 61.109375 -63.65625 C 63.203125 -62.21875 62.742188 -59.148438 59.734375 -54.453125 C 58.429688 -52.359375 56.863281 -50.132812 55.03125 -47.78125 C 53.207031 -45.4375 51.253906 -43.15625 49.171875 -40.9375 L 76.390625 -65.8125 L 86.96875 -65.8125 L 34.46875 -17.828125 C 29.113281 -12.734375 26.242188 -8.617188 25.859375 -5.484375 C 25.203125 -3.128906 26.113281 -1.757812 28.59375 -1.375 C 31.34375 -0.976562 35.066406 -2.148438 39.765625 -4.890625 C 45.898438 -8.679688 51.96875 -13.054688 57.96875 -18.015625 C 63.976562 -22.984375 69.597656 -27.882812 74.828125 -32.71875 L 75.40625 -31.921875 C 70.1875 -27.222656 64.570312 -22.359375 58.5625 -17.328125 C 52.5625 -12.304688 46.488281 -7.898438 40.34375 -4.109375 Z M 60.53125 -63.265625 C 59.09375 -64.441406 56.804688 -64.441406 53.671875 -63.265625 C 50.535156 -62.085938 46.972656 -60.289062 42.984375 -57.875 C 39.003906 -55.457031 35.054688 -52.8125 31.140625 -49.9375 C 27.222656 -47.070312 23.757812 -44.429688 20.75 -42.015625 C 17.75 -39.597656 15.726562 -37.867188 14.6875 -36.828125 C 10.90625 -33.554688 7.050781 -29.992188 3.125 -26.140625 C -0.789062 -22.296875 -4.117188 -18.285156 -6.859375 -14.109375 C -7.773438 -12.929688 -8.6875 -11.457031 -9.59375 -9.6875 C -10.507812 -7.925781 -10.800781 -6.359375 -10.46875 -4.984375 C -10.144531 -3.617188 -8.742188 -3.003906 -6.265625 -3.140625 C -4.566406 -3.265625 -2.28125 -3.976562 0.59375 -5.28125 C 6.332031 -7.769531 12.269531 -11.265625 18.40625 -15.765625 C 24.550781 -20.273438 29.972656 -24.550781 34.671875 -28.59375 C 37.285156 -30.8125 40.15625 -33.421875 43.28125 -36.421875 C 46.414062 -39.429688 49.421875 -42.535156 52.296875 -45.734375 C 55.171875 -48.929688 57.457031 -52.035156 59.15625 -55.046875 C 60.195312 -56.867188 60.878906 -58.53125 61.203125 -60.03125 C 61.535156 -61.53125 61.3125 -62.609375 60.53125 -63.265625 Z M 60.53125 -63.265625 "/></g></g></g></g></g></g><g transform="matrix(1, 0, 0, 1, 555, 136)"><g clip-path="url(#0ab1df8363)"><g fill="#6a2e3a" fill-opacity="1"><g transform="translate(13.096672, 292.377138)"><g><path d="M 48.25 -44.890625 C 45.507812 -43.148438 42.617188 -41.71875 39.578125 -40.59375 C 36.535156 -39.476562 33.679688 -38.796875 31.015625 -38.546875 C 28.347656 -38.304688 26.296875 -38.554688 24.859375 -39.296875 C 23.429688 -40.046875 22.96875 -41.414062 23.46875 -43.40625 C 21.226562 -41.539062 19.050781 -39.644531 16.9375 -37.71875 C 14.832031 -35.789062 12.722656 -33.832031 10.609375 -31.84375 C 6.765625 -28 3.503906 -24.273438 0.828125 -20.671875 C -1.835938 -17.078125 -3.664062 -13.847656 -4.65625 -10.984375 C -5.644531 -8.378906 -5.703125 -6.363281 -4.828125 -4.9375 C -3.960938 -3.507812 -1.976562 -3.039062 1.125 -3.53125 C 4.59375 -4.15625 8.34375 -5.429688 12.375 -7.359375 C 16.414062 -9.285156 20.484375 -11.644531 24.578125 -14.4375 C 28.679688 -17.226562 32.53125 -20.082031 36.125 -23 C 39.726562 -25.914062 42.835938 -28.617188 45.453125 -31.109375 L 46 -30.359375 C 43.394531 -28.003906 40.289062 -25.363281 36.6875 -22.4375 C 33.09375 -19.519531 29.210938 -16.632812 25.046875 -13.78125 C 20.890625 -10.925781 16.757812 -8.503906 12.65625 -6.515625 C 8.5625 -4.523438 4.773438 -3.285156 1.296875 -2.796875 C -3.171875 -2.046875 -6.394531 -2.664062 -8.375 -4.65625 C -10.363281 -6.644531 -10.863281 -9.75 -9.875 -13.96875 C -9.125 -17.195312 -7.535156 -20.671875 -5.109375 -24.390625 C -2.691406 -28.117188 0.3125 -31.722656 3.90625 -35.203125 C 9 -40.171875 14.957031 -44.953125 21.78125 -49.546875 C 28.613281 -54.140625 35.320312 -57.675781 41.90625 -60.15625 C 43.144531 -60.53125 44.820312 -61.023438 46.9375 -61.640625 C 49.050781 -62.265625 51.160156 -62.578125 53.265625 -62.578125 C 55.378906 -62.578125 56.929688 -61.894531 57.921875 -60.53125 C 58.921875 -59.164062 59.015625 -57.519531 58.203125 -55.59375 C 57.398438 -53.675781 56.097656 -51.753906 54.296875 -49.828125 C 52.492188 -47.898438 50.476562 -46.253906 48.25 -44.890625 Z M 57.5625 -60.15625 C 56.5625 -61.40625 54.941406 -61.78125 52.703125 -61.28125 C 50.472656 -60.78125 48.050781 -59.816406 45.4375 -58.390625 C 42.832031 -56.960938 40.441406 -55.535156 38.265625 -54.109375 C 36.097656 -52.679688 34.582031 -51.65625 33.71875 -51.03125 C 32.226562 -50.039062 30.738281 -48.984375 29.25 -47.859375 C 27.757812 -46.742188 26.265625 -45.628906 24.765625 -44.515625 C 23.898438 -42.160156 24.613281 -40.796875 26.90625 -40.421875 C 29.207031 -40.046875 32.28125 -40.476562 36.125 -41.71875 C 39.976562 -42.96875 43.644531 -44.769531 47.125 -47.125 C 49.238281 -48.363281 51.191406 -49.820312 52.984375 -51.5 C 54.785156 -53.175781 56.148438 -54.820312 57.078125 -56.4375 C 58.015625 -58.050781 58.175781 -59.289062 57.5625 -60.15625 Z M 57.5625 -60.15625 "/></g></g></g></g></g><g clip-path="url(#b7a7cd23ac)"><g transform="matrix(1, 0, 0, 1, 40, 308)"><g clip-path="url(#fd76ce887e)"><g fill="#6a2e3a" fill-opacity="1"><g transform="translate(0.581308, 307.485686)"><g><path d="M 437.1875 -210.953125 C 435.882812 -210.429688 433.109375 -207.625 428.859375 -202.53125 C 424.617188 -197.4375 419.234375 -190.84375 412.703125 -182.75 C 406.828125 -175.175781 400.070312 -166.6875 392.4375 -157.28125 C 384.800781 -147.882812 376.441406 -137.960938 367.359375 -127.515625 C 358.285156 -117.066406 348.6875 -106.519531 338.5625 -95.875 C 328.445312 -85.238281 317.90625 -74.957031 306.9375 -65.03125 C 296.351562 -55.363281 284.660156 -46.285156 271.859375 -37.796875 C 259.066406 -29.316406 245.554688 -21.710938 231.328125 -14.984375 C 217.097656 -8.253906 202.472656 -2.609375 187.453125 1.953125 C 167.472656 7.703125 147.265625 11.097656 126.828125 12.140625 C 106.390625 13.191406 86.640625 11.039062 67.578125 5.6875 C 58.828125 3.070312 51.25 -0.679688 44.84375 -5.578125 C 38.445312 -10.472656 33.910156 -16.578125 31.234375 -23.890625 C 28.566406 -31.203125 28.40625 -39.628906 30.75 -49.171875 C 32.1875 -54.648438 34.503906 -60.296875 37.703125 -66.109375 C 40.898438 -71.921875 44.914062 -77.566406 49.75 -83.046875 C 57.582031 -92.191406 67.40625 -100.78125 79.21875 -108.8125 C 91.039062 -116.84375 104.65625 -123.796875 120.0625 -129.671875 C 135.476562 -135.546875 152.457031 -139.789062 171 -142.40625 C 192.414062 -145.40625 209.617188 -146.054688 222.609375 -144.359375 C 235.597656 -142.660156 245.035156 -139.460938 250.921875 -134.765625 C 256.660156 -129.796875 259.335938 -123.851562 258.953125 -116.9375 C 258.816406 -113.539062 257.929688 -109.945312 256.296875 -106.15625 C 254.671875 -102.375 252.484375 -98.585938 249.734375 -94.796875 C 243.859375 -86.835938 235.695312 -79.003906 225.25 -71.296875 C 214.8125 -63.585938 202.734375 -56.894531 189.015625 -51.21875 C 175.304688 -45.539062 160.679688 -41.59375 145.140625 -39.375 C 132.609375 -37.675781 122.488281 -37.410156 114.78125 -38.578125 C 107.070312 -39.753906 101.523438 -41.976562 98.140625 -45.25 C 94.484375 -48.25 92.847656 -52.097656 93.234375 -56.796875 C 93.492188 -61.242188 95.320312 -65.878906 98.71875 -70.703125 C 100.8125 -73.835938 103.425781 -76.84375 106.5625 -79.71875 C 102.507812 -83.113281 99.304688 -87.160156 96.953125 -91.859375 C 94.609375 -96.566406 92.910156 -101.789062 91.859375 -107.53125 L 92.0625 -107.53125 C 92.976562 -101.914062 94.738281 -96.820312 97.34375 -92.25 C 99.957031 -87.6875 103.222656 -83.707031 107.140625 -80.3125 C 113.671875 -86.1875 121.929688 -91.570312 131.921875 -96.46875 C 141.910156 -101.363281 153.039062 -104.660156 165.3125 -106.359375 C 173.9375 -107.535156 180.859375 -107.726562 186.078125 -106.9375 C 191.304688 -106.15625 195.09375 -104.785156 197.4375 -102.828125 C 199.789062 -101.265625 200.96875 -98.984375 200.96875 -95.984375 C 200.96875 -93.765625 199.988281 -91.148438 198.03125 -88.140625 C 195.15625 -84.222656 190.382812 -80.46875 183.71875 -76.875 C 177.0625 -73.289062 169.296875 -70.78125 160.421875 -69.34375 C 150.109375 -68.03125 141.066406 -67.894531 133.296875 -68.9375 C 125.523438 -69.988281 118.832031 -72.015625 113.21875 -75.015625 C 111.257812 -76.066406 109.234375 -77.441406 107.140625 -79.140625 C 105.703125 -77.703125 104.332031 -76.265625 103.03125 -74.828125 C 101.726562 -73.390625 100.550781 -71.953125 99.5 -70.515625 C 97.800781 -68.035156 96.492188 -65.648438 95.578125 -63.359375 C 94.671875 -61.078125 94.148438 -58.828125 94.015625 -56.609375 C 94.015625 -54.515625 94.375 -52.519531 95.09375 -50.625 C 95.8125 -48.738281 97.019531 -47.078125 98.71875 -45.640625 C 102.113281 -42.640625 107.566406 -40.550781 115.078125 -39.375 C 122.585938 -38.195312 132.476562 -38.457031 144.75 -40.15625 C 160.289062 -42.375 174.882812 -46.320312 188.53125 -52 C 202.175781 -57.6875 214.222656 -64.347656 224.671875 -71.984375 C 235.117188 -79.617188 243.210938 -87.351562 248.953125 -95.1875 C 254.441406 -102.632812 257.507812 -109.882812 258.15625 -116.9375 C 258.289062 -120.195312 257.738281 -123.296875 256.5 -126.234375 C 255.257812 -129.179688 253.269531 -131.765625 250.53125 -133.984375 C 244.78125 -138.679688 235.441406 -141.878906 222.515625 -143.578125 C 209.585938 -145.273438 192.414062 -144.625 171 -141.625 C 152.582031 -139.007812 135.703125 -134.765625 120.359375 -128.890625 C 105.015625 -123.015625 91.46875 -116.09375 79.71875 -108.125 C 67.96875 -100.15625 58.175781 -91.664062 50.34375 -82.65625 C 45.507812 -77.039062 41.523438 -71.394531 38.390625 -65.71875 C 35.253906 -60.039062 32.96875 -54.457031 31.53125 -48.96875 C 29.1875 -39.5625 29.351562 -31.300781 32.03125 -24.1875 C 34.707031 -17.070312 39.210938 -11.097656 45.546875 -6.265625 C 51.878906 -1.429688 59.351562 2.285156 67.96875 4.890625 C 79.851562 8.285156 92.519531 10.046875 105.96875 10.171875 C 119.414062 10.304688 133.0625 9.132812 146.90625 6.65625 C 160.75 4.175781 174.363281 0.617188 187.75 -4.015625 C 201.132812 -8.648438 213.863281 -14.097656 225.9375 -20.359375 C 238.019531 -26.628906 248.894531 -33.421875 258.5625 -40.734375 C 272.132812 -50.921875 285.644531 -61.988281 299.09375 -73.9375 C 312.550781 -85.882812 325.578125 -98.09375 338.171875 -110.5625 C 350.773438 -123.039062 362.5625 -135.054688 373.53125 -146.609375 C 384.5 -158.171875 394.296875 -168.519531 402.921875 -177.65625 C 412.710938 -188.238281 420.675781 -196.660156 426.8125 -202.921875 C 432.945312 -209.191406 436.664062 -212.195312 437.96875 -211.9375 L 438.375 -211.15625 C 437.84375 -209.71875 436.171875 -206.351562 433.359375 -201.0625 C 430.554688 -195.769531 426.835938 -189.140625 422.203125 -181.171875 C 417.566406 -173.210938 412.242188 -164.335938 406.234375 -154.546875 C 400.234375 -144.753906 393.90625 -134.566406 387.25 -123.984375 C 384.632812 -119.941406 381.988281 -115.828125 379.3125 -111.640625 C 376.632812 -107.460938 373.925781 -103.285156 371.1875 -99.109375 C 376.925781 -103.816406 382.664062 -108.390625 388.40625 -112.828125 C 394.15625 -117.265625 399.90625 -121.570312 405.65625 -125.75 C 410.351562 -134.101562 415.738281 -142.328125 421.8125 -150.421875 C 427.882812 -158.523438 434.707031 -166.363281 442.28125 -173.9375 C 451.945312 -183.726562 460.535156 -191.070312 468.046875 -195.96875 C 475.554688 -200.863281 481.398438 -203.570312 485.578125 -204.09375 C 489.753906 -204.625 491.582031 -203.125 491.0625 -199.59375 C 490.539062 -196.070312 487.078125 -190.785156 480.671875 -183.734375 C 474.273438 -176.679688 464.285156 -168.0625 450.703125 -157.875 C 443.523438 -152.65625 436.34375 -147.429688 429.15625 -142.203125 C 421.976562 -136.984375 414.863281 -131.695312 407.8125 -126.34375 C 400.101562 -112.5 394.03125 -97.578125 389.59375 -81.578125 C 385.15625 -65.585938 382.96875 -49.394531 383.03125 -33 C 383.09375 -16.613281 385.867188 -0.847656 391.359375 14.296875 C 395.140625 24.878906 400.359375 34.507812 407.015625 43.1875 C 413.679688 51.875 421.710938 58.765625 431.109375 63.859375 C 440.515625 68.953125 451.160156 71.5625 463.046875 71.6875 C 473.234375 71.820312 483.253906 70.613281 493.109375 68.0625 C 502.972656 65.519531 511.921875 61.34375 519.953125 55.53125 C 527.984375 49.71875 534.285156 41.976562 538.859375 32.3125 C 540.816406 28.269531 542.21875 23.601562 543.0625 18.3125 C 543.914062 13.019531 544.144531 7.695312 543.75 2.34375 C 543.351562 -3.007812 542.175781 -7.9375 540.21875 -12.4375 C 538.257812 -16.945312 535.382812 -20.472656 531.59375 -23.015625 C 527.8125 -25.554688 523.050781 -26.566406 517.3125 -26.046875 L 517.890625 -26.25 C 523.898438 -26.769531 528.796875 -25.722656 532.578125 -23.109375 C 536.367188 -20.503906 539.242188 -16.976562 541.203125 -12.53125 C 543.160156 -8.09375 544.332031 -3.164062 544.71875 2.25 C 545.113281 7.664062 544.851562 13.019531 543.9375 18.3125 C 543.03125 23.601562 541.597656 28.335938 539.640625 32.515625 C 536.242188 39.566406 531.28125 46.160156 524.75 52.296875 C 518.21875 58.429688 509.925781 63.359375 499.875 67.078125 C 489.820312 70.804688 477.742188 72.601562 463.640625 72.46875 C 444.566406 72.34375 428.238281 67.25 414.65625 57.1875 C 401.082031 47.132812 391.160156 33.359375 384.890625 15.859375 C 380.847656 4.503906 378.46875 -7.242188 377.75 -19.390625 C 377.03125 -31.535156 377.710938 -43.710938 379.796875 -55.921875 C 381.890625 -68.128906 385.085938 -79.976562 389.390625 -91.46875 C 393.703125 -102.957031 398.734375 -113.796875 404.484375 -123.984375 C 398.609375 -119.546875 392.726562 -115.039062 386.84375 -110.46875 C 380.96875 -105.90625 375.222656 -101.335938 369.609375 -96.765625 C 362.828125 -86.835938 356.132812 -77.238281 349.53125 -67.96875 C 342.9375 -58.695312 336.703125 -50.335938 330.828125 -42.890625 C 326.128906 -37.015625 321.953125 -32.867188 318.296875 -30.453125 C 314.640625 -28.035156 311.960938 -27.1875 310.265625 -27.90625 C 308.566406 -28.625 308.269531 -30.742188 309.375 -34.265625 C 310.488281 -37.796875 313.394531 -42.5 318.09375 -48.375 C 324.625 -56.476562 332.265625 -64.675781 341.015625 -72.96875 C 349.765625 -81.257812 359.101562 -89.382812 369.03125 -97.34375 L 386.46875 -124.578125 C 392.988281 -134.765625 399.15625 -144.625 404.96875 -154.15625 C 410.78125 -163.6875 415.972656 -172.367188 420.546875 -180.203125 C 425.117188 -188.035156 428.835938 -194.628906 431.703125 -199.984375 C 434.578125 -205.335938 436.40625 -208.992188 437.1875 -210.953125 Z M 107.921875 -79.71875 C 108.710938 -79.0625 109.628906 -78.40625 110.671875 -77.75 C 111.710938 -77.101562 112.753906 -76.453125 113.796875 -75.796875 C 119.148438 -72.796875 125.710938 -70.804688 133.484375 -69.828125 C 141.253906 -68.847656 150.101562 -69.007812 160.03125 -70.3125 C 169.039062 -71.625 176.804688 -74.007812 183.328125 -77.46875 C 189.859375 -80.925781 194.5 -84.679688 197.25 -88.734375 C 199.207031 -91.609375 200.1875 -94.023438 200.1875 -95.984375 C 200.1875 -98.203125 199.140625 -100.351562 197.046875 -102.4375 C 194.828125 -104.269531 191.171875 -105.507812 186.078125 -106.15625 C 180.984375 -106.8125 174.191406 -106.617188 165.703125 -105.578125 C 153.429688 -103.878906 142.332031 -100.613281 132.40625 -95.78125 C 122.488281 -90.945312 114.328125 -85.59375 107.921875 -79.71875 Z M 408.59375 -128.109375 C 415.507812 -133.328125 422.460938 -138.445312 429.453125 -143.46875 C 436.441406 -148.5 443.332031 -153.5625 450.125 -158.65625 C 463.570312 -168.707031 473.460938 -177.128906 479.796875 -183.921875 C 486.128906 -190.710938 489.554688 -195.773438 490.078125 -199.109375 C 490.597656 -202.441406 488.867188 -203.8125 484.890625 -203.21875 C 480.910156 -202.632812 475.257812 -199.890625 467.9375 -194.984375 C 460.625 -190.085938 452.269531 -182.8125 442.875 -173.15625 C 435.820312 -166.101562 429.453125 -158.789062 423.765625 -151.21875 C 418.085938 -143.644531 413.03125 -135.941406 408.59375 -128.109375 Z M 330.046875 -43.28125 C 335.796875 -50.59375 341.867188 -58.65625 348.265625 -67.46875 C 354.660156 -76.289062 361.0625 -85.46875 367.46875 -95 C 357.925781 -87.289062 349.007812 -79.453125 340.71875 -71.484375 C 332.425781 -63.523438 325.082031 -55.628906 318.6875 -47.796875 C 314.113281 -42.046875 311.304688 -37.535156 310.265625 -34.265625 C 309.222656 -31.003906 309.453125 -29.113281 310.953125 -28.59375 C 312.453125 -28.070312 314.898438 -28.984375 318.296875 -31.328125 C 321.691406 -33.679688 325.609375 -37.664062 330.046875 -43.28125 Z M 330.046875 -43.28125 "/></g></g></g><g fill="#6a2e3a" fill-opacity="1"><g transform="translate(421.874587, 307.485686)"><g><path d="M 40.34375 -4.109375 C 38.257812 -2.929688 35.910156 -1.851562 33.296875 -0.875 C 30.679688 0.101562 28.265625 0.328125 26.046875 -0.203125 C 22.390625 -1.242188 20.691406 -3.785156 20.953125 -7.828125 C 21.210938 -10.054688 22.253906 -12.671875 24.078125 -15.671875 C 25.910156 -18.671875 28.65625 -22 32.3125 -25.65625 C 27.75 -21.738281 22.625 -17.785156 16.9375 -13.796875 C 11.257812 -9.816406 5.875 -6.71875 0.78125 -4.5 C -0.132812 -4.113281 -1.015625 -3.789062 -1.859375 -3.53125 C -2.710938 -3.269531 -3.53125 -3.070312 -4.3125 -2.9375 C -8.488281 -1.632812 -11.519531 -1.863281 -13.40625 -3.625 C -15.300781 -5.382812 -15.40625 -8.484375 -13.71875 -12.921875 C -12.40625 -16.835938 -9.789062 -21.210938 -5.875 -26.046875 C -3.914062 -28.660156 -1.597656 -31.367188 1.078125 -34.171875 C 3.753906 -36.984375 6.53125 -39.695312 9.40625 -42.3125 C 11.625 -44.269531 14.523438 -46.519531 18.109375 -49.0625 C 21.703125 -51.613281 25.554688 -54.097656 29.671875 -56.515625 C 33.785156 -58.929688 37.863281 -60.984375 41.90625 -62.671875 C 45.957031 -64.367188 49.679688 -65.378906 53.078125 -65.703125 C 56.472656 -66.035156 59.148438 -65.351562 61.109375 -63.65625 C 63.203125 -62.21875 62.742188 -59.148438 59.734375 -54.453125 C 58.429688 -52.359375 56.863281 -50.132812 55.03125 -47.78125 C 53.207031 -45.4375 51.253906 -43.15625 49.171875 -40.9375 L 76.390625 -65.8125 L 86.96875 -65.8125 L 34.46875 -17.828125 C 29.113281 -12.734375 26.242188 -8.617188 25.859375 -5.484375 C 25.203125 -3.128906 26.113281 -1.757812 28.59375 -1.375 C 31.34375 -0.976562 35.066406 -2.148438 39.765625 -4.890625 C 45.898438 -8.679688 51.96875 -13.054688 57.96875 -18.015625 C 63.976562 -22.984375 69.597656 -27.882812 74.828125 -32.71875 L 75.40625 -31.921875 C 70.1875 -27.222656 64.570312 -22.359375 58.5625 -17.328125 C 52.5625 -12.304688 46.488281 -7.898438 40.34375 -4.109375 Z M 60.53125 -63.265625 C 59.09375 -64.441406 56.804688 -64.441406 53.671875 -63.265625 C 50.535156 -62.085938 46.972656 -60.289062 42.984375 -57.875 C 39.003906 -55.457031 35.054688 -52.8125 31.140625 -49.9375 C 27.222656 -47.070312 23.757812 -44.429688 20.75 -42.015625 C 17.75 -39.597656 15.726562 -37.867188 14.6875 -36.828125 C 10.90625 -33.554688 7.050781 -29.992188 3.125 -26.140625 C -0.789062 -22.296875 -4.117188 -18.285156 -6.859375 -14.109375 C -7.773438 -12.929688 -8.6875 -11.457031 -9.59375 -9.6875 C -10.507812 -7.925781 -10.800781 -6.359375 -10.46875 -4.984375 C -10.144531 -3.617188 -8.742188 -3.003906 -6.265625 -3.140625 C -4.566406 -3.265625 -2.28125 -3.976562 0.59375 -5.28125 C 6.332031 -7.769531 12.269531 -11.265625 18.40625 -15.765625 C 24.550781 -20.273438 29.972656 -24.550781 34.671875 -28.59375 C 37.285156 -30.8125 40.15625 -33.421875 43.28125 -36.421875 C 46.414062 -39.429688 49.421875 -42.535156 52.296875 -45.734375 C 55.171875 -48.929688 57.457031 -52.035156 59.15625 -55.046875 C 60.195312 -56.867188 60.878906 -58.53125 61.203125 -60.03125 C 61.535156 -61.53125 61.3125 -62.609375 60.53125 -63.265625 Z M 60.53125 -63.265625 "/></g></g></g><g fill="#6a2e3a" fill-opacity="1"><g transform="translate(496.692847, 307.485686)"><g><path d="M 52.109375 -32.71875 L 52.6875 -31.921875 C 48.644531 -28.265625 44.367188 -24.707031 39.859375 -21.25 C 35.359375 -17.789062 31.148438 -14.625 27.234375 -11.75 C 25.535156 -10.570312 23.441406 -9.164062 20.953125 -7.53125 C 18.472656 -5.90625 15.894531 -4.503906 13.21875 -3.328125 C 10.539062 -2.148438 8.09375 -1.5625 5.875 -1.5625 C 2.476562 -1.5625 0.289062 -2.671875 -0.6875 -4.890625 C -1.664062 -7.117188 -1.566406 -9.664062 -0.390625 -12.53125 C 0.390625 -14.75 1.890625 -17.257812 4.109375 -20.0625 C 6.328125 -22.875 9.460938 -26.109375 13.515625 -29.765625 C 17.429688 -33.296875 20.660156 -36.332031 23.203125 -38.875 C 25.753906 -41.425781 27.8125 -43.941406 29.375 -46.421875 C 30.945312 -48.898438 32.1875 -51.804688 33.09375 -55.140625 C 34.007812 -58.472656 34.796875 -62.75 35.453125 -67.96875 C 32.453125 -64.445312 28.894531 -60.363281 24.78125 -55.71875 C 20.664062 -51.082031 16.484375 -46.644531 12.234375 -42.40625 C 7.992188 -38.164062 4.113281 -34.671875 0.59375 -31.921875 L 0 -32.71875 C 3.519531 -35.457031 7.46875 -38.976562 11.84375 -43.28125 C 16.21875 -47.59375 20.523438 -52.128906 24.765625 -56.890625 C 29.015625 -61.660156 32.644531 -65.875 35.65625 -69.53125 C 35.78125 -70.3125 35.875 -71.09375 35.9375 -71.875 C 36.007812 -72.664062 36.109375 -73.453125 36.234375 -74.234375 C 36.753906 -77.765625 37.703125 -80.3125 39.078125 -81.875 C 40.453125 -83.4375 41.628906 -84.054688 42.609375 -83.734375 C 43.585938 -83.410156 43.71875 -82.070312 43 -79.71875 C 42.28125 -77.375 40.09375 -73.914062 36.4375 -69.34375 C 36.039062 -63.851562 35.84375 -59.3125 35.84375 -55.71875 C 35.84375 -52.132812 35.546875 -48.90625 34.953125 -46.03125 C 34.367188 -43.15625 32.96875 -40.179688 30.75 -37.109375 C 28.53125 -34.046875 25.003906 -30.296875 20.171875 -25.859375 C 15.992188 -22.066406 12.695312 -18.863281 10.28125 -16.25 C 7.863281 -13.644531 6.066406 -11.492188 4.890625 -9.796875 C 3.984375 -8.097656 3.460938 -6.59375 3.328125 -5.28125 C 3.203125 -3.976562 4.378906 -3.328125 6.859375 -3.328125 C 9.460938 -3.328125 12.460938 -4.175781 15.859375 -5.875 C 19.253906 -7.570312 22.976562 -9.789062 27.03125 -12.53125 C 30.820312 -15.40625 34.9375 -18.640625 39.375 -22.234375 C 43.8125 -25.828125 48.054688 -29.320312 52.109375 -32.71875 Z M 52.109375 -32.71875 "/></g></g></g><g fill="#6a2e3a" fill-opacity="1"><g transform="translate(548.791379, 307.485686)"><g><path d="M 47.59375 -32.71875 L 48.1875 -31.921875 C 45.445312 -29.441406 42.179688 -26.664062 38.390625 -23.59375 C 34.609375 -20.53125 30.53125 -17.492188 26.15625 -14.484375 C 21.78125 -11.484375 17.46875 -8.9375 13.21875 -6.84375 C 8.976562 -4.757812 5.03125 -3.457031 1.375 -2.9375 C -3.457031 -2.15625 -6.914062 -2.804688 -9 -4.890625 C -11.09375 -6.984375 -11.550781 -10.25 -10.375 -14.6875 C -9.59375 -18.082031 -7.960938 -21.738281 -5.484375 -25.65625 C -3.003906 -29.570312 0.128906 -33.359375 3.921875 -37.015625 C 9.273438 -42.242188 15.570312 -47.269531 22.8125 -52.09375 C 30.0625 -56.925781 37.082031 -60.648438 43.875 -63.265625 C 45.3125 -63.660156 47.171875 -64.179688 49.453125 -64.828125 C 51.742188 -65.484375 54 -65.8125 56.21875 -65.8125 C 58.4375 -65.8125 60.066406 -65.09375 61.109375 -63.65625 C 62.160156 -62.351562 62.289062 -60.785156 61.5 -58.953125 C 60.71875 -57.128906 59.640625 -55.429688 58.265625 -53.859375 C 56.898438 -52.296875 55.757812 -51.125 54.84375 -50.34375 C 56.019531 -49.6875 56.671875 -49.160156 56.796875 -48.765625 L 56.40625 -48.1875 C 56.144531 -48.445312 55.816406 -48.707031 55.421875 -48.96875 C 55.035156 -49.226562 54.582031 -49.488281 54.0625 -49.75 C 52.363281 -48.3125 50.46875 -47.203125 48.375 -46.421875 C 44.976562 -44.984375 42.628906 -44.785156 41.328125 -45.828125 C 40.023438 -46.878906 40.742188 -48.1875 43.484375 -49.75 C 46.742188 -51.320312 50.140625 -51.582031 53.671875 -50.53125 C 54.710938 -51.320312 55.914062 -52.46875 57.28125 -53.96875 C 58.65625 -55.46875 59.765625 -57.097656 60.609375 -58.859375 C 61.460938 -60.617188 61.367188 -62.085938 60.328125 -63.265625 C 59.410156 -64.566406 57.773438 -64.957031 55.421875 -64.4375 C 53.078125 -63.914062 50.535156 -62.90625 47.796875 -61.40625 C 45.054688 -59.90625 42.507812 -58.40625 40.15625 -56.90625 C 37.800781 -55.40625 36.164062 -54.328125 35.25 -53.671875 C 31.332031 -50.929688 27.253906 -47.796875 23.015625 -44.265625 C 18.773438 -40.742188 14.757812 -37.15625 10.96875 -33.5 C 6.914062 -29.445312 3.484375 -25.523438 0.671875 -21.734375 C -2.128906 -17.953125 -4.050781 -14.5625 -5.09375 -11.5625 C -6.007812 -8.8125 -6.039062 -6.6875 -5.1875 -5.1875 C -4.34375 -3.6875 -2.285156 -3.195312 0.984375 -3.71875 C 6.078125 -4.5 11.523438 -6.554688 17.328125 -9.890625 C 23.140625 -13.222656 28.722656 -17.007812 34.078125 -21.25 C 39.429688 -25.5 43.9375 -29.320312 47.59375 -32.71875 Z M 52.890625 -49.953125 C 49.617188 -50.859375 46.613281 -50.53125 43.875 -48.96875 C 42.175781 -47.925781 41.914062 -47.140625 43.09375 -46.609375 C 44.269531 -46.085938 45.96875 -46.285156 48.1875 -47.203125 C 48.96875 -47.597656 49.78125 -48.023438 50.625 -48.484375 C 51.476562 -48.941406 52.234375 -49.429688 52.890625 -49.953125 Z M 52.890625 -49.953125 "/></g></g></g><g fill="#6a2e3a" fill-opacity="1"><g transform="translate(596.385206, 307.485686)"><g><path d="M 57.390625 -32.71875 L 57.984375 -31.921875 C 52.109375 -26.703125 47.144531 -23.078125 43.09375 -21.046875 C 39.039062 -19.023438 35.84375 -18.082031 33.5 -18.21875 C 31.28125 -18.21875 29.710938 -19 28.796875 -20.5625 L 28.203125 -22.140625 C 24.023438 -18.742188 19.519531 -15.410156 14.6875 -12.140625 C 9.851562 -8.878906 5.347656 -6.332031 1.171875 -4.5 C 0.253906 -4.113281 -0.625 -3.789062 -1.46875 -3.53125 C -2.320312 -3.269531 -3.140625 -3.070312 -3.921875 -2.9375 C -8.222656 -1.632812 -11.320312 -1.863281 -13.21875 -3.625 C -15.113281 -5.382812 -15.28125 -8.484375 -13.71875 -12.921875 C -12.144531 -16.972656 -9.46875 -21.347656 -5.6875 -26.046875 C -3.59375 -28.660156 -1.242188 -31.367188 1.359375 -34.171875 C 3.972656 -36.984375 6.785156 -39.695312 9.796875 -42.3125 C 12.015625 -44.269531 14.882812 -46.519531 18.40625 -49.0625 C 21.9375 -51.613281 25.757812 -54.097656 29.875 -56.515625 C 33.988281 -58.929688 38.066406 -60.984375 42.109375 -62.671875 C 46.160156 -64.367188 49.882812 -65.378906 53.28125 -65.703125 C 56.675781 -66.035156 59.414062 -65.351562 61.5 -63.65625 C 63.332031 -62.09375 62.878906 -59.023438 60.140625 -54.453125 C 58.441406 -51.453125 56.15625 -48.347656 53.28125 -45.140625 C 50.40625 -41.941406 47.398438 -38.875 44.265625 -35.9375 C 41.128906 -33 38.257812 -30.421875 35.65625 -28.203125 L 29.375 -22.921875 C 29.375 -21.867188 29.441406 -21.210938 29.578125 -20.953125 C 30.234375 -19.648438 31.539062 -19 33.5 -19 C 35.71875 -19 38.785156 -19.976562 42.703125 -21.9375 C 46.617188 -23.894531 51.515625 -27.488281 57.390625 -32.71875 Z M 60.921875 -63.265625 C 59.484375 -64.441406 57.164062 -64.441406 53.96875 -63.265625 C 50.769531 -62.085938 47.175781 -60.289062 43.1875 -57.875 C 39.207031 -55.457031 35.257812 -52.8125 31.34375 -49.9375 C 27.425781 -47.070312 23.960938 -44.429688 20.953125 -42.015625 C 17.953125 -39.597656 15.929688 -37.867188 14.890625 -36.828125 C 11.234375 -33.554688 7.445312 -29.992188 3.53125 -26.140625 C -0.382812 -22.296875 -3.847656 -18.285156 -6.859375 -14.109375 C -7.640625 -12.929688 -8.453125 -11.457031 -9.296875 -9.6875 C -10.148438 -7.925781 -10.445312 -6.359375 -10.1875 -4.984375 C -9.925781 -3.617188 -8.554688 -3.003906 -6.078125 -3.140625 C -4.378906 -3.265625 -2.15625 -3.976562 0.59375 -5.28125 C 5.15625 -7.113281 9.816406 -9.691406 14.578125 -13.015625 C 19.347656 -16.347656 23.890625 -19.648438 28.203125 -22.921875 C 28.203125 -24.878906 28.882812 -26.640625 30.25 -28.203125 C 31.625 -29.773438 33.359375 -31.113281 35.453125 -32.21875 C 37.546875 -33.332031 39.441406 -34.019531 41.140625 -34.28125 L 41.140625 -33.890625 C 44.523438 -37.023438 47.882812 -40.484375 51.21875 -44.265625 C 54.550781 -48.054688 57.257812 -51.648438 59.34375 -55.046875 C 60.519531 -56.867188 61.269531 -58.53125 61.59375 -60.03125 C 61.925781 -61.53125 61.703125 -62.609375 60.921875 -63.265625 Z M 60.921875 -63.265625 "/></g></g></g></g></g></g></g></g></svg>